<?xml version="1.0" encoding="UTF-8"?>
<svg xmlns="http://www.w3.org/2000/svg" xmlns:xlink="http://www.w3.org/1999/xlink" width="164px" height="23px" viewBox="0 0 164 23" version="1.1">
<g id="surface1">
<path style=" stroke:none;fill-rule:nonzero;fill:rgb(99.607843%,99.607843%,99.607843%);fill-opacity:1;" d="M 0 0 C 54.121094 0 108.238281 0 164 0 C 164 7.589844 164 15.179688 164 23 C 109.878906 23 55.761719 23 0 23 C 0 15.410156 0 7.820312 0 0 Z M 0 0 "/>
<path style=" stroke:none;fill-rule:nonzero;fill:rgb(3.921569%,3.921569%,3.921569%);fill-opacity:1;" d="M 11.175781 3.300781 C 11.953125 3.605469 12.570312 4.046875 13.207031 4.574219 C 14.59375 5.644531 16.574219 5.1875 18.1875 4.984375 C 18.769531 4.90625 19.339844 4.808594 19.914062 4.683594 C 20.421875 4.574219 20.933594 4.480469 21.445312 4.386719 C 21.535156 4.371094 21.628906 4.351562 21.722656 4.335938 C 22.71875 4.15625 23.667969 4.078125 24.679688 4.070312 C 24.800781 4.066406 24.921875 4.0625 25.046875 4.058594 C 26.042969 4.054688 27.003906 4.207031 27.75 4.917969 C 28.484375 5.8125 28.621094 6.90625 28.65625 8.023438 C 28.660156 8.121094 28.664062 8.214844 28.667969 8.316406 C 28.679688 8.621094 28.691406 8.925781 28.699219 9.230469 C 28.769531 11.277344 28.929688 13.285156 29.261719 15.304688 C 29.296875 15.519531 29.332031 15.730469 29.367188 15.941406 C 29.394531 16.128906 29.425781 16.316406 29.457031 16.503906 C 29.5 16.800781 29.5 16.800781 29.5 17.101562 C 29.558594 17.097656 29.617188 17.097656 29.675781 17.097656 C 30.277344 17.085938 30.878906 17.078125 31.480469 17.074219 C 31.707031 17.070312 31.929688 17.066406 32.152344 17.0625 C 32.476562 17.054688 32.800781 17.054688 33.125 17.050781 C 33.222656 17.046875 33.324219 17.046875 33.425781 17.042969 C 33.902344 17.042969 34.125 17.042969 34.515625 17.335938 C 34.699219 17.601562 34.699219 17.601562 34.707031 17.867188 C 34.570312 18.160156 34.457031 18.21875 34.164062 18.351562 C 33.757812 18.535156 33.578125 18.683594 33.398438 19.101562 C 33.339844 19.457031 33.3125 19.8125 33.289062 20.175781 C 33.273438 20.367188 33.257812 20.558594 33.242188 20.75 C 33.234375 20.875 33.234375 20.875 33.226562 21.003906 C 33.199219 21.199219 33.199219 21.199219 33.101562 21.300781 C 32.964844 21.308594 32.828125 21.3125 32.691406 21.3125 C 32.601562 21.3125 32.511719 21.3125 32.421875 21.3125 C 32.320312 21.3125 32.222656 21.3125 32.121094 21.3125 C 31.964844 21.3125 31.964844 21.3125 31.804688 21.3125 C 31.453125 21.3125 31.101562 21.3125 30.75 21.3125 C 30.5 21.3125 30.246094 21.3125 29.996094 21.3125 C 29.382812 21.3125 28.769531 21.3125 28.15625 21.3125 C 27.660156 21.3125 27.160156 21.3125 26.664062 21.3125 C 26.59375 21.3125 26.523438 21.3125 26.449219 21.3125 C 26.304688 21.3125 26.160156 21.3125 26.019531 21.3125 C 24.667969 21.3125 23.320312 21.3125 21.972656 21.3125 C 20.8125 21.3125 19.65625 21.3125 18.496094 21.3125 C 17.152344 21.3125 15.808594 21.3125 14.464844 21.3125 C 14.324219 21.3125 14.179688 21.3125 14.035156 21.3125 C 13.964844 21.3125 13.894531 21.3125 13.824219 21.3125 C 13.324219 21.3125 12.828125 21.3125 12.328125 21.3125 C 11.660156 21.3125 10.992188 21.3125 10.324219 21.3125 C 10.078125 21.3125 9.828125 21.3125 9.582031 21.3125 C 9.25 21.3125 8.914062 21.3125 8.578125 21.3125 C 8.480469 21.3125 8.382812 21.3125 8.28125 21.3125 C 8.191406 21.3125 8.101562 21.3125 8.011719 21.3125 C 7.894531 21.3125 7.894531 21.3125 7.777344 21.3125 C 7.601562 21.300781 7.601562 21.300781 7.5 21.199219 C 7.480469 21.066406 7.46875 20.929688 7.457031 20.796875 C 7.449219 20.714844 7.441406 20.628906 7.433594 20.546875 C 7.421875 20.371094 7.40625 20.195312 7.394531 20.023438 C 7.339844 19.441406 7.234375 19 6.863281 18.527344 C 6.648438 18.359375 6.433594 18.277344 6.179688 18.179688 C 6.046875 18.128906 6.046875 18.128906 5.90625 18.078125 C 5.839844 18.050781 5.769531 18.027344 5.699219 18 C 5.761719 17.457031 5.761719 17.457031 5.917969 17.230469 C 6.175781 17.046875 6.359375 17.066406 6.675781 17.070312 C 6.789062 17.070312 6.898438 17.074219 7.015625 17.074219 C 7.132812 17.074219 7.25 17.078125 7.367188 17.082031 C 7.488281 17.082031 7.605469 17.082031 7.726562 17.085938 C 8.015625 17.089844 8.308594 17.09375 8.601562 17.101562 C 8.601562 17 8.601562 16.902344 8.601562 16.800781 C 8.996094 16.800781 9.390625 16.800781 9.800781 16.800781 C 9.867188 16.667969 9.933594 16.535156 10 16.398438 C 10.097656 16.398438 10.199219 16.398438 10.300781 16.398438 C 10.25 15.953125 10.25 15.953125 10.199219 15.5 C 10.398438 15.5 10.597656 15.5 10.800781 15.5 C 10.800781 15.566406 10.800781 15.632812 10.800781 15.699219 C 10.734375 15.699219 10.667969 15.699219 10.601562 15.699219 C 10.601562 15.898438 10.601562 16.097656 10.601562 16.300781 C 10.699219 16.265625 10.796875 16.234375 10.898438 16.199219 C 11.046875 15.902344 11.035156 15.617188 11.054688 15.289062 C 11.066406 15.160156 11.074219 15.03125 11.082031 14.898438 C 11.085938 14.800781 11.09375 14.703125 11.101562 14.601562 C 11.230469 14.601562 11.363281 14.601562 11.5 14.601562 C 11.507812 14.839844 11.515625 15.078125 11.519531 15.320312 C 11.519531 15.386719 11.523438 15.453125 11.527344 15.523438 C 11.53125 15.972656 11.46875 16.242188 11.199219 16.601562 C 11.167969 16.632812 11.132812 16.664062 11.101562 16.699219 C 11.527344 16.734375 11.957031 16.765625 12.398438 16.800781 C 12.398438 16.898438 12.398438 16.996094 12.398438 17.101562 C 15.402344 17.101562 18.40625 17.101562 21.5 17.101562 C 21.53125 16.933594 21.566406 16.769531 21.601562 16.601562 C 21.675781 16.386719 21.75 16.179688 21.832031 15.96875 C 22.460938 14.222656 23.199219 11.660156 22.613281 9.828125 C 22.230469 9.15625 21.667969 8.832031 20.941406 8.628906 C 19.09375 8.140625 17.175781 8.085938 15.273438 8.070312 C 15.167969 8.066406 15.0625 8.066406 14.953125 8.0625 C 14.21875 8.0625 13.632812 8.140625 13.039062 8.605469 C 12.472656 9.308594 12.035156 10.050781 11.914062 10.949219 C 11.835938 11.402344 11.75 11.683594 11.398438 12 C 11.101562 12.179688 10.890625 12.222656 10.546875 12.21875 C 10.417969 12.21875 10.417969 12.21875 10.289062 12.21875 C 10.203125 12.214844 10.113281 12.214844 10.023438 12.210938 C 9.890625 12.210938 9.890625 12.210938 9.757812 12.210938 C 9.539062 12.207031 9.320312 12.203125 9.101562 12.199219 C 9.066406 12.132812 9.035156 12.066406 9 12 C 8.902344 11.96875 8.800781 11.933594 8.699219 11.898438 C 8.699219 9.953125 8.699219 8.007812 8.699219 6 C 8.566406 6.03125 8.4375 6.066406 8.300781 6.101562 C 8.265625 6.164062 8.234375 6.230469 8.199219 6.300781 C 8.035156 6.265625 7.871094 6.234375 7.699219 6.199219 C 7.699219 5.96875 7.699219 5.738281 7.699219 5.5 C 7.832031 5.433594 7.964844 5.367188 8.101562 5.300781 C 8.164062 5.367188 8.230469 5.433594 8.300781 5.5 C 8.433594 5.53125 8.5625 5.566406 8.699219 5.601562 C 8.699219 4.875 8.699219 4.148438 8.699219 3.398438 C 9.445312 3.027344 10.382812 3.089844 11.175781 3.300781 Z M 11.175781 3.300781 "/>
<path style=" stroke:none;fill-rule:nonzero;fill:rgb(3.137255%,21.960784%,45.09804%);fill-opacity:1;" d="M 62.300781 4.101562 C 64.015625 4.101562 65.730469 4.101562 67.5 4.101562 C 68.144531 4.941406 68.144531 4.941406 68.800781 5.800781 C 69.039062 6.109375 69.277344 6.417969 69.519531 6.726562 C 70.011719 7.359375 70.503906 7.992188 70.992188 8.628906 C 71.191406 8.890625 71.394531 9.144531 71.601562 9.398438 C 71.984375 9.273438 72.121094 9.042969 72.351562 8.730469 C 72.441406 8.613281 72.53125 8.492188 72.617188 8.375 C 72.664062 8.3125 72.710938 8.25 72.757812 8.1875 C 72.984375 7.890625 73.214844 7.597656 73.445312 7.304688 C 73.488281 7.25 73.535156 7.191406 73.582031 7.132812 C 73.816406 6.832031 74.050781 6.535156 74.285156 6.238281 C 74.332031 6.179688 74.378906 6.121094 74.429688 6.058594 C 74.519531 5.945312 74.605469 5.835938 74.695312 5.722656 C 75.113281 5.191406 75.5 4.648438 75.898438 4.101562 C 77.617188 4.101562 79.332031 4.101562 81.101562 4.101562 C 81.101562 9.347656 81.101562 14.59375 81.101562 20 C 79.21875 20 77.339844 20 75.398438 20 C 75.367188 17.625 75.335938 15.246094 75.300781 12.800781 C 74.539062 13.707031 74.539062 13.707031 73.804688 14.636719 C 73.722656 14.746094 73.640625 14.855469 73.558594 14.960938 C 73.496094 15.042969 73.496094 15.042969 73.433594 15.128906 C 73.195312 15.4375 72.953125 15.742188 72.710938 16.050781 C 72.644531 16.136719 72.644531 16.136719 72.574219 16.222656 C 72.320312 16.550781 72.058594 16.875 71.800781 17.199219 C 71.484375 17.0625 71.3125 16.921875 71.105469 16.648438 C 71.023438 16.542969 71.023438 16.542969 70.9375 16.433594 C 70.851562 16.316406 70.851562 16.316406 70.761719 16.199219 C 70.636719 16.035156 70.511719 15.875 70.386719 15.710938 C 70.324219 15.625 70.261719 15.542969 70.195312 15.457031 C 69.882812 15.046875 69.566406 14.640625 69.25 14.238281 C 69.136719 14.09375 69.027344 13.953125 68.914062 13.808594 C 68.867188 13.75 68.824219 13.6875 68.773438 13.628906 C 68.511719 13.289062 68.257812 12.941406 68 12.601562 C 67.96875 15.042969 67.933594 17.484375 67.898438 20 C 66.050781 20 64.203125 20 62.300781 20 C 62.300781 14.753906 62.300781 9.507812 62.300781 4.101562 Z M 62.300781 4.101562 "/>
<path style=" stroke:none;fill-rule:nonzero;fill:rgb(3.137255%,21.960784%,45.09804%);fill-opacity:1;" d="M 89.5 4.101562 C 91.445312 4.101562 93.394531 4.101562 95.398438 4.101562 C 95.710938 4.726562 96.011719 5.335938 96.277344 5.980469 C 96.308594 6.0625 96.34375 6.144531 96.378906 6.226562 C 96.453125 6.402344 96.523438 6.578125 96.597656 6.753906 C 96.796875 7.234375 96.996094 7.714844 97.199219 8.195312 C 97.238281 8.296875 97.28125 8.394531 97.324219 8.5 C 97.761719 9.546875 98.203125 10.59375 98.644531 11.636719 C 98.722656 11.824219 98.800781 12.007812 98.878906 12.195312 C 98.996094 12.476562 99.117188 12.757812 99.234375 13.039062 C 99.53125 13.734375 99.824219 14.433594 100.121094 15.136719 C 100.207031 15.339844 100.292969 15.542969 100.378906 15.75 C 100.503906 16.042969 100.628906 16.335938 100.75 16.628906 C 100.863281 16.898438 100.980469 17.167969 101.09375 17.4375 C 101.128906 17.519531 101.164062 17.605469 101.199219 17.691406 C 101.359375 18.070312 101.523438 18.453125 101.6875 18.832031 C 101.714844 18.898438 101.742188 18.960938 101.773438 19.03125 C 101.847656 19.203125 101.921875 19.375 102 19.546875 C 102.101562 19.800781 102.101562 19.800781 102.101562 20 C 100.1875 20 98.273438 20 96.300781 20 C 95.5 17.898438 95.5 17.898438 95.5 17.601562 C 93.519531 17.601562 91.539062 17.601562 89.5 17.601562 C 89.402344 17.898438 89.300781 18.195312 89.199219 18.5 C 89.003906 18.996094 88.804688 19.488281 88.601562 20 C 86.71875 20 84.839844 20 82.898438 20 C 82.980469 19.597656 83.070312 19.300781 83.226562 18.929688 C 83.277344 18.816406 83.324219 18.703125 83.375 18.582031 C 83.429688 18.457031 83.484375 18.328125 83.539062 18.199219 C 83.59375 18.0625 83.652344 17.929688 83.710938 17.792969 C 83.835938 17.492188 83.964844 17.191406 84.089844 16.890625 C 84.3125 16.375 84.53125 15.855469 84.75 15.335938 C 85.554688 13.425781 86.363281 11.519531 87.171875 9.613281 C 87.953125 7.777344 88.726562 5.9375 89.5 4.101562 Z M 89.5 4.101562 "/>
<path style=" stroke:none;fill-rule:nonzero;fill:rgb(100%,0.392157%,0.392157%);fill-opacity:1;" d="M 137.300781 4.101562 C 138.195312 4.070312 139.089844 4.050781 139.984375 4.039062 C 140.402344 4.03125 140.816406 4.023438 141.234375 4.007812 C 141.636719 3.996094 142.039062 3.988281 142.441406 3.984375 C 142.59375 3.984375 142.746094 3.980469 142.898438 3.972656 C 144.058594 3.925781 144.058594 3.925781 144.460938 4.21875 C 144.796875 4.539062 145.046875 4.910156 145.300781 5.300781 C 145.394531 5.425781 145.492188 5.546875 145.59375 5.671875 C 145.703125 5.816406 145.703125 5.816406 145.820312 5.96875 C 145.902344 6.078125 145.984375 6.183594 146.066406 6.292969 C 146.144531 6.394531 146.21875 6.496094 146.300781 6.601562 C 146.53125 6.902344 146.765625 7.199219 147 7.5 C 147.300781 7.367188 147.480469 7.238281 147.683594 6.980469 C 147.738281 6.914062 147.789062 6.851562 147.839844 6.785156 C 147.894531 6.714844 147.949219 6.644531 148.007812 6.574219 C 148.0625 6.503906 148.121094 6.433594 148.175781 6.359375 C 148.351562 6.140625 148.527344 5.921875 148.699219 5.699219 C 148.78125 5.597656 148.78125 5.597656 148.863281 5.492188 C 149.160156 5.113281 149.160156 5.113281 149.457031 4.734375 C 149.628906 4.511719 149.800781 4.300781 150 4.101562 C 150.257812 4.074219 150.257812 4.074219 150.59375 4.078125 C 150.714844 4.078125 150.839844 4.078125 150.96875 4.078125 C 151.105469 4.078125 151.238281 4.078125 151.375 4.082031 C 151.515625 4.082031 151.652344 4.082031 151.792969 4.082031 C 152.15625 4.082031 152.523438 4.085938 152.886719 4.085938 C 153.261719 4.089844 153.632812 4.089844 154.007812 4.089844 C 154.738281 4.09375 155.46875 4.097656 156.199219 4.101562 C 155.917969 4.527344 155.625 4.9375 155.304688 5.335938 C 155.257812 5.398438 155.210938 5.457031 155.164062 5.519531 C 154.742188 6.050781 154.3125 6.578125 153.882812 7.105469 C 153.488281 7.589844 153.101562 8.078125 152.71875 8.570312 C 152.304688 9.097656 151.882812 9.617188 151.457031 10.136719 C 151.066406 10.617188 150.679688 11.105469 150.300781 11.601562 C 150.4375 11.890625 150.589844 12.132812 150.789062 12.386719 C 150.875 12.496094 150.875 12.496094 150.964844 12.609375 C 151.027344 12.6875 151.085938 12.765625 151.148438 12.84375 C 151.277344 13.007812 151.40625 13.171875 151.535156 13.335938 C 151.628906 13.453125 151.628906 13.453125 151.726562 13.574219 C 151.953125 13.867188 152.175781 14.15625 152.398438 14.449219 C 152.796875 14.96875 153.199219 15.484375 153.601562 16 C 154.125 16.671875 154.644531 17.34375 155.164062 18.019531 C 155.324219 18.234375 155.488281 18.445312 155.648438 18.65625 C 155.769531 18.8125 155.890625 18.96875 156.011719 19.125 C 156.070312 19.199219 156.128906 19.277344 156.1875 19.351562 C 156.269531 19.457031 156.269531 19.457031 156.351562 19.5625 C 156.398438 19.625 156.445312 19.6875 156.496094 19.753906 C 156.601562 19.898438 156.601562 19.898438 156.601562 20 C 155.703125 20.027344 154.808594 20.050781 153.914062 20.0625 C 153.496094 20.070312 153.082031 20.078125 152.667969 20.089844 C 152.265625 20.105469 151.863281 20.109375 151.460938 20.113281 C 151.308594 20.117188 151.15625 20.121094 151.003906 20.125 C 149.839844 20.175781 149.839844 20.175781 149.4375 19.882812 C 149.101562 19.5625 148.851562 19.191406 148.601562 18.800781 C 148.507812 18.679688 148.410156 18.558594 148.316406 18.441406 C 148.242188 18.34375 148.167969 18.25 148.09375 18.148438 C 148.054688 18.097656 148.011719 18.042969 147.972656 17.992188 C 147.542969 17.429688 147.121094 16.867188 146.699219 16.300781 C 146.308594 16.429688 146.160156 16.679688 145.917969 17 C 145.820312 17.128906 145.722656 17.253906 145.625 17.382812 C 145.574219 17.449219 145.519531 17.515625 145.46875 17.585938 C 145.171875 17.964844 144.863281 18.335938 144.554688 18.707031 C 144.441406 18.847656 144.324219 18.988281 144.207031 19.128906 C 144.15625 19.1875 144.109375 19.246094 144.054688 19.308594 C 143.890625 19.503906 143.890625 19.503906 143.730469 19.757812 C 143.5 20 143.5 20 143.214844 20.058594 C 143.105469 20.058594 142.996094 20.058594 142.886719 20.058594 C 142.761719 20.058594 142.636719 20.058594 142.507812 20.058594 C 142.375 20.054688 142.238281 20.050781 142.105469 20.050781 C 141.964844 20.046875 141.828125 20.046875 141.6875 20.046875 C 141.324219 20.042969 140.960938 20.039062 140.597656 20.035156 C 140.226562 20.027344 139.855469 20.027344 139.484375 20.023438 C 138.757812 20.019531 138.027344 20.011719 137.300781 20 C 137.523438 19.660156 137.746094 19.332031 138.007812 19.019531 C 138.0625 18.949219 138.117188 18.882812 138.175781 18.8125 C 138.234375 18.742188 138.296875 18.671875 138.355469 18.601562 C 138.804688 18.058594 139.25 17.515625 139.679688 16.960938 C 140.144531 16.367188 140.621094 15.78125 141.101562 15.199219 C 141.480469 14.734375 141.859375 14.265625 142.238281 13.796875 C 142.394531 13.605469 142.554688 13.417969 142.710938 13.226562 C 142.804688 13.109375 142.898438 12.996094 142.992188 12.882812 C 143.117188 12.730469 143.117188 12.730469 143.246094 12.578125 C 143.429688 12.3125 143.429688 12.3125 143.351562 12.046875 C 143.175781 11.761719 142.984375 11.519531 142.761719 11.269531 C 142.359375 10.800781 141.980469 10.316406 141.613281 9.820312 C 141.167969 9.214844 140.707031 8.628906 140.238281 8.042969 C 139.746094 7.4375 139.273438 6.820312 138.800781 6.199219 C 138.625 5.96875 138.445312 5.738281 138.269531 5.507812 C 138.152344 5.351562 138.152344 5.351562 138.03125 5.199219 C 137.867188 4.984375 137.695312 4.777344 137.519531 4.574219 C 137.300781 4.300781 137.300781 4.300781 137.300781 4.101562 Z M 137.300781 4.101562 "/>
<path style=" stroke:none;fill-rule:nonzero;fill:rgb(3.529412%,21.960784%,45.490196%);fill-opacity:1;" d="M 103.800781 4.101562 C 105.238281 4.09375 106.675781 4.085938 108.15625 4.082031 C 108.605469 4.078125 109.058594 4.074219 109.523438 4.074219 C 110.082031 4.070312 110.082031 4.070312 110.34375 4.070312 C 110.523438 4.070312 110.703125 4.070312 110.886719 4.066406 C 112.933594 4.050781 114.90625 4.257812 116.5 5.699219 C 117.664062 7.023438 117.878906 8.246094 117.816406 9.953125 C 117.78125 10.453125 117.640625 10.863281 117.398438 11.300781 C 117.359375 11.378906 117.316406 11.453125 117.273438 11.535156 C 116.53125 12.742188 115.445312 13.578125 114.078125 13.960938 C 113.625 14.066406 113.164062 14.136719 112.699219 14.199219 C 112.535156 14.234375 112.371094 14.265625 112.199219 14.300781 C 111.308594 14.300781 110.417969 14.300781 109.5 14.300781 C 109.5 16.179688 109.5 18.0625 109.5 20 C 107.617188 20 105.738281 20 103.800781 20 C 103.800781 14.753906 103.800781 9.507812 103.800781 4.101562 Z M 103.800781 4.101562 "/>
<path style=" stroke:none;fill-rule:nonzero;fill:rgb(1.568628%,1.568628%,1.568628%);fill-opacity:1;" d="M 6.464844 17.175781 C 6.5625 17.171875 6.664062 17.171875 6.765625 17.171875 C 6.875 17.171875 6.984375 17.171875 7.097656 17.171875 C 7.210938 17.171875 7.328125 17.171875 7.445312 17.171875 C 7.765625 17.171875 8.089844 17.171875 8.410156 17.171875 C 8.757812 17.171875 9.101562 17.167969 9.449219 17.167969 C 10.128906 17.167969 10.804688 17.167969 11.484375 17.167969 C 12.035156 17.167969 12.589844 17.167969 13.140625 17.164062 C 14.703125 17.164062 16.265625 17.164062 17.828125 17.164062 C 17.957031 17.164062 17.957031 17.164062 18.085938 17.164062 C 18.210938 17.164062 18.210938 17.164062 18.339844 17.164062 C 19.707031 17.164062 21.078125 17.160156 22.445312 17.160156 C 23.847656 17.15625 25.253906 17.152344 26.65625 17.152344 C 27.445312 17.15625 28.234375 17.152344 29.023438 17.152344 C 29.695312 17.148438 30.367188 17.148438 31.035156 17.152344 C 31.378906 17.152344 31.722656 17.152344 32.066406 17.148438 C 32.4375 17.148438 32.808594 17.148438 33.179688 17.152344 C 33.289062 17.148438 33.398438 17.148438 33.507812 17.148438 C 34.234375 17.152344 34.234375 17.152344 34.570312 17.386719 C 34.699219 17.601562 34.699219 17.601562 34.703125 17.859375 C 34.574219 18.164062 34.460938 18.214844 34.164062 18.351562 C 33.757812 18.535156 33.578125 18.683594 33.398438 19.101562 C 33.339844 19.457031 33.3125 19.8125 33.289062 20.175781 C 33.273438 20.367188 33.257812 20.558594 33.242188 20.75 C 33.238281 20.832031 33.230469 20.917969 33.226562 21.003906 C 33.199219 21.199219 33.199219 21.199219 33.101562 21.300781 C 32.964844 21.308594 32.828125 21.3125 32.691406 21.3125 C 32.601562 21.3125 32.511719 21.3125 32.421875 21.3125 C 32.320312 21.3125 32.222656 21.3125 32.121094 21.3125 C 31.964844 21.3125 31.964844 21.3125 31.804688 21.3125 C 31.453125 21.3125 31.101562 21.3125 30.75 21.3125 C 30.5 21.3125 30.246094 21.3125 29.996094 21.3125 C 29.382812 21.3125 28.769531 21.3125 28.15625 21.3125 C 27.660156 21.3125 27.160156 21.3125 26.664062 21.3125 C 26.59375 21.3125 26.523438 21.3125 26.449219 21.3125 C 26.304688 21.3125 26.160156 21.3125 26.019531 21.3125 C 24.667969 21.3125 23.320312 21.3125 21.972656 21.3125 C 20.8125 21.3125 19.65625 21.3125 18.496094 21.3125 C 17.152344 21.3125 15.808594 21.3125 14.464844 21.3125 C 14.324219 21.3125 14.179688 21.3125 14.035156 21.3125 C 13.964844 21.3125 13.894531 21.3125 13.824219 21.3125 C 13.324219 21.3125 12.828125 21.3125 12.328125 21.3125 C 11.660156 21.3125 10.992188 21.3125 10.324219 21.3125 C 10.078125 21.3125 9.828125 21.3125 9.582031 21.3125 C 9.25 21.3125 8.914062 21.3125 8.578125 21.3125 C 8.480469 21.3125 8.382812 21.3125 8.28125 21.3125 C 8.191406 21.3125 8.101562 21.3125 8.011719 21.3125 C 7.894531 21.3125 7.894531 21.3125 7.777344 21.3125 C 7.601562 21.300781 7.601562 21.300781 7.5 21.199219 C 7.480469 21.066406 7.46875 20.929688 7.457031 20.796875 C 7.449219 20.714844 7.441406 20.628906 7.433594 20.546875 C 7.421875 20.371094 7.40625 20.195312 7.394531 20.023438 C 7.339844 19.441406 7.234375 19 6.863281 18.527344 C 6.648438 18.359375 6.433594 18.277344 6.179688 18.179688 C 6.089844 18.148438 6 18.113281 5.910156 18.078125 C 5.839844 18.050781 5.769531 18.027344 5.699219 18 C 5.777344 17.40625 5.839844 17.175781 6.464844 17.175781 Z M 6.464844 17.175781 "/>
<path style=" stroke:none;fill-rule:nonzero;fill:rgb(99.215686%,99.215686%,99.215686%);fill-opacity:1;" d="M 22 9 C 22.453125 9.4375 22.78125 9.832031 22.828125 10.472656 C 22.828125 10.621094 22.828125 10.769531 22.824219 10.917969 C 22.824219 11 22.824219 11.078125 22.824219 11.160156 C 22.785156 13.296875 22.210938 15.082031 21.5 17.101562 C 18.496094 17.101562 15.492188 17.101562 12.398438 17.101562 C 12.398438 17 12.398438 16.902344 12.398438 16.800781 C 11.9375 16.800781 11.476562 16.800781 11 16.800781 C 11.0625 16.714844 11.128906 16.632812 11.195312 16.542969 C 11.53125 15.96875 11.484375 15.25 11.5 14.601562 C 11.367188 14.601562 11.234375 14.601562 11.101562 14.601562 C 11.101562 14.699219 11.105469 14.796875 11.105469 14.894531 C 11.109375 15.085938 11.109375 15.085938 11.113281 15.28125 C 11.113281 15.40625 11.117188 15.535156 11.121094 15.664062 C 11.101562 16 11.101562 16 10.898438 16.300781 C 10.800781 16.300781 10.703125 16.300781 10.601562 16.300781 C 10.601562 16.101562 10.601562 15.902344 10.601562 15.699219 C 10.664062 15.699219 10.730469 15.699219 10.800781 15.699219 C 10.800781 15.238281 10.800781 14.777344 10.800781 14.300781 C 10.570312 14.265625 10.339844 14.234375 10.101562 14.199219 C 10.101562 13.574219 10.101562 12.945312 10.101562 12.300781 C 9.96875 12.265625 9.835938 12.234375 9.699219 12.199219 C 9.789062 12.195312 9.875 12.191406 9.96875 12.1875 C 10.140625 12.179688 10.140625 12.179688 10.320312 12.167969 C 10.433594 12.164062 10.546875 12.15625 10.667969 12.152344 C 11.019531 12.097656 11.214844 12.011719 11.5 11.800781 C 11.714844 11.480469 11.753906 11.28125 11.824219 10.90625 C 12.023438 10.003906 12.40625 8.941406 13.179688 8.367188 C 15.183594 7.289062 20.070312 7.726562 22 9 Z M 22 9 "/>
<path style=" stroke:none;fill-rule:nonzero;fill:rgb(93.333334%,10.980392%,18.431373%);fill-opacity:1;" d="M 45.5 4.101562 C 47.382812 4.101562 49.261719 4.101562 51.199219 4.101562 C 51.199219 9.347656 51.199219 14.59375 51.199219 20 C 49.320312 20 47.4375 20 45.5 20 C 45.5 14.753906 45.5 9.507812 45.5 4.101562 Z M 45.5 4.101562 "/>
<path style=" stroke:none;fill-rule:nonzero;fill:rgb(4.313726%,22.745098%,45.882353%);fill-opacity:1;" d="M 119.300781 11.601562 C 122.269531 11.601562 125.238281 11.601562 128.300781 11.601562 C 128.300781 12.984375 128.300781 14.371094 128.300781 15.800781 C 125.328125 15.800781 122.359375 15.800781 119.300781 15.800781 C 119.300781 14.414062 119.300781 13.027344 119.300781 11.601562 Z M 119.300781 11.601562 "/>
<path style=" stroke:none;fill-rule:nonzero;fill:rgb(1.960784%,1.960784%,1.960784%);fill-opacity:1;" d="M 31.957031 1.585938 C 32.371094 1.722656 32.472656 1.828125 32.699219 2.199219 C 32.738281 2.496094 32.753906 2.75 32.75 3.046875 C 32.75 3.128906 32.75 3.214844 32.75 3.300781 C 32.753906 3.578125 32.75 3.855469 32.75 4.132812 C 32.75 4.324219 32.75 4.515625 32.75 4.710938 C 32.75 5.113281 32.75 5.519531 32.746094 5.921875 C 32.742188 6.4375 32.742188 6.957031 32.746094 7.472656 C 32.746094 7.871094 32.746094 8.269531 32.742188 8.667969 C 32.742188 8.859375 32.742188 9.050781 32.742188 9.242188 C 32.746094 9.507812 32.742188 9.773438 32.742188 10.042969 C 32.742188 10.121094 32.742188 10.199219 32.742188 10.277344 C 32.734375 10.773438 32.671875 11.230469 32.300781 11.601562 C 31.589844 11.671875 31.589844 11.671875 31.261719 11.414062 C 30.664062 10.265625 30.785156 8.761719 30.800781 7.5 C 30.699219 7.5 30.601562 7.5 30.5 7.5 C 30.5 6.839844 30.5 6.179688 30.5 5.5 C 30.597656 5.5 30.699219 5.5 30.800781 5.5 C 30.796875 5.4375 30.796875 5.371094 30.796875 5.304688 C 30.789062 5.011719 30.785156 4.714844 30.78125 4.417969 C 30.777344 4.269531 30.777344 4.269531 30.773438 4.113281 C 30.765625 3.28125 30.839844 2.472656 31.324219 1.773438 C 31.601562 1.601562 31.601562 1.601562 31.957031 1.585938 Z M 31.957031 1.585938 "/>
<path style=" stroke:none;fill-rule:nonzero;fill:rgb(3.137255%,3.137255%,3.137255%);fill-opacity:1;" d="M 33.199219 2 C 33.429688 2.007812 33.429688 2.007812 33.699219 2.101562 C 34.21875 2.988281 34.117188 4.082031 34.117188 5.078125 C 34.117188 5.207031 34.117188 5.339844 34.117188 5.472656 C 34.117188 5.75 34.117188 6.027344 34.117188 6.300781 C 34.117188 6.652344 34.121094 7.003906 34.121094 7.355469 C 34.121094 7.691406 34.121094 8.03125 34.125 8.371094 C 34.125 8.496094 34.125 8.617188 34.125 8.746094 C 34.121094 10.90625 34.121094 10.90625 33.601562 11.5 C 33.417969 11.480469 33.417969 11.480469 33.199219 11.398438 C 32.871094 10.980469 32.855469 10.59375 32.859375 10.078125 C 32.859375 10 32.859375 9.917969 32.859375 9.835938 C 32.859375 9.566406 32.859375 9.300781 32.859375 9.03125 C 32.859375 8.84375 32.859375 8.660156 32.859375 8.472656 C 32.859375 8.082031 32.859375 7.691406 32.859375 7.300781 C 32.863281 6.800781 32.863281 6.300781 32.859375 5.800781 C 32.859375 5.414062 32.859375 5.03125 32.859375 4.644531 C 32.859375 4.460938 32.859375 4.277344 32.859375 4.09375 C 32.859375 3.835938 32.859375 3.578125 32.859375 3.320312 C 32.859375 3.242188 32.859375 3.167969 32.859375 3.089844 C 32.863281 2.640625 32.933594 2.359375 33.199219 2 Z M 33.199219 2 "/>
<path style=" stroke:none;fill-rule:nonzero;fill:rgb(98.823529%,98.823529%,99.215686%);fill-opacity:1;" d="M 109.5 7.398438 C 111.335938 7.398438 111.335938 7.398438 111.898438 7.800781 C 112.417969 8.355469 112.429688 8.738281 112.421875 9.480469 C 112.386719 10 112.234375 10.269531 111.863281 10.625 C 111.042969 11.171875 110.628906 11 109.5 11 C 109.5 9.8125 109.5 8.625 109.5 7.398438 Z M 109.5 7.398438 "/>
<path style=" stroke:none;fill-rule:nonzero;fill:rgb(95.686275%,96.470588%,97.647059%);fill-opacity:1;" d="M 92.398438 9.5 C 92.464844 9.5 92.53125 9.5 92.601562 9.5 C 92.828125 10.136719 93.054688 10.769531 93.285156 11.40625 C 93.359375 11.621094 93.4375 11.839844 93.515625 12.054688 C 93.628906 12.363281 93.738281 12.675781 93.851562 12.984375 C 93.886719 13.082031 93.921875 13.179688 93.957031 13.28125 C 93.988281 13.371094 94.019531 13.460938 94.054688 13.554688 C 94.082031 13.632812 94.109375 13.710938 94.140625 13.792969 C 94.199219 14 94.199219 14 94.199219 14.300781 C 93.046875 14.300781 91.890625 14.300781 90.699219 14.300781 C 90.894531 13.644531 91.097656 13.007812 91.335938 12.371094 C 91.382812 12.246094 91.382812 12.246094 91.429688 12.121094 C 91.523438 11.859375 91.621094 11.597656 91.71875 11.335938 C 91.785156 11.160156 91.851562 10.980469 91.917969 10.800781 C 92.078125 10.367188 92.238281 9.933594 92.398438 9.5 Z M 92.398438 9.5 "/>
<path style=" stroke:none;fill-rule:nonzero;fill:rgb(89.411765%,89.411765%,89.411765%);fill-opacity:1;" d="M 24.699219 5.601562 C 24.90625 5.644531 24.90625 5.644531 25.101562 5.699219 C 25.101562 5.765625 25.101562 5.832031 25.101562 5.898438 C 25 5.898438 24.902344 5.898438 24.800781 5.898438 C 25.027344 6.34375 25.3125 6.59375 25.699219 6.898438 C 25.800781 7 25.902344 7.097656 26 7.199219 C 26.027344 7.105469 26.058594 7.011719 26.085938 6.914062 C 26.199219 6.601562 26.199219 6.601562 26.398438 6.398438 C 26.710938 6.386719 26.710938 6.386719 27 6.398438 C 27.050781 6.648438 27.050781 6.648438 27.101562 6.898438 C 27.035156 6.933594 26.96875 6.964844 26.898438 7 C 26.898438 6.867188 26.898438 6.734375 26.898438 6.601562 C 26.574219 6.707031 26.574219 6.707031 26.300781 6.898438 C 26.34375 7.4375 26.488281 7.863281 26.707031 8.34375 C 26.75 8.4375 26.75 8.4375 26.792969 8.535156 C 26.859375 8.691406 26.929688 8.847656 27 9 C 27.066406 8.902344 27.132812 8.800781 27.199219 8.699219 C 27.363281 8.734375 27.53125 8.765625 27.699219 8.800781 C 27.75 9.046875 27.75 9.046875 27.800781 9.300781 C 27.667969 9.199219 27.535156 9.101562 27.398438 9 C 27.152344 9.53125 27.121094 10.074219 27.054688 10.648438 C 27.007812 10.949219 26.957031 11.144531 26.800781 11.398438 C 26.996094 11.398438 27.195312 11.398438 27.398438 11.398438 C 27.511719 11.773438 27.511719 11.773438 27.398438 12 C 27.335938 12 27.269531 12 27.199219 12 C 27.234375 11.867188 27.265625 11.734375 27.300781 11.601562 C 26.753906 11.773438 26.582031 12.019531 26.324219 12.515625 C 26.019531 13.308594 26.097656 14.261719 26.101562 15.101562 C 26.066406 15.101562 26.035156 15.101562 26 15.101562 C 25.976562 14.996094 25.957031 14.890625 25.933594 14.785156 C 25.671875 13.546875 25.671875 13.546875 25 12.5 C 24.71875 12.363281 24.519531 12.332031 24.199219 12.300781 C 24.199219 12.398438 24.199219 12.496094 24.199219 12.601562 C 24.265625 12.632812 24.332031 12.664062 24.398438 12.699219 C 24.234375 12.667969 24.070312 12.632812 23.898438 12.601562 C 23.898438 12.5 23.898438 12.402344 23.898438 12.300781 C 24.148438 12.132812 24.148438 12.132812 24.398438 12 C 24.351562 11.949219 24.351562 11.949219 24.300781 11.898438 C 24.296875 11.734375 24.296875 11.566406 24.300781 11.398438 C 24.433594 11.398438 24.5625 11.398438 24.699219 11.398438 C 24.699219 11.5 24.699219 11.597656 24.699219 11.699219 C 24.632812 11.667969 24.566406 11.632812 24.5 11.601562 C 24.757812 11.949219 24.898438 12.097656 25.300781 12.300781 C 25.367188 11.96875 25.433594 11.640625 25.5 11.300781 C 25.746094 11.25 25.746094 11.25 26 11.199219 C 26.050781 11.398438 26.050781 11.398438 26.101562 11.601562 C 26.035156 11.601562 25.96875 11.601562 25.898438 11.601562 C 25.898438 11.535156 25.898438 11.46875 25.898438 11.398438 C 25.800781 11.464844 25.703125 11.53125 25.601562 11.601562 C 25.632812 12.027344 25.664062 12.457031 25.699219 12.898438 C 25.765625 12.898438 25.832031 12.898438 25.898438 12.898438 C 26.335938 11.167969 26.335938 11.167969 25.898438 9.5 C 25.800781 9.433594 25.703125 9.367188 25.601562 9.300781 C 25.601562 9.398438 25.601562 9.496094 25.601562 9.601562 C 25.453125 9.550781 25.453125 9.550781 25.300781 9.5 C 25.332031 9.335938 25.367188 9.171875 25.398438 9 C 25.738281 9.054688 25.910156 9.105469 26.199219 9.300781 C 26.167969 9.234375 26.132812 9.164062 26.097656 9.09375 C 25.699219 8.300781 25.699219 8.300781 25.59375 8.074219 C 25.46875 7.84375 25.339844 7.800781 25.101562 7.699219 C 25.039062 7.664062 24.976562 7.625 24.914062 7.585938 C 24.632812 7.472656 24.398438 7.488281 24.101562 7.5 C 24.101562 7.597656 24.101562 7.699219 24.101562 7.800781 C 24.199219 7.800781 24.296875 7.800781 24.398438 7.800781 C 24.398438 7.898438 24.398438 7.996094 24.398438 8.101562 C 24.183594 8.050781 24 8 23.800781 7.898438 C 23.796875 7.734375 23.796875 7.566406 23.800781 7.398438 C 23.898438 7.300781 23.898438 7.300781 24.257812 7.292969 C 24.371094 7.296875 24.484375 7.296875 24.601562 7.300781 C 24.601562 7.234375 24.601562 7.167969 24.601562 7.101562 C 24.488281 7.058594 24.488281 7.058594 24.375 7.011719 C 24.101562 6.898438 24.101562 6.898438 23.90625 6.789062 C 23.621094 6.667969 23.40625 6.667969 23.101562 6.699219 C 22.902344 6.804688 22.902344 6.804688 22.800781 7 C 22.75 7.253906 22.75 7.253906 22.800781 7.5 C 22.898438 7.566406 22.996094 7.632812 23.101562 7.699219 C 23.101562 7.765625 23.101562 7.832031 23.101562 7.898438 C 22.613281 7.710938 22.613281 7.710938 22.5 7.601562 C 22.441406 7.191406 22.488281 7.019531 22.699219 6.65625 C 23 6.398438 23 6.398438 23.367188 6.382812 C 24.1875 6.5625 24.820312 6.984375 25.4375 7.539062 C 25.488281 7.582031 25.539062 7.625 25.589844 7.671875 C 26.195312 8.242188 26.574219 8.953125 26.609375 9.792969 C 26.617188 10.261719 26.609375 10.730469 26.601562 11.199219 C 26.878906 10.363281 26.816406 9.316406 26.429688 8.53125 C 26.191406 8.117188 25.917969 7.757812 25.601562 7.398438 C 25.601562 7.335938 25.601562 7.269531 25.601562 7.199219 C 25.347656 6.945312 25.082031 6.703125 24.820312 6.460938 C 24.601562 6.199219 24.601562 6.199219 24.5625 5.925781 C 24.601562 5.699219 24.601562 5.699219 24.699219 5.601562 Z M 24.699219 5.601562 "/>
<path style=" stroke:none;fill-rule:nonzero;fill:rgb(69.803923%,69.803923%,69.803923%);fill-opacity:1;" d="M 11.101562 14.601562 C 11.230469 14.601562 11.363281 14.601562 11.5 14.601562 C 11.507812 14.839844 11.515625 15.078125 11.519531 15.320312 C 11.519531 15.386719 11.523438 15.453125 11.527344 15.523438 C 11.53125 15.972656 11.46875 16.242188 11.199219 16.601562 C 11.152344 16.648438 11.152344 16.648438 11.101562 16.699219 C 11.527344 16.734375 11.957031 16.765625 12.398438 16.800781 C 12.398438 16.898438 12.398438 16.996094 12.398438 17.101562 C 15.402344 17.101562 18.40625 17.101562 21.5 17.101562 C 21.53125 17 21.566406 16.902344 21.601562 16.800781 C 21.601562 16.867188 21.601562 16.933594 21.601562 17 C 21.734375 17 21.734375 17 21.867188 17 C 22.996094 16.996094 24.125 16.996094 25.257812 16.992188 C 25.347656 16.992188 25.4375 16.992188 25.527344 16.992188 C 28.421875 16.992188 31.308594 17.011719 34.199219 17.101562 C 34.199219 17.132812 34.199219 17.164062 34.199219 17.199219 C 24.925781 17.199219 15.652344 17.199219 6.101562 17.199219 C 6.101562 17.167969 6.101562 17.132812 6.101562 17.101562 C 6.925781 17.101562 7.75 17.101562 8.601562 17.101562 C 8.601562 17 8.601562 16.902344 8.601562 16.800781 C 8.996094 16.800781 9.390625 16.800781 9.800781 16.800781 C 9.867188 16.667969 9.933594 16.535156 10 16.398438 C 10.097656 16.398438 10.199219 16.398438 10.300781 16.398438 C 10.25 15.953125 10.25 15.953125 10.199219 15.5 C 10.398438 15.5 10.597656 15.5 10.800781 15.5 C 10.800781 15.566406 10.800781 15.632812 10.800781 15.699219 C 10.734375 15.699219 10.667969 15.699219 10.601562 15.699219 C 10.601562 15.898438 10.601562 16.097656 10.601562 16.300781 C 10.699219 16.265625 10.796875 16.234375 10.898438 16.199219 C 11.046875 15.902344 11.035156 15.617188 11.054688 15.289062 C 11.066406 15.160156 11.074219 15.03125 11.082031 14.898438 C 11.089844 14.75 11.089844 14.75 11.101562 14.601562 Z M 11.101562 14.601562 "/>
<path style=" stroke:none;fill-rule:nonzero;fill:rgb(3.137255%,3.137255%,3.137255%);fill-opacity:1;" d="M 29.699219 3.5 C 29.949219 3.585938 30.070312 3.652344 30.210938 3.878906 C 30.308594 4.125 30.324219 4.304688 30.328125 4.570312 C 30.328125 4.660156 30.328125 4.753906 30.332031 4.847656 C 30.332031 4.949219 30.332031 5.046875 30.332031 5.148438 C 30.332031 5.253906 30.332031 5.355469 30.332031 5.460938 C 30.332031 5.675781 30.332031 5.894531 30.332031 6.109375 C 30.332031 6.441406 30.332031 6.773438 30.335938 7.105469 C 30.335938 7.316406 30.335938 7.527344 30.335938 7.738281 C 30.335938 7.835938 30.339844 7.933594 30.339844 8.035156 C 30.335938 8.539062 30.328125 8.890625 30 9.300781 C 29.761719 9.273438 29.761719 9.273438 29.5 9.199219 C 29.304688 8.90625 29.273438 8.667969 29.273438 8.320312 C 29.273438 8.226562 29.273438 8.128906 29.273438 8.03125 C 29.273438 7.929688 29.273438 7.828125 29.273438 7.726562 C 29.273438 7.621094 29.273438 7.515625 29.273438 7.40625 C 29.273438 7.183594 29.273438 6.964844 29.273438 6.742188 C 29.273438 6.402344 29.273438 6.0625 29.273438 5.722656 C 29.273438 5.507812 29.273438 5.289062 29.273438 5.074219 C 29.273438 4.972656 29.273438 4.871094 29.273438 4.765625 C 29.273438 4.671875 29.273438 4.578125 29.273438 4.480469 C 29.273438 4.398438 29.273438 4.3125 29.273438 4.226562 C 29.304688 3.976562 29.363281 3.8125 29.5 3.601562 C 29.566406 3.566406 29.632812 3.535156 29.699219 3.5 Z M 29.699219 3.5 "/>
<path style=" stroke:none;fill-rule:nonzero;fill:rgb(2.352941%,2.352941%,2.352941%);fill-opacity:1;" d="M 11.300781 5.699219 C 11.640625 5.90625 11.78125 6.070312 12 6.398438 C 12.0625 6.824219 12.046875 7.195312 11.875 7.585938 C 11.636719 7.878906 11.4375 8.074219 11.058594 8.144531 C 10.636719 8.144531 10.371094 8.140625 10 7.925781 C 9.644531 7.527344 9.554688 7.253906 9.566406 6.703125 C 9.621094 6.367188 9.785156 6.15625 10 5.898438 C 10.425781 5.617188 10.800781 5.632812 11.300781 5.699219 Z M 11.300781 5.699219 "/>
<path style=" stroke:none;fill-rule:nonzero;fill:rgb(1.176471%,1.176471%,1.176471%);fill-opacity:1;" d="M 24.800781 1.699219 C 25.460938 1.699219 26.121094 1.699219 26.800781 1.699219 C 26.800781 2.492188 26.800781 3.285156 26.800781 4.101562 C 26.140625 4.035156 25.480469 3.96875 24.800781 3.898438 C 24.800781 3.175781 24.800781 2.449219 24.800781 1.699219 Z M 24.800781 1.699219 "/>
<path style=" stroke:none;fill-rule:nonzero;fill:rgb(91.764706%,91.764706%,91.764706%);fill-opacity:1;" d="M 27.238281 12.804688 C 27.683594 12.964844 27.925781 13.25 28.136719 13.667969 C 28.265625 14.355469 28.171875 15.007812 27.828125 15.617188 C 27.457031 16.140625 27.023438 16.441406 26.398438 16.601562 C 26.050781 16.636719 25.707031 16.640625 25.355469 16.644531 C 25.265625 16.648438 25.171875 16.648438 25.078125 16.652344 C 24.523438 16.65625 24.175781 16.589844 23.734375 16.242188 C 23.355469 15.839844 23.28125 15.332031 23.257812 14.792969 C 23.273438 14.203125 23.476562 13.839844 23.882812 13.40625 C 24.210938 13.246094 24.4375 13.25 24.800781 13.300781 C 25.160156 13.507812 25.488281 13.789062 25.601562 14.199219 C 25.582031 14.511719 25.582031 14.511719 25.5 14.800781 C 25.09375 15.070312 24.882812 15.03125 24.398438 15 C 24.199219 14.800781 24.199219 14.800781 24.1875 14.488281 C 24.191406 14.394531 24.195312 14.296875 24.199219 14.199219 C 24.332031 14.167969 24.464844 14.132812 24.601562 14.101562 C 24.535156 14.164062 24.46875 14.230469 24.398438 14.300781 C 24.433594 14.558594 24.433594 14.558594 24.5 14.800781 C 24.933594 14.78125 24.933594 14.78125 25.300781 14.601562 C 25.277344 14.113281 25.277344 14.113281 25.039062 13.707031 C 24.703125 13.554688 24.464844 13.554688 24.101562 13.601562 C 23.863281 13.785156 23.734375 13.933594 23.601562 14.199219 C 23.585938 14.410156 23.578125 14.621094 23.574219 14.832031 C 23.574219 14.945312 23.570312 15.058594 23.566406 15.171875 C 23.601562 15.53125 23.683594 15.71875 23.898438 16 C 23.964844 16 24.03125 16 24.101562 16 C 24.132812 15.835938 24.164062 15.671875 24.199219 15.5 C 24.363281 15.5 24.53125 15.5 24.699219 15.5 C 24.699219 15.597656 24.699219 15.699219 24.699219 15.800781 C 24.632812 15.765625 24.566406 15.734375 24.5 15.699219 C 24.613281 16.074219 24.613281 16.074219 24.898438 16.300781 C 25.195312 16.339844 25.195312 16.339844 25.5 16.300781 C 25.695312 16.128906 25.695312 16.128906 25.800781 15.898438 C 25.800781 15.800781 25.800781 15.703125 25.800781 15.601562 C 25.734375 15.566406 25.667969 15.535156 25.601562 15.5 C 25.601562 15.433594 25.601562 15.367188 25.601562 15.300781 C 25.765625 15.332031 25.929688 15.367188 26.101562 15.398438 C 26.164062 15.582031 26.164062 15.582031 26.199219 15.800781 C 26.132812 15.898438 26.066406 15.996094 26 16.101562 C 26.484375 16.058594 26.683594 15.859375 27 15.5 C 27.066406 15.402344 27.132812 15.300781 27.199219 15.199219 C 27.113281 15.773438 27.113281 15.773438 27 16 C 27.558594 15.613281 27.761719 15.265625 27.898438 14.601562 C 27.953125 14.070312 27.875 13.753906 27.601562 13.300781 C 27.535156 13.234375 27.46875 13.167969 27.398438 13.101562 C 27.097656 13.117188 26.945312 13.160156 26.71875 13.363281 C 26.554688 13.691406 26.566406 13.9375 26.601562 14.300781 C 26.664062 14.398438 26.730469 14.496094 26.800781 14.601562 C 26.898438 14.566406 26.996094 14.535156 27.101562 14.5 C 27.101562 14.367188 27.101562 14.234375 27.101562 14.101562 C 27.199219 14.101562 27.296875 14.101562 27.398438 14.101562 C 27.324219 14.675781 27.324219 14.675781 27.101562 14.898438 C 26.855469 14.898438 26.855469 14.898438 26.601562 14.800781 C 26.332031 14.402344 26.230469 14.078125 26.300781 13.601562 C 26.75 12.792969 26.75 12.792969 27.238281 12.804688 Z M 27.238281 12.804688 "/>
<path style=" stroke:none;fill-rule:nonzero;fill:rgb(67.450982%,67.450982%,67.450982%);fill-opacity:1;" d="M 8.699219 3.398438 C 8.800781 3.398438 8.898438 3.398438 9 3.398438 C 9 6.203125 9 9.011719 9 11.898438 C 8.902344 11.898438 8.800781 11.898438 8.699219 11.898438 C 8.699219 9.953125 8.699219 8.007812 8.699219 6 C 8.566406 6.03125 8.4375 6.066406 8.300781 6.101562 C 8.265625 6.164062 8.234375 6.230469 8.199219 6.300781 C 8.035156 6.265625 7.871094 6.234375 7.699219 6.199219 C 7.699219 5.96875 7.699219 5.738281 7.699219 5.5 C 7.832031 5.433594 7.964844 5.367188 8.101562 5.300781 C 8.164062 5.367188 8.230469 5.433594 8.300781 5.5 C 8.433594 5.53125 8.5625 5.566406 8.699219 5.601562 C 8.699219 4.875 8.699219 4.148438 8.699219 3.398438 Z M 8.699219 3.398438 "/>
<path style=" stroke:none;fill-rule:nonzero;fill:rgb(81.960785%,81.960785%,81.960785%);fill-opacity:1;" d="M 18.5 5.699219 C 18.710938 5.738281 18.710938 5.738281 18.898438 5.800781 C 18.800781 5.867188 18.703125 5.933594 18.601562 6 C 18.601562 6.066406 18.601562 6.132812 18.601562 6.199219 C 19.226562 6.21875 19.742188 6.160156 20.34375 6 C 21.472656 5.726562 22.789062 5.53125 23.855469 6.09375 C 24 6.199219 24 6.199219 24.101562 6.398438 C 24.035156 6.378906 23.972656 6.355469 23.910156 6.335938 C 23.355469 6.152344 22.878906 6 22.300781 6.101562 C 22.136719 6.269531 22.023438 6.4375 21.910156 6.648438 C 21.875 6.699219 21.835938 6.746094 21.800781 6.800781 C 21.699219 6.800781 21.601562 6.800781 21.5 6.800781 C 21.5 6.734375 21.5 6.667969 21.5 6.601562 C 21.597656 6.601562 21.699219 6.601562 21.800781 6.601562 C 21.832031 6.433594 21.867188 6.269531 21.898438 6.101562 C 21.769531 6.160156 21.640625 6.226562 21.511719 6.289062 C 21.441406 6.324219 21.367188 6.355469 21.292969 6.394531 C 21.085938 6.496094 21.085938 6.496094 20.898438 6.699219 C 20.835938 6.957031 20.835938 6.957031 20.800781 7.199219 C 20.765625 7.199219 20.734375 7.199219 20.699219 7.199219 C 20.667969 6.929688 20.667969 6.929688 20.699219 6.601562 C 20.949219 6.3125 20.949219 6.3125 21.199219 6.101562 C 21.054688 6.15625 20.90625 6.214844 20.761719 6.273438 C 20.679688 6.308594 20.601562 6.339844 20.515625 6.375 C 20.265625 6.519531 20.203125 6.632812 20.101562 6.898438 C 20.164062 6.898438 20.230469 6.898438 20.300781 6.898438 C 20.265625 7.03125 20.234375 7.164062 20.199219 7.300781 C 20.101562 7.265625 20.003906 7.234375 19.898438 7.199219 C 19.886719 6.625 19.886719 6.625 20 6.398438 C 19.824219 6.460938 19.644531 6.523438 19.46875 6.585938 C 19.371094 6.621094 19.273438 6.65625 19.171875 6.691406 C 18.882812 6.796875 18.882812 6.796875 18.601562 7 C 18.601562 7.097656 18.601562 7.199219 18.601562 7.300781 C 18.433594 7.300781 18.269531 7.300781 18.101562 7.300781 C 18.132812 7.136719 18.164062 6.96875 18.199219 6.800781 C 18.054688 6.84375 17.914062 6.890625 17.769531 6.9375 C 17.6875 6.964844 17.609375 6.988281 17.527344 7.015625 C 17.277344 7.097656 17.277344 7.097656 17 7.300781 C 17.058594 7.011719 17.085938 6.914062 17.300781 6.699219 C 17.433594 6.699219 17.5625 6.699219 17.699219 6.699219 C 17.699219 6.632812 17.699219 6.566406 17.699219 6.5 C 17.621094 6.472656 17.539062 6.445312 17.457031 6.417969 C 17.371094 6.378906 17.289062 6.339844 17.199219 6.300781 C 17.167969 6.199219 17.132812 6.101562 17.101562 6 C 17.164062 6.027344 17.230469 6.058594 17.300781 6.085938 C 17.664062 6.222656 18.023438 6.3125 18.398438 6.398438 C 18.378906 6.320312 18.359375 6.242188 18.335938 6.164062 C 18.324219 6.074219 18.3125 5.988281 18.300781 5.898438 C 18.367188 5.835938 18.433594 5.769531 18.5 5.699219 Z M 18.5 5.699219 "/>
<path style=" stroke:none;fill-rule:nonzero;fill:rgb(24.705882%,24.705882%,24.705882%);fill-opacity:1;" d="M 10.898438 9.300781 C 11.175781 9.480469 11.351562 9.605469 11.5 9.898438 C 11.539062 10.316406 11.546875 10.53125 11.3125 10.886719 C 11.039062 11.160156 10.957031 11.195312 10.570312 11.230469 C 10.140625 11.195312 9.996094 11.097656 9.699219 10.800781 C 9.546875 10.488281 9.570312 10.242188 9.601562 9.898438 C 9.96875 9.335938 10.230469 9.242188 10.898438 9.300781 Z M 10.898438 9.300781 "/>
<path style=" stroke:none;fill-rule:nonzero;fill:rgb(87.450981%,87.450981%,87.450981%);fill-opacity:1;" d="M 23.367188 6.382812 C 24.1875 6.5625 24.820312 6.984375 25.4375 7.539062 C 25.488281 7.582031 25.539062 7.625 25.589844 7.671875 C 26.253906 8.296875 26.570312 9.035156 26.617188 9.941406 C 26.628906 10.542969 26.617188 11.03125 26.398438 11.601562 C 26.367188 11.601562 26.335938 11.601562 26.300781 11.601562 C 26.292969 11.460938 26.292969 11.460938 26.289062 11.320312 C 26.246094 10.367188 26.246094 10.367188 25.898438 9.5 C 25.800781 9.433594 25.703125 9.367188 25.601562 9.300781 C 25.601562 9.398438 25.601562 9.496094 25.601562 9.601562 C 25.5 9.566406 25.402344 9.535156 25.300781 9.5 C 25.332031 9.335938 25.367188 9.171875 25.398438 9 C 25.738281 9.054688 25.910156 9.105469 26.199219 9.300781 C 26.167969 9.234375 26.132812 9.164062 26.097656 9.09375 C 25.699219 8.300781 25.699219 8.300781 25.59375 8.074219 C 25.46875 7.84375 25.339844 7.800781 25.101562 7.699219 C 25.039062 7.664062 24.976562 7.625 24.914062 7.585938 C 24.632812 7.472656 24.398438 7.488281 24.101562 7.5 C 24.101562 7.597656 24.101562 7.699219 24.101562 7.800781 C 24.199219 7.800781 24.296875 7.800781 24.398438 7.800781 C 24.398438 7.898438 24.398438 7.996094 24.398438 8.101562 C 24.183594 8.050781 24 8 23.800781 7.898438 C 23.796875 7.734375 23.796875 7.566406 23.800781 7.398438 C 23.898438 7.300781 23.898438 7.300781 24.257812 7.292969 C 24.371094 7.296875 24.484375 7.296875 24.601562 7.300781 C 24.601562 7.234375 24.601562 7.167969 24.601562 7.101562 C 24.527344 7.070312 24.453125 7.042969 24.375 7.011719 C 24.101562 6.898438 24.101562 6.898438 23.90625 6.789062 C 23.621094 6.667969 23.40625 6.667969 23.101562 6.699219 C 22.902344 6.804688 22.902344 6.804688 22.800781 7 C 22.75 7.253906 22.75 7.253906 22.800781 7.5 C 22.898438 7.566406 22.996094 7.632812 23.101562 7.699219 C 23.101562 7.765625 23.101562 7.832031 23.101562 7.898438 C 22.613281 7.710938 22.613281 7.710938 22.5 7.601562 C 22.441406 7.191406 22.488281 7.019531 22.699219 6.65625 C 23 6.398438 23 6.398438 23.367188 6.382812 Z M 23.367188 6.382812 "/>
<path style=" stroke:none;fill-rule:nonzero;fill:rgb(9.803922%,9.803922%,9.803922%);fill-opacity:1;" d="M 28.898438 10.800781 C 29.1875 10.894531 29.46875 10.984375 29.742188 11.105469 C 30.058594 11.222656 30.367188 11.253906 30.699219 11.300781 C 30.800781 11.398438 30.800781 11.398438 30.820312 11.742188 C 30.800781 12.101562 30.800781 12.101562 30.601562 12.300781 C 30.238281 12.3125 30.238281 12.3125 29.898438 12.300781 C 29.867188 12.199219 29.835938 12.101562 29.800781 12 C 29.800781 12.097656 29.800781 12.199219 29.800781 12.300781 C 29.800781 12.398438 29.800781 12.496094 29.800781 12.601562 C 29.625 12.738281 29.625 12.738281 29.398438 12.867188 C 29.289062 12.933594 29.289062 12.933594 29.175781 13 C 29.089844 13.050781 29.089844 13.050781 29 13.101562 C 28.914062 12.332031 28.886719 11.574219 28.898438 10.800781 Z M 28.898438 10.800781 "/>
<path style=" stroke:none;fill-rule:nonzero;fill:rgb(9.411765%,9.411765%,9.411765%);fill-opacity:1;" d="M 11.101562 14.601562 C 11.230469 14.601562 11.363281 14.601562 11.5 14.601562 C 11.507812 14.839844 11.515625 15.078125 11.519531 15.320312 C 11.519531 15.386719 11.523438 15.453125 11.527344 15.523438 C 11.53125 15.972656 11.46875 16.242188 11.199219 16.601562 C 11.167969 16.632812 11.132812 16.664062 11.101562 16.699219 C 11.527344 16.734375 11.957031 16.765625 12.398438 16.800781 C 12.398438 16.867188 12.398438 16.933594 12.398438 17 C 11.144531 17 9.890625 17 8.601562 17 C 8.601562 16.933594 8.601562 16.867188 8.601562 16.800781 C 8.996094 16.800781 9.390625 16.800781 9.800781 16.800781 C 9.867188 16.667969 9.933594 16.535156 10 16.398438 C 10.097656 16.398438 10.199219 16.398438 10.300781 16.398438 C 10.265625 16.101562 10.234375 15.804688 10.199219 15.5 C 10.398438 15.5 10.597656 15.5 10.800781 15.5 C 10.800781 15.566406 10.800781 15.632812 10.800781 15.699219 C 10.734375 15.699219 10.667969 15.699219 10.601562 15.699219 C 10.601562 15.898438 10.601562 16.097656 10.601562 16.300781 C 10.699219 16.265625 10.796875 16.234375 10.898438 16.199219 C 11.046875 15.902344 11.035156 15.617188 11.054688 15.289062 C 11.066406 15.160156 11.074219 15.03125 11.082031 14.898438 C 11.089844 14.75 11.089844 14.75 11.101562 14.601562 Z M 11.101562 14.601562 "/>
<path style=" stroke:none;fill-rule:nonzero;fill:rgb(90.588236%,90.588236%,90.588236%);fill-opacity:1;" d="M 25.601562 11.199219 C 25.765625 11.230469 25.933594 11.261719 26.101562 11.300781 C 26.101562 11.398438 26.101562 11.496094 26.101562 11.601562 C 26.035156 11.601562 25.96875 11.601562 25.898438 11.601562 C 25.898438 11.535156 25.898438 11.46875 25.898438 11.398438 C 25.800781 11.464844 25.703125 11.53125 25.601562 11.601562 C 25.632812 12.027344 25.664062 12.457031 25.699219 12.898438 C 25.765625 12.898438 25.832031 12.898438 25.898438 12.898438 C 25.925781 12.773438 25.953125 12.648438 25.980469 12.519531 C 26.0625 12.195312 26.128906 12.011719 26.398438 11.800781 C 26.433594 11.734375 26.464844 11.667969 26.5 11.601562 C 26.597656 11.601562 26.699219 11.601562 26.800781 11.601562 C 26.699219 11.941406 26.597656 12.203125 26.398438 12.5 C 26.113281 12.988281 26.132812 13.492188 26.125 14.042969 C 26.121094 14.195312 26.121094 14.195312 26.117188 14.351562 C 26.109375 14.601562 26.105469 14.851562 26.101562 15.101562 C 26.066406 15.101562 26.035156 15.101562 26 15.101562 C 25.976562 14.996094 25.957031 14.890625 25.933594 14.785156 C 25.671875 13.546875 25.671875 13.546875 25 12.5 C 24.71875 12.363281 24.519531 12.332031 24.199219 12.300781 C 24.199219 12.398438 24.199219 12.496094 24.199219 12.601562 C 24.265625 12.632812 24.332031 12.664062 24.398438 12.699219 C 24.234375 12.667969 24.070312 12.632812 23.898438 12.601562 C 23.898438 12.5 23.898438 12.402344 23.898438 12.300781 C 24.148438 12.132812 24.148438 12.132812 24.398438 12 C 24.367188 11.96875 24.335938 11.933594 24.300781 11.898438 C 24.296875 11.734375 24.296875 11.566406 24.300781 11.398438 C 24.433594 11.398438 24.5625 11.398438 24.699219 11.398438 C 24.699219 11.5 24.699219 11.597656 24.699219 11.699219 C 24.632812 11.667969 24.566406 11.632812 24.5 11.601562 C 24.742188 11.929688 24.925781 12.132812 25.300781 12.300781 C 25.3125 12.230469 25.328125 12.15625 25.339844 12.085938 C 25.359375 11.992188 25.375 11.902344 25.394531 11.804688 C 25.410156 11.714844 25.429688 11.621094 25.445312 11.527344 C 25.5 11.300781 25.5 11.300781 25.601562 11.199219 Z M 25.601562 11.199219 "/>
<path style=" stroke:none;fill-rule:nonzero;fill:rgb(5.490196%,5.490196%,5.490196%);fill-opacity:1;" d="M 19.898438 2.699219 C 20.195312 2.699219 20.492188 2.699219 20.800781 2.699219 C 20.800781 3.261719 20.800781 3.820312 20.800781 4.398438 C 20.503906 4.433594 20.207031 4.464844 19.898438 4.5 C 19.898438 3.90625 19.898438 3.3125 19.898438 2.699219 Z M 19.898438 2.699219 "/>
<path style=" stroke:none;fill-rule:nonzero;fill:rgb(8.627451%,8.627451%,8.627451%);fill-opacity:1;" d="M 26.199219 13.800781 C 26.367188 14.132812 26.535156 14.464844 26.699219 14.800781 C 26.863281 14.800781 27.03125 14.800781 27.199219 14.800781 C 27.292969 15.0625 27.292969 15.0625 27.300781 15.398438 C 27.023438 15.734375 26.660156 15.960938 26.300781 16.199219 C 26.082031 16.164062 26.082031 16.164062 25.898438 16.101562 C 25.964844 16 26.03125 15.902344 26.101562 15.800781 C 26.089844 15.589844 26.089844 15.589844 26 15.398438 C 25.902344 15.335938 25.800781 15.269531 25.699219 15.199219 C 25.765625 15.199219 25.832031 15.199219 25.898438 15.199219 C 25.898438 15.003906 25.898438 14.804688 25.898438 14.601562 C 25.933594 14.601562 25.964844 14.601562 26 14.601562 C 26.066406 14.335938 26.132812 14.070312 26.199219 13.800781 Z M 26.199219 13.800781 "/>
<path style=" stroke:none;fill-rule:nonzero;fill:rgb(90.980393%,90.980393%,90.980393%);fill-opacity:1;" d="M 18.5 5.699219 C 18.710938 5.738281 18.710938 5.738281 18.898438 5.800781 C 18.800781 5.867188 18.703125 5.933594 18.601562 6 C 18.601562 6.066406 18.601562 6.132812 18.601562 6.199219 C 19.027344 6.234375 19.457031 6.265625 19.898438 6.300781 C 19.59375 6.605469 19.480469 6.660156 19.082031 6.769531 C 18.945312 6.804688 18.945312 6.804688 18.808594 6.84375 C 18.738281 6.863281 18.671875 6.882812 18.601562 6.898438 C 18.601562 7.03125 18.601562 7.164062 18.601562 7.300781 C 18.433594 7.300781 18.269531 7.300781 18.101562 7.300781 C 18.132812 7.136719 18.164062 6.96875 18.199219 6.800781 C 18.054688 6.84375 17.914062 6.890625 17.769531 6.9375 C 17.6875 6.964844 17.609375 6.988281 17.527344 7.015625 C 17.277344 7.097656 17.277344 7.097656 17 7.300781 C 17.058594 7.011719 17.085938 6.914062 17.300781 6.699219 C 17.433594 6.699219 17.5625 6.699219 17.699219 6.699219 C 17.699219 6.632812 17.699219 6.566406 17.699219 6.5 C 17.621094 6.472656 17.539062 6.445312 17.457031 6.417969 C 17.371094 6.378906 17.289062 6.339844 17.199219 6.300781 C 17.167969 6.199219 17.132812 6.101562 17.101562 6 C 17.164062 6.027344 17.230469 6.058594 17.300781 6.085938 C 17.664062 6.222656 18.023438 6.3125 18.398438 6.398438 C 18.378906 6.320312 18.359375 6.242188 18.335938 6.164062 C 18.324219 6.074219 18.3125 5.988281 18.300781 5.898438 C 18.367188 5.835938 18.433594 5.769531 18.5 5.699219 Z M 18.5 5.699219 "/>
<path style=" stroke:none;fill-rule:nonzero;fill:rgb(5.882353%,5.882353%,5.882353%);fill-opacity:1;" d="M 10.199219 14.398438 C 10.398438 14.398438 10.597656 14.398438 10.800781 14.398438 C 10.800781 14.730469 10.800781 15.058594 10.800781 15.398438 C 10.570312 15.417969 10.34375 15.433594 10.117188 15.449219 C 9.863281 15.484375 9.863281 15.484375 9.699219 15.800781 C 9.457031 15.761719 9.457031 15.761719 9.199219 15.699219 C 9.050781 15.398438 9.082031 15.132812 9.101562 14.800781 C 9.164062 14.734375 9.230469 14.667969 9.300781 14.601562 C 9.554688 14.625 9.554688 14.625 9.800781 14.699219 C 9.832031 14.765625 9.867188 14.832031 9.898438 14.898438 C 10 14.933594 10.097656 14.964844 10.199219 15 C 10.199219 14.800781 10.199219 14.605469 10.199219 14.398438 Z M 10.199219 14.398438 "/>
<path style=" stroke:none;fill-rule:nonzero;fill:rgb(6.666667%,6.666667%,6.666667%);fill-opacity:1;" d="M 8.699219 3.398438 C 8.734375 3.398438 8.765625 3.398438 8.800781 3.398438 C 8.800781 6.203125 8.800781 9.011719 8.800781 11.898438 C 8.765625 11.898438 8.734375 11.898438 8.699219 11.898438 C 8.699219 9.953125 8.699219 8.007812 8.699219 6 C 8.566406 6.03125 8.4375 6.066406 8.300781 6.101562 C 8.265625 6.164062 8.234375 6.230469 8.199219 6.300781 C 8.035156 6.265625 7.871094 6.234375 7.699219 6.199219 C 7.699219 5.96875 7.699219 5.738281 7.699219 5.5 C 7.832031 5.433594 7.964844 5.367188 8.101562 5.300781 C 8.164062 5.367188 8.230469 5.433594 8.300781 5.5 C 8.433594 5.53125 8.5625 5.566406 8.699219 5.601562 C 8.699219 4.875 8.699219 4.148438 8.699219 3.398438 Z M 8.699219 3.398438 "/>
<path style=" stroke:none;fill-rule:nonzero;fill:rgb(5.098039%,5.098039%,5.098039%);fill-opacity:1;" d="M 25.5 0.5 C 25.699219 0.5 25.894531 0.5 26.101562 0.5 C 26.066406 0.730469 26.035156 0.960938 26 1.199219 C 26.328125 1.199219 26.660156 1.199219 27 1.199219 C 27 1.332031 27 1.464844 27 1.601562 C 26.207031 1.601562 25.414062 1.601562 24.601562 1.601562 C 24.601562 1.46875 24.601562 1.335938 24.601562 1.199219 C 24.929688 1.167969 25.261719 1.132812 25.601562 1.101562 C 25.566406 1.066406 25.535156 1.035156 25.5 1 C 25.496094 0.832031 25.496094 0.667969 25.5 0.5 Z M 25.5 0.5 "/>
<path style=" stroke:none;fill-rule:nonzero;fill:rgb(90.196079%,90.196079%,90.196079%);fill-opacity:1;" d="M 25.898438 8.300781 C 25.964844 8.300781 26.03125 8.300781 26.101562 8.300781 C 26.683594 9.078125 26.671875 10.070312 26.601562 11 C 26.5 11.34375 26.5 11.34375 26.398438 11.601562 C 26.367188 11.601562 26.335938 11.601562 26.300781 11.601562 C 26.296875 11.507812 26.292969 11.414062 26.289062 11.320312 C 26.246094 10.367188 26.246094 10.367188 25.898438 9.5 C 25.800781 9.433594 25.703125 9.367188 25.601562 9.300781 C 25.601562 9.398438 25.601562 9.496094 25.601562 9.601562 C 25.5 9.566406 25.402344 9.535156 25.300781 9.5 C 25.332031 9.335938 25.367188 9.171875 25.398438 9 C 25.738281 9.054688 25.910156 9.105469 26.199219 9.300781 C 26.125 9.136719 26.125 9.136719 26.050781 8.96875 C 25.898438 8.601562 25.898438 8.601562 25.898438 8.300781 Z M 25.898438 8.300781 "/>
<path style=" stroke:none;fill-rule:nonzero;fill:rgb(2.352941%,2.352941%,2.352941%);fill-opacity:1;" d="M 10.101562 12.398438 C 10.332031 12.398438 10.5625 12.398438 10.800781 12.398438 C 10.800781 12.992188 10.800781 13.589844 10.800781 14.199219 C 10.570312 14.199219 10.339844 14.199219 10.101562 14.199219 C 10.101562 13.605469 10.101562 13.011719 10.101562 12.398438 Z M 10.101562 12.398438 "/>
<path style=" stroke:none;fill-rule:nonzero;fill:rgb(80.000001%,80.000001%,80.000001%);fill-opacity:1;" d="M 27.238281 12.804688 C 27.683594 12.964844 27.925781 13.25 28.136719 13.667969 C 28.253906 14.289062 28.183594 14.933594 27.898438 15.5 C 27.835938 15.433594 27.769531 15.367188 27.699219 15.300781 C 27.734375 15.199219 27.765625 15.097656 27.800781 14.992188 C 27.941406 14.484375 27.96875 14.066406 27.761719 13.570312 C 27.613281 13.296875 27.613281 13.296875 27.398438 13.101562 C 27.097656 13.117188 26.945312 13.160156 26.71875 13.363281 C 26.554688 13.691406 26.566406 13.9375 26.601562 14.300781 C 26.699219 14.449219 26.699219 14.449219 26.800781 14.601562 C 26.898438 14.566406 26.996094 14.535156 27.101562 14.5 C 27.101562 14.367188 27.101562 14.234375 27.101562 14.101562 C 27.199219 14.101562 27.296875 14.101562 27.398438 14.101562 C 27.324219 14.675781 27.324219 14.675781 27.101562 14.898438 C 26.855469 14.898438 26.855469 14.898438 26.601562 14.800781 C 26.332031 14.402344 26.230469 14.078125 26.300781 13.601562 C 26.75 12.792969 26.75 12.792969 27.238281 12.804688 Z M 27.238281 12.804688 "/>
<path style=" stroke:none;fill-rule:nonzero;fill:rgb(83.529413%,83.529413%,83.529413%);fill-opacity:1;" d="M 15.300781 5.898438 C 15.398438 5.933594 15.496094 5.964844 15.601562 6 C 15.667969 6.207031 15.667969 6.207031 15.699219 6.398438 C 15.769531 6.316406 15.835938 6.230469 15.90625 6.144531 C 16.199219 5.898438 16.199219 5.898438 16.582031 5.917969 C 16.738281 5.957031 16.738281 5.957031 16.898438 6 C 16.867188 6.164062 16.835938 6.328125 16.800781 6.5 C 16.699219 6.5 16.601562 6.5 16.5 6.5 C 16.5 6.433594 16.5 6.367188 16.5 6.300781 C 16.566406 6.300781 16.632812 6.300781 16.699219 6.300781 C 16.699219 6.234375 16.699219 6.167969 16.699219 6.101562 C 16.335938 6.226562 16.222656 6.265625 16 6.601562 C 16.066406 6.601562 16.132812 6.601562 16.199219 6.601562 C 16.199219 6.765625 16.199219 6.929688 16.199219 7.101562 C 16.300781 7.132812 16.398438 7.164062 16.5 7.199219 C 16.5 7.101562 16.5 7.003906 16.5 6.898438 C 16.632812 6.933594 16.765625 6.964844 16.898438 7 C 16.867188 7.132812 16.835938 7.265625 16.800781 7.398438 C 16.25 7.4375 16.25 7.4375 16.011719 7.261719 C 15.898438 7.101562 15.898438 7.101562 15.898438 6.898438 C 15.835938 6.898438 15.769531 6.898438 15.699219 6.898438 C 15.632812 7.066406 15.566406 7.230469 15.5 7.398438 C 15.367188 7.367188 15.234375 7.335938 15.101562 7.300781 C 15.101562 7.199219 15.101562 7.101562 15.101562 7 C 15.265625 6.933594 15.429688 6.867188 15.601562 6.800781 C 15.617188 6.496094 15.617188 6.496094 15.5 6.199219 C 15.402344 6.234375 15.300781 6.265625 15.199219 6.300781 C 15.234375 6.167969 15.265625 6.035156 15.300781 5.898438 Z M 15.300781 5.898438 "/>
<path style=" stroke:none;fill-rule:nonzero;fill:rgb(12.156863%,12.156863%,12.156863%);fill-opacity:1;" d="M 25 7 C 25.230469 7.066406 25.460938 7.132812 25.699219 7.199219 C 25.710938 7.257812 25.722656 7.320312 25.734375 7.378906 C 25.808594 7.628906 25.902344 7.734375 26.082031 7.917969 C 26.824219 8.773438 26.878906 9.609375 26.824219 10.707031 C 26.789062 10.984375 26.703125 11.238281 26.601562 11.5 C 26.566406 11.5 26.535156 11.5 26.5 11.5 C 26.503906 11.375 26.507812 11.25 26.511719 11.121094 C 26.535156 9.832031 26.519531 8.792969 25.601562 7.800781 C 25.375 7.589844 25.144531 7.390625 24.898438 7.199219 C 24.933594 7.132812 24.964844 7.066406 25 7 Z M 25 7 "/>
<path style=" stroke:none;fill-rule:nonzero;fill:rgb(10.980392%,10.980392%,10.980392%);fill-opacity:1;" d="M 15.101562 6 C 15.484375 6.144531 15.613281 6.34375 15.800781 6.699219 C 15.675781 6.851562 15.675781 6.851562 15.5 7 C 15.367188 7 15.234375 7 15.101562 7 C 15.066406 7.097656 15.035156 7.199219 15 7.300781 C 14.898438 7.183594 14.898438 7.183594 14.792969 7.0625 C 14.449219 6.753906 14.242188 6.695312 13.800781 6.601562 C 13.800781 6.46875 13.800781 6.335938 13.800781 6.199219 C 13.867188 6.167969 13.933594 6.132812 14 6.101562 C 14 6.230469 14 6.363281 14 6.5 C 14.105469 6.46875 14.214844 6.4375 14.324219 6.40625 C 14.582031 6.332031 14.839844 6.261719 15.101562 6.199219 C 15.101562 6.132812 15.101562 6.066406 15.101562 6 Z M 15.101562 6 "/>
<path style=" stroke:none;fill-rule:nonzero;fill:rgb(10.196079%,10.196079%,10.196079%);fill-opacity:1;" d="M 17 5.898438 C 17.066406 5.933594 17.132812 5.964844 17.199219 6 C 17.234375 6.097656 17.265625 6.199219 17.300781 6.300781 C 17.5 6.421875 17.5 6.421875 17.699219 6.5 C 17.699219 6.566406 17.699219 6.632812 17.699219 6.699219 C 17.625 6.726562 17.546875 6.75 17.46875 6.773438 C 17.175781 6.910156 17.070312 7.03125 16.898438 7.300781 C 16.867188 7.199219 16.835938 7.101562 16.800781 7 C 16.699219 6.96875 16.601562 6.933594 16.5 6.898438 C 16.5 7 16.5 7.097656 16.5 7.199219 C 16.367188 7.167969 16.234375 7.132812 16.101562 7.101562 C 16.132812 6.933594 16.164062 6.769531 16.199219 6.601562 C 16.132812 6.601562 16.066406 6.601562 16 6.601562 C 16.070312 6.40625 16.070312 6.40625 16.199219 6.199219 C 16.460938 6.125 16.460938 6.125 16.699219 6.101562 C 16.699219 6.164062 16.699219 6.230469 16.699219 6.300781 C 16.632812 6.300781 16.566406 6.300781 16.5 6.300781 C 16.5 6.367188 16.5 6.433594 16.5 6.5 C 16.597656 6.46875 16.699219 6.433594 16.800781 6.398438 C 16.921875 6.148438 16.921875 6.148438 17 5.898438 Z M 17 5.898438 "/>
<path style=" stroke:none;fill-rule:nonzero;fill:rgb(69.803923%,69.803923%,69.803923%);fill-opacity:1;" d="M 24.800781 13.300781 C 25.160156 13.507812 25.488281 13.789062 25.601562 14.199219 C 25.582031 14.511719 25.582031 14.511719 25.5 14.800781 C 25.09375 15.070312 24.882812 15.03125 24.398438 15 C 24.199219 14.800781 24.199219 14.800781 24.1875 14.488281 C 24.191406 14.394531 24.195312 14.296875 24.199219 14.199219 C 24.332031 14.167969 24.464844 14.132812 24.601562 14.101562 C 24.535156 14.164062 24.46875 14.230469 24.398438 14.300781 C 24.433594 14.558594 24.433594 14.558594 24.5 14.800781 C 24.933594 14.78125 24.933594 14.78125 25.300781 14.601562 C 25.277344 14.113281 25.277344 14.113281 25.039062 13.707031 C 24.703125 13.554688 24.464844 13.554688 24.101562 13.601562 C 23.78125 13.851562 23.617188 14.050781 23.570312 14.460938 C 23.558594 14.558594 23.550781 14.660156 23.542969 14.761719 C 23.53125 14.914062 23.53125 14.914062 23.519531 15.066406 C 23.511719 15.144531 23.507812 15.21875 23.5 15.300781 C 23.433594 15.300781 23.367188 15.300781 23.300781 15.300781 C 23.25 14.605469 23.28125 14.167969 23.699219 13.601562 C 24.03125 13.246094 24.328125 13.234375 24.800781 13.300781 Z M 24.800781 13.300781 "/>
<path style=" stroke:none;fill-rule:nonzero;fill:rgb(3.529412%,3.529412%,3.529412%);fill-opacity:1;" d="M 28.300781 5.5 C 28.5625 5.5 28.828125 5.5 29.101562 5.5 C 29.101562 6.160156 29.101562 6.820312 29.101562 7.5 C 28.96875 7.5 28.835938 7.5 28.699219 7.5 C 28.6875 7.414062 28.675781 7.328125 28.664062 7.242188 C 28.574219 6.644531 28.484375 6.070312 28.300781 5.5 Z M 28.300781 5.5 "/>
<path style=" stroke:none;fill-rule:nonzero;fill:rgb(7.058824%,7.058824%,7.058824%);fill-opacity:1;" d="M 26.199219 10.199219 C 26.234375 10.199219 26.265625 10.199219 26.300781 10.199219 C 26.34375 11.101562 26.3125 12.074219 25.898438 12.898438 C 25.835938 12.898438 25.769531 12.898438 25.699219 12.898438 C 25.472656 12.058594 25.472656 12.058594 25.5 11.601562 C 25.632812 11.535156 25.765625 11.46875 25.898438 11.398438 C 25.898438 11.464844 25.898438 11.53125 25.898438 11.601562 C 25.964844 11.601562 26.03125 11.601562 26.101562 11.601562 C 26.132812 11.136719 26.164062 10.675781 26.199219 10.199219 Z M 26.199219 10.199219 "/>
<path style=" stroke:none;fill-rule:nonzero;fill:rgb(85.09804%,85.09804%,85.09804%);fill-opacity:1;" d="M 26.800781 9.601562 C 26.832031 9.601562 26.867188 9.601562 26.898438 9.601562 C 26.898438 9.765625 26.898438 9.929688 26.898438 10.101562 C 26.964844 10.101562 27.03125 10.101562 27.101562 10.101562 C 27.089844 10.242188 27.074219 10.382812 27.0625 10.523438 C 27.054688 10.605469 27.046875 10.683594 27.042969 10.765625 C 27 11.007812 26.921875 11.183594 26.800781 11.398438 C 26.996094 11.398438 27.195312 11.398438 27.398438 11.398438 C 27.511719 11.773438 27.511719 11.773438 27.398438 12 C 27.335938 12 27.269531 12 27.199219 12 C 27.234375 11.867188 27.265625 11.734375 27.300781 11.601562 C 27.222656 11.617188 27.148438 11.636719 27.070312 11.65625 C 26.800781 11.699219 26.800781 11.699219 26.5 11.601562 C 26.402344 11.847656 26.402344 11.847656 26.300781 12.101562 C 26.234375 12.101562 26.167969 12.101562 26.101562 12.101562 C 26.132812 11.867188 26.164062 11.636719 26.199219 11.398438 C 26.300781 11.398438 26.398438 11.398438 26.5 11.398438 C 26.683594 11 26.734375 10.65625 26.761719 10.21875 C 26.773438 10.042969 26.773438 10.042969 26.785156 9.867188 C 26.789062 9.777344 26.796875 9.691406 26.800781 9.601562 Z M 26.800781 9.601562 "/>
<path style=" stroke:none;fill-rule:nonzero;fill:rgb(87.843138%,87.843138%,87.843138%);fill-opacity:1;" d="M 23.390625 5.882812 C 23.964844 6.132812 23.964844 6.132812 24.101562 6.398438 C 24.003906 6.367188 24.003906 6.367188 23.910156 6.335938 C 23.355469 6.152344 22.878906 6 22.300781 6.101562 C 22.136719 6.269531 22.023438 6.4375 21.910156 6.648438 C 21.875 6.699219 21.835938 6.746094 21.800781 6.800781 C 21.699219 6.800781 21.601562 6.800781 21.5 6.800781 C 21.5 6.734375 21.5 6.667969 21.5 6.601562 C 21.597656 6.601562 21.699219 6.601562 21.800781 6.601562 C 21.832031 6.433594 21.867188 6.269531 21.898438 6.101562 C 21.769531 6.101562 21.636719 6.101562 21.5 6.101562 C 21.5 6.035156 21.5 5.96875 21.5 5.898438 C 22.023438 5.636719 22.839844 5.726562 23.390625 5.882812 Z M 23.390625 5.882812 "/>
<path style=" stroke:none;fill-rule:nonzero;fill:rgb(89.411765%,89.411765%,89.411765%);fill-opacity:1;" d="M 24.398438 11.300781 C 24.53125 11.367188 24.664062 11.433594 24.800781 11.5 C 24.765625 11.566406 24.734375 11.632812 24.699219 11.699219 C 24.632812 11.667969 24.566406 11.632812 24.5 11.601562 C 24.742188 11.917969 24.96875 12.175781 25.300781 12.398438 C 24.875 12.542969 24.628906 12.417969 24.199219 12.300781 C 24.199219 12.398438 24.199219 12.496094 24.199219 12.601562 C 24.265625 12.632812 24.332031 12.664062 24.398438 12.699219 C 24.234375 12.667969 24.070312 12.632812 23.898438 12.601562 C 23.898438 12.5 23.898438 12.402344 23.898438 12.300781 C 24.148438 12.132812 24.148438 12.132812 24.398438 12 C 24.367188 11.96875 24.335938 11.933594 24.300781 11.898438 C 24.289062 11.648438 24.289062 11.648438 24.300781 11.398438 C 24.332031 11.367188 24.367188 11.335938 24.398438 11.300781 Z M 24.398438 11.300781 "/>
<path style=" stroke:none;fill-rule:nonzero;fill:rgb(12.156863%,12.156863%,12.156863%);fill-opacity:1;" d="M 19.800781 2.101562 C 20.164062 2.101562 20.527344 2.101562 20.898438 2.101562 C 20.933594 2.230469 20.964844 2.363281 21 2.5 C 20.898438 2.601562 20.898438 2.601562 20.671875 2.609375 C 20.535156 2.609375 20.535156 2.609375 20.394531 2.605469 C 20.300781 2.605469 20.210938 2.605469 20.117188 2.601562 C 20.042969 2.601562 19.972656 2.601562 19.898438 2.601562 C 19.867188 2.433594 19.835938 2.269531 19.800781 2.101562 Z M 19.800781 2.101562 "/>
<path style=" stroke:none;fill-rule:nonzero;fill:rgb(75.686276%,75.686276%,75.686276%);fill-opacity:1;" d="M 24.699219 5.601562 C 24.90625 5.644531 24.90625 5.644531 25.101562 5.699219 C 25.101562 5.765625 25.101562 5.832031 25.101562 5.898438 C 25 5.898438 24.902344 5.898438 24.800781 5.898438 C 25.027344 6.34375 25.3125 6.59375 25.699219 6.898438 C 25.800781 7 25.902344 7.097656 26 7.199219 C 26.03125 7.132812 26.066406 7.066406 26.101562 7 C 26.101562 7.097656 26.101562 7.199219 26.101562 7.300781 C 26.035156 7.300781 25.96875 7.300781 25.898438 7.300781 C 25.964844 7.433594 26.03125 7.5625 26.101562 7.699219 C 25.96875 7.667969 25.835938 7.632812 25.699219 7.601562 C 25.695312 7.542969 25.6875 7.488281 25.683594 7.429688 C 25.53125 7.007812 25.140625 6.75 24.816406 6.453125 C 24.601562 6.199219 24.601562 6.199219 24.5625 5.925781 C 24.601562 5.699219 24.601562 5.699219 24.699219 5.601562 Z M 24.699219 5.601562 "/>
<path style=" stroke:none;fill-rule:nonzero;fill:rgb(12.54902%,12.54902%,12.54902%);fill-opacity:1;" d="M 10.007812 1.691406 C 10.128906 1.691406 10.128906 1.691406 10.257812 1.695312 C 10.339844 1.695312 10.421875 1.695312 10.507812 1.695312 C 10.570312 1.699219 10.632812 1.699219 10.699219 1.699219 C 10.734375 1.863281 10.765625 2.03125 10.800781 2.199219 C 10.46875 2.199219 10.140625 2.199219 9.800781 2.199219 C 9.765625 2.066406 9.734375 1.9375 9.699219 1.800781 C 9.800781 1.699219 9.800781 1.699219 10.007812 1.691406 Z M 10.007812 1.691406 "/>
<path style=" stroke:none;fill-rule:nonzero;fill:rgb(80.392158%,80.392158%,80.392158%);fill-opacity:1;" d="M 24.898438 13.5 C 25.171875 13.601562 25.296875 13.695312 25.480469 13.925781 C 25.628906 14.269531 25.609375 14.445312 25.5 14.800781 C 25.09375 15.070312 24.882812 15.03125 24.398438 15 C 24.199219 14.800781 24.199219 14.800781 24.1875 14.488281 C 24.191406 14.394531 24.195312 14.296875 24.199219 14.199219 C 24.332031 14.167969 24.464844 14.132812 24.601562 14.101562 C 24.535156 14.164062 24.46875 14.230469 24.398438 14.300781 C 24.433594 14.558594 24.433594 14.558594 24.5 14.800781 C 24.933594 14.78125 24.933594 14.78125 25.300781 14.601562 C 25.265625 14.144531 25.214844 13.839844 24.898438 13.5 Z M 24.898438 13.5 "/>
<path style=" stroke:none;fill-rule:nonzero;fill:rgb(8.235294%,8.235294%,8.235294%);fill-opacity:1;" d="M 9.898438 2.300781 C 10.132812 2.300781 10.363281 2.300781 10.601562 2.300781 C 10.601562 2.53125 10.601562 2.761719 10.601562 3 C 10.367188 3 10.136719 3 9.898438 3 C 9.898438 2.769531 9.898438 2.539062 9.898438 2.300781 Z M 9.898438 2.300781 "/>
<path style=" stroke:none;fill-rule:nonzero;fill:rgb(10.588235%,10.588235%,10.588235%);fill-opacity:1;" d="M 25.5 0.5 C 25.699219 0.5 25.894531 0.5 26.101562 0.5 C 26.066406 0.730469 26.035156 0.960938 26 1.199219 C 26.328125 1.199219 26.660156 1.199219 27 1.199219 C 27 1.234375 27 1.265625 27 1.300781 C 26.636719 1.300781 26.273438 1.300781 25.898438 1.300781 C 25.898438 1.234375 25.898438 1.167969 25.898438 1.101562 C 25.769531 1.066406 25.636719 1.035156 25.5 1 C 25.5 0.835938 25.5 0.671875 25.5 0.5 Z M 25.5 0.5 "/>
<path style=" stroke:none;fill-rule:nonzero;fill:rgb(90.588236%,90.588236%,90.588236%);fill-opacity:1;" d="M 26.5 11.601562 C 26.597656 11.601562 26.699219 11.601562 26.800781 11.601562 C 26.660156 12.082031 26.457031 12.472656 26.199219 12.898438 C 26.101562 12.898438 26.003906 12.898438 25.898438 12.898438 C 26.082031 12.050781 26.082031 12.050781 26.398438 11.800781 C 26.433594 11.734375 26.464844 11.667969 26.5 11.601562 Z M 26.5 11.601562 "/>
<path style=" stroke:none;fill-rule:nonzero;fill:rgb(87.843138%,87.843138%,87.843138%);fill-opacity:1;" d="M 11 14.601562 C 11.03125 14.601562 11.066406 14.601562 11.101562 14.601562 C 11.105469 14.828125 11.109375 15.054688 11.113281 15.28125 C 11.113281 15.40625 11.117188 15.535156 11.121094 15.664062 C 11.101562 16 11.101562 16 10.898438 16.300781 C 10.800781 16.300781 10.703125 16.300781 10.601562 16.300781 C 10.601562 16.101562 10.601562 15.902344 10.601562 15.699219 C 10.664062 15.699219 10.730469 15.699219 10.800781 15.699219 C 10.914062 15.46875 10.929688 15.292969 10.957031 15.039062 C 10.964844 14.957031 10.972656 14.875 10.980469 14.789062 C 10.988281 14.726562 10.992188 14.664062 11 14.601562 Z M 11 14.601562 "/>
<path style=" stroke:none;fill-rule:nonzero;fill:rgb(10.980392%,10.980392%,10.980392%);fill-opacity:1;" d="M 25 7 C 25.230469 7.066406 25.460938 7.132812 25.699219 7.199219 C 25.710938 7.261719 25.726562 7.324219 25.738281 7.386719 C 25.789062 7.617188 25.789062 7.617188 26 7.800781 C 25.96875 7.898438 25.933594 7.996094 25.898438 8.101562 C 25.566406 7.765625 25.234375 7.433594 24.898438 7.101562 C 24.933594 7.066406 24.964844 7.035156 25 7 Z M 25 7 "/>
<path style=" stroke:none;fill-rule:nonzero;fill:rgb(68.235296%,68.235296%,68.235296%);fill-opacity:1;" d="M 13.898438 6.101562 C 13.933594 6.230469 13.964844 6.363281 14 6.5 C 14.460938 6.378906 14.460938 6.378906 14.898438 6.199219 C 14.863281 6.273438 14.824219 6.347656 14.789062 6.425781 C 14.671875 6.695312 14.671875 6.695312 14.789062 6.929688 C 14.84375 7.015625 14.84375 7.015625 14.898438 7.101562 C 14.847656 7.054688 14.796875 7.007812 14.742188 6.960938 C 14.441406 6.761719 14.148438 6.6875 13.800781 6.601562 C 13.800781 6.199219 13.800781 6.199219 13.898438 6.101562 Z M 13.898438 6.101562 "/>
<path style=" stroke:none;fill-rule:nonzero;fill:rgb(65.098041%,65.098041%,65.098041%);fill-opacity:1;" d="M 26.800781 9.601562 C 26.832031 9.601562 26.867188 9.601562 26.898438 9.601562 C 26.898438 9.765625 26.898438 9.929688 26.898438 10.101562 C 26.964844 10.101562 27.03125 10.101562 27.101562 10.101562 C 27.003906 11.039062 27.003906 11.039062 26.898438 11.5 C 26.800781 11.46875 26.703125 11.433594 26.601562 11.398438 C 26.664062 10.804688 26.730469 10.210938 26.800781 9.601562 Z M 26.800781 9.601562 "/>
<path style=" stroke:none;fill-rule:nonzero;fill:rgb(83.92157%,83.92157%,83.92157%);fill-opacity:1;" d="M 25.601562 15.300781 C 25.847656 15.347656 25.847656 15.347656 26.101562 15.398438 C 26.164062 15.582031 26.164062 15.582031 26.199219 15.800781 C 26.101562 15.949219 26.101562 15.949219 26 16.101562 C 26.03125 16.164062 26.066406 16.230469 26.101562 16.300781 C 25.96875 16.265625 25.835938 16.234375 25.699219 16.199219 C 25.734375 16.003906 25.765625 15.804688 25.800781 15.601562 C 25.734375 15.566406 25.667969 15.535156 25.601562 15.5 C 25.601562 15.433594 25.601562 15.367188 25.601562 15.300781 Z M 25.601562 15.300781 "/>
<path style=" stroke:none;fill-rule:nonzero;fill:rgb(85.490197%,85.490197%,85.490197%);fill-opacity:1;" d="M 22.800781 6.601562 C 22.867188 6.632812 22.933594 6.664062 23 6.699219 C 22.902344 6.847656 22.902344 6.847656 22.800781 7 C 22.757812 7.253906 22.757812 7.253906 22.800781 7.5 C 22.898438 7.566406 22.996094 7.632812 23.101562 7.699219 C 23.101562 7.765625 23.101562 7.832031 23.101562 7.898438 C 22.613281 7.710938 22.613281 7.710938 22.5 7.601562 C 22.46875 7.253906 22.460938 7.0625 22.648438 6.761719 C 22.699219 6.707031 22.75 6.65625 22.800781 6.601562 Z M 22.800781 6.601562 "/>
<path style=" stroke:none;fill-rule:nonzero;fill:rgb(77.254903%,77.254903%,77.254903%);fill-opacity:1;" d="M 16 6.800781 C 16.066406 6.898438 16.132812 6.996094 16.199219 7.101562 C 16.300781 7.132812 16.398438 7.164062 16.5 7.199219 C 16.5 7.101562 16.5 7.003906 16.5 6.898438 C 16.632812 6.933594 16.765625 6.964844 16.898438 7 C 16.867188 7.132812 16.835938 7.265625 16.800781 7.398438 C 16.519531 7.425781 16.519531 7.425781 16.199219 7.398438 C 16.011719 7.199219 16.011719 7.199219 15.898438 7 C 15.933594 6.933594 15.964844 6.867188 16 6.800781 Z M 16 6.800781 "/>
<path style=" stroke:none;fill-rule:nonzero;fill:rgb(76.47059%,76.47059%,76.47059%);fill-opacity:1;" d="M 23 6.398438 C 23.621094 6.445312 24.058594 6.589844 24.601562 6.898438 C 24.535156 6.964844 24.46875 7.03125 24.398438 7.101562 C 24.300781 7.035156 24.199219 6.96875 24.09375 6.898438 C 23.722656 6.683594 23.429688 6.664062 23 6.699219 C 23 6.601562 23 6.503906 23 6.398438 Z M 23 6.398438 "/>
<path style=" stroke:none;fill-rule:nonzero;fill:rgb(97.254902%,97.254902%,97.254902%);fill-opacity:1;" d="M 19.898438 6.300781 C 19.730469 6.503906 19.636719 6.589844 19.375 6.652344 C 19.292969 6.65625 19.214844 6.664062 19.132812 6.667969 C 19.050781 6.675781 18.96875 6.683594 18.886719 6.6875 C 18.824219 6.691406 18.761719 6.695312 18.699219 6.699219 C 18.734375 6.601562 18.765625 6.503906 18.800781 6.398438 C 19.148438 6.253906 19.527344 6.292969 19.898438 6.300781 Z M 19.898438 6.300781 "/>
<path style=" stroke:none;fill-rule:nonzero;fill:rgb(74.509805%,74.509805%,74.509805%);fill-opacity:1;" d="M 25.601562 11.199219 C 25.765625 11.234375 25.929688 11.265625 26.101562 11.300781 C 26.101562 11.398438 26.101562 11.496094 26.101562 11.601562 C 26.035156 11.601562 25.96875 11.601562 25.898438 11.601562 C 25.898438 11.535156 25.898438 11.46875 25.898438 11.398438 C 25.800781 11.464844 25.703125 11.53125 25.601562 11.601562 C 25.5625 11.796875 25.5625 11.796875 25.582031 12.011719 C 25.589844 12.203125 25.589844 12.203125 25.601562 12.398438 C 25.535156 12.398438 25.46875 12.398438 25.398438 12.398438 C 25.394531 12.257812 25.390625 12.113281 25.386719 11.96875 C 25.386719 11.890625 25.382812 11.808594 25.378906 11.726562 C 25.398438 11.5 25.398438 11.5 25.601562 11.199219 Z M 25.601562 11.199219 "/>
<path style=" stroke:none;fill-rule:nonzero;fill:rgb(84.705883%,84.705883%,84.705883%);fill-opacity:1;" d="M 18.5 5.699219 C 18.707031 5.742188 18.707031 5.742188 18.898438 5.800781 C 18.800781 5.867188 18.703125 5.933594 18.601562 6 C 18.601562 6.066406 18.601562 6.132812 18.601562 6.199219 C 18.898438 6.25 18.898438 6.25 19.199219 6.300781 C 19.136719 6.3125 19.070312 6.324219 19.007812 6.335938 C 18.902344 6.367188 18.902344 6.367188 18.800781 6.398438 C 18.765625 6.464844 18.734375 6.53125 18.699219 6.601562 C 18.699219 6.535156 18.699219 6.46875 18.699219 6.398438 C 18.566406 6.367188 18.4375 6.335938 18.300781 6.300781 C 18.386719 5.8125 18.386719 5.8125 18.5 5.699219 Z M 18.5 5.699219 "/>
<path style=" stroke:none;fill-rule:nonzero;fill:rgb(77.254903%,77.254903%,77.254903%);fill-opacity:1;" d="M 27.199219 8.699219 C 27.363281 8.734375 27.53125 8.765625 27.699219 8.800781 C 27.734375 8.964844 27.765625 9.128906 27.800781 9.300781 C 27.667969 9.199219 27.535156 9.101562 27.398438 9 C 27.335938 9.164062 27.269531 9.328125 27.199219 9.5 C 27.132812 9.402344 27.066406 9.300781 27 9.199219 C 27.085938 8.929688 27.085938 8.929688 27.199219 8.699219 Z M 27.199219 8.699219 "/>
<path style=" stroke:none;fill-rule:nonzero;fill:rgb(78.431374%,78.431374%,78.431374%);fill-opacity:1;" d="M 26.71875 6.375 C 26.8125 6.382812 26.90625 6.390625 27 6.398438 C 27.03125 6.566406 27.066406 6.730469 27.101562 6.898438 C 27 6.949219 27 6.949219 26.898438 7 C 26.898438 6.867188 26.898438 6.734375 26.898438 6.601562 C 26.785156 6.648438 26.785156 6.648438 26.667969 6.699219 C 26.398438 6.800781 26.398438 6.800781 26.101562 6.800781 C 26.28125 6.476562 26.335938 6.40625 26.71875 6.375 Z M 26.71875 6.375 "/>
<path style=" stroke:none;fill-rule:nonzero;fill:rgb(84.313726%,84.313726%,84.313726%);fill-opacity:1;" d="M 25.398438 9 C 25.566406 9.03125 25.730469 9.066406 25.898438 9.101562 C 25.898438 9.199219 25.898438 9.296875 25.898438 9.398438 C 25.800781 9.367188 25.703125 9.335938 25.601562 9.300781 C 25.601562 9.398438 25.601562 9.496094 25.601562 9.601562 C 25.5 9.566406 25.402344 9.535156 25.300781 9.5 C 25.332031 9.335938 25.367188 9.171875 25.398438 9 Z M 25.398438 9 "/>
<path style=" stroke:none;fill-rule:nonzero;fill:rgb(96.078432%,96.078432%,96.078432%);fill-opacity:1;" d="M 26.800781 9.101562 C 26.949219 9.199219 26.949219 9.199219 27.101562 9.300781 C 27.140625 9.570312 27.113281 9.824219 27.101562 10.101562 C 27.035156 10.101562 26.96875 10.101562 26.898438 10.101562 C 26.867188 9.769531 26.835938 9.441406 26.800781 9.101562 Z M 26.800781 9.101562 "/>
<path style=" stroke:none;fill-rule:nonzero;fill:rgb(74.117649%,74.117649%,74.117649%);fill-opacity:1;" d="M 24.417969 12.136719 C 24.480469 12.15625 24.539062 12.179688 24.601562 12.199219 C 24.46875 12.234375 24.335938 12.265625 24.199219 12.300781 C 24.199219 12.398438 24.199219 12.496094 24.199219 12.601562 C 24.265625 12.632812 24.332031 12.664062 24.398438 12.699219 C 24.234375 12.667969 24.070312 12.632812 23.898438 12.601562 C 23.898438 12.5 23.898438 12.402344 23.898438 12.300781 C 24.199219 12.101562 24.199219 12.101562 24.417969 12.136719 Z M 24.417969 12.136719 "/>
<path style=" stroke:none;fill-rule:nonzero;fill:rgb(76.862746%,76.862746%,76.862746%);fill-opacity:1;" d="M 23.800781 7.398438 C 23.832031 7.464844 23.867188 7.53125 23.898438 7.601562 C 23.964844 7.601562 24.03125 7.601562 24.101562 7.601562 C 24.101562 7.664062 24.101562 7.730469 24.101562 7.800781 C 24.199219 7.800781 24.296875 7.800781 24.398438 7.800781 C 24.398438 7.898438 24.398438 7.996094 24.398438 8.101562 C 24.183594 8.050781 24 8 23.800781 7.898438 C 23.800781 7.734375 23.800781 7.570312 23.800781 7.398438 Z M 23.800781 7.398438 "/>
<path style=" stroke:none;fill-rule:nonzero;fill:rgb(14.509805%,14.509805%,14.509805%);fill-opacity:1;" d="M 9.601562 13.601562 C 9.699219 13.632812 9.796875 13.664062 9.898438 13.699219 C 9.898438 13.832031 9.898438 13.964844 9.898438 14.101562 C 9.734375 14.066406 9.570312 14.035156 9.398438 14 C 9.464844 13.867188 9.53125 13.734375 9.601562 13.601562 Z M 9.601562 13.601562 "/>
<path style=" stroke:none;fill-rule:nonzero;fill:rgb(19.215687%,19.215687%,19.215687%);fill-opacity:1;" d="M 21.898438 6.101562 C 21.867188 6.265625 21.835938 6.429688 21.800781 6.601562 C 21.667969 6.632812 21.535156 6.664062 21.398438 6.699219 C 21.398438 6.535156 21.398438 6.371094 21.398438 6.199219 C 21.699219 6.101562 21.699219 6.101562 21.898438 6.101562 Z M 21.898438 6.101562 "/>
<path style=" stroke:none;fill-rule:nonzero;fill:rgb(89.019608%,89.019608%,89.019608%);fill-opacity:1;" d="M 27.699219 15.398438 C 27.734375 15.464844 27.765625 15.53125 27.800781 15.601562 C 27.636719 15.796875 27.46875 15.996094 27.300781 16.199219 C 27.199219 16.132812 27.101562 16.066406 27 16 C 27.230469 15.800781 27.460938 15.605469 27.699219 15.398438 Z M 27.699219 15.398438 "/>
<path style=" stroke:none;fill-rule:nonzero;fill:rgb(69.411767%,69.411767%,69.411767%);fill-opacity:1;" d="M 27.398438 13 C 27.582031 13.019531 27.582031 13.019531 27.800781 13.101562 C 27.980469 13.335938 27.980469 13.335938 28.101562 13.601562 C 28.066406 13.699219 28.035156 13.796875 28 13.898438 C 27.800781 13.601562 27.601562 13.300781 27.398438 13 Z M 27.398438 13 "/>
<path style=" stroke:none;fill-rule:nonzero;fill:rgb(67.843139%,67.843139%,67.843139%);fill-opacity:1;" d="M 25.601562 7 C 25.796875 7.097656 25.796875 7.097656 26 7.199219 C 26.03125 7.132812 26.066406 7.066406 26.101562 7 C 26.101562 7.097656 26.101562 7.199219 26.101562 7.300781 C 26.035156 7.300781 25.96875 7.300781 25.898438 7.300781 C 25.964844 7.433594 26.03125 7.5625 26.101562 7.699219 C 25.96875 7.667969 25.835938 7.632812 25.699219 7.601562 C 25.644531 7.390625 25.601562 7.214844 25.601562 7 Z M 25.601562 7 "/>
<path style=" stroke:none;fill-rule:nonzero;fill:rgb(80.392158%,80.392158%,80.392158%);fill-opacity:1;" d="M 17.300781 6.699219 C 17.613281 6.738281 17.613281 6.738281 17.898438 6.800781 C 17.898438 6.832031 17.898438 6.867188 17.898438 6.898438 C 17.761719 6.941406 17.761719 6.941406 17.617188 6.988281 C 17.289062 7.089844 17.289062 7.089844 17 7.300781 C 17.058594 7.011719 17.085938 6.914062 17.300781 6.699219 Z M 17.300781 6.699219 "/>
<path style=" stroke:none;fill-rule:nonzero;fill:rgb(14.901961%,14.901961%,14.901961%);fill-opacity:1;" d="M 26.199219 13.800781 C 26.347656 14.066406 26.398438 14.1875 26.398438 14.5 C 26.335938 14.5 26.269531 14.5 26.199219 14.5 C 26.167969 14.597656 26.132812 14.699219 26.101562 14.800781 C 26.085938 14.023438 26.085938 14.023438 26.199219 13.800781 Z M 26.199219 13.800781 "/>
<path style=" stroke:none;fill-rule:nonzero;fill:rgb(93.725491%,93.725491%,93.725491%);fill-opacity:1;" d="M 26.5 11.601562 C 26.597656 11.601562 26.699219 11.601562 26.800781 11.601562 C 26.734375 11.796875 26.667969 11.996094 26.601562 12.199219 C 26.492188 12.011719 26.492188 12.011719 26.398438 11.800781 C 26.433594 11.734375 26.464844 11.667969 26.5 11.601562 Z M 26.101562 12.101562 C 26.199219 12.148438 26.199219 12.148438 26.300781 12.199219 C 26.199219 12.25 26.199219 12.25 26.101562 12.300781 C 26.101562 12.234375 26.101562 12.167969 26.101562 12.101562 Z M 26.101562 12.101562 "/>
<path style=" stroke:none;fill-rule:nonzero;fill:rgb(60.392159%,60.392159%,60.392159%);fill-opacity:1;" d="M 26.199219 11.398438 C 26.398438 11.449219 26.398438 11.449219 26.601562 11.5 C 26.5 11.699219 26.402344 11.894531 26.300781 12.101562 C 26.234375 12.101562 26.167969 12.101562 26.101562 12.101562 C 26.132812 11.867188 26.164062 11.636719 26.199219 11.398438 Z M 26.199219 11.398438 "/>
<path style=" stroke:none;fill-rule:nonzero;fill:rgb(91.764706%,91.764706%,91.764706%);fill-opacity:1;" d="M 15.101562 7 C 15.265625 7 15.429688 7 15.601562 7 C 15.566406 7.132812 15.535156 7.265625 15.5 7.398438 C 15.367188 7.367188 15.234375 7.335938 15.101562 7.300781 C 15.101562 7.199219 15.101562 7.101562 15.101562 7 Z M 15.101562 7 "/>
<path style=" stroke:none;fill-rule:nonzero;fill:rgb(82.352942%,82.352942%,82.352942%);fill-opacity:1;" d="M 14.800781 6.199219 C 14.800781 6.5 14.800781 6.800781 14.800781 7.101562 C 14.667969 6.96875 14.535156 6.835938 14.398438 6.699219 C 14.5 6.398438 14.5 6.398438 14.800781 6.199219 Z M 14.800781 6.199219 "/>
<path style=" stroke:none;fill-rule:nonzero;fill:rgb(79.607844%,79.607844%,79.607844%);fill-opacity:1;" d="M 23.398438 15.300781 C 23.625 15.570312 23.789062 15.765625 23.898438 16.101562 C 23.800781 16.101562 23.703125 16.101562 23.601562 16.101562 C 23.421875 15.792969 23.398438 15.675781 23.398438 15.300781 Z M 23.398438 15.300781 "/>
<path style=" stroke:none;fill-rule:nonzero;fill:rgb(29.019609%,29.019609%,29.019609%);fill-opacity:1;" d="M 25 7 C 25.234375 7.058594 25.46875 7.125 25.699219 7.199219 C 25.734375 7.265625 25.765625 7.332031 25.800781 7.398438 C 25.535156 7.367188 25.273438 7.335938 25 7.300781 C 25 7.199219 25 7.101562 25 7 Z M 25 7 "/>
</g>
</svg>
