<?xml version="1.0" encoding="UTF-8"?>
<svg version="1.1" xmlns="http://www.w3.org/2000/svg" width="1640" height="230">
<path d="M0 0 C541.2 0 1082.4 0 1640 0 C1640 75.9 1640 151.8 1640 230 C1098.8 230 557.6 230 0 230 C0 154.1 0 78.2 0 0 Z " fill="#FEFEFE" transform="translate(0,0)"/>
<path d="M0 0 C7.74351765 3.0800059 13.93641388 7.46331409 20.2890625 12.73828125 C34.14847753 23.44615377 53.95338992 18.89738017 70.08984375 16.859375 C75.91453533 16.0789914 81.62726742 15.0812639 87.37109375 13.83203125 C92.45081856 12.74609211 97.55375607 11.81245694 102.6640625 10.8828125 C103.58864258 10.71209229 104.51322266 10.54137207 105.46582031 10.36547852 C115.41528414 8.55427221 124.92094506 7.77557255 135.0390625 7.6953125 C136.24626953 7.66630859 137.45347656 7.63730469 138.69726562 7.60742188 C148.65573922 7.53740557 158.2530256 9.06478097 165.73046875 16.18359375 C173.07939068 25.14428968 174.4504839 36.06025296 174.7890625 47.24609375 C174.82588135 48.20694382 174.8627002 49.16779388 174.90063477 50.15776062 C175.01706957 53.21171758 175.12289985 56.26589731 175.2265625 59.3203125 C175.93505031 79.79527914 177.51360512 99.85203453 180.8515625 120.0703125 C181.1967787 122.18730006 181.54024878 124.30454648 181.88119507 126.42222595 C182.18373409 128.29775851 182.49135182 130.17246983 182.79931641 132.04711914 C183.2265625 135.0078125 183.2265625 135.0078125 183.2265625 138.0078125 C183.80427902 137.99670944 184.38199554 137.98560638 184.97721863 137.97416687 C190.99547856 137.86346439 197.01344886 137.78810045 203.0324707 137.7331543 C205.27803294 137.70802527 207.5235135 137.67391635 209.76879883 137.63061523 C212.99841468 137.56989474 216.22694834 137.54158619 219.45703125 137.51953125 C220.45929245 137.49372482 221.46155365 137.4679184 222.4941864 137.44132996 C227.25320775 137.43941918 229.48477189 137.45411369 233.39428711 140.37231445 C235.2265625 143.0078125 235.2265625 143.0078125 235.3125 145.6640625 C233.94189391 148.62220513 232.78939619 149.17675516 229.8515625 150.5078125 C225.7868561 152.36142454 223.99599373 153.84317558 222.2265625 158.0078125 C221.619169 161.57671172 221.34999223 165.14827472 221.1015625 168.7578125 C220.95684882 170.66955636 220.8086074 172.58103762 220.65625 174.4921875 C220.56706299 175.75627441 220.56706299 175.75627441 220.47607422 177.04589844 C220.2265625 179.0078125 220.2265625 179.0078125 219.2265625 180.0078125 C217.86182231 180.10511502 216.49208296 180.13336654 215.12387848 180.13365364 C214.23423826 180.13626139 213.34459804 180.13886914 212.42799902 180.14155591 C211.43940217 180.13932518 210.45080531 180.13709446 209.43225098 180.13479614 C207.87006891 180.13713613 207.87006891 180.13713613 206.27632761 180.13952339 C202.75777207 180.14353829 199.23925905 180.14034185 195.72070312 180.13720703 C193.20989456 180.13856085 190.69908619 180.14034068 188.1882782 180.14251709 C182.05924284 180.14661755 175.93022345 180.14599808 169.80118787 180.14310445 C164.8221949 180.14085063 159.84320537 180.1405378 154.86421204 180.14162827 C154.15691913 180.1417815 153.44962623 180.14193473 152.72090021 180.14209261 C151.28427247 180.14241232 149.84764474 180.14273653 148.411017 180.1430652 C134.9239686 180.14592015 121.43692699 180.14263273 107.94987971 180.13726483 C96.36485781 180.13279678 84.77984593 180.13357271 73.19482422 180.13818359 C59.75767588 180.14352909 46.32053349 180.14564546 32.88338423 180.14257133 C31.45189381 180.14225276 30.02040339 180.14193839 28.58891296 180.14162827 C27.88450055 180.14147399 27.18008813 180.14131971 26.45432988 180.14116076 C21.47844768 180.14029553 16.50256924 180.14175861 11.52668762 180.14410782 C4.8356991 180.14719717 -1.85526748 180.14501342 -8.54625511 180.13921356 C-11.00982316 180.13788521 -13.47339279 180.13828134 -15.93696022 180.14047623 C-19.28437081 180.1431848 -22.6317194 180.13981021 -25.97912598 180.13479614 C-26.96772283 180.13702686 -27.95631968 180.13925759 -28.97487402 180.14155591 C-29.86451424 180.13894816 -30.75415446 180.13634041 -31.67075348 180.13365364 C-32.831315 180.13341011 -32.831315 180.13341011 -34.01532221 180.13316166 C-35.7734375 180.0078125 -35.7734375 180.0078125 -36.7734375 179.0078125 C-36.96340658 177.66594674 -37.09638433 176.31587979 -37.203125 174.96484375 C-37.27660156 174.13791016 -37.35007812 173.31097656 -37.42578125 172.45898438 C-37.57252799 170.71990676 -37.71329742 168.9803129 -37.84765625 167.24023438 C-38.37973384 161.40992651 -39.43423139 156.99046786 -43.13671875 152.26953125 C-45.275159 150.62104389 -47.43811183 149.77046762 -49.9609375 148.8203125 C-51.31251953 148.30404297 -51.31251953 148.30404297 -52.69140625 147.77734375 C-53.37847656 147.52339844 -54.06554688 147.26945313 -54.7734375 147.0078125 C-54.16927083 141.5703125 -54.16927083 141.5703125 -52.59057617 139.3269043 C-50.01756555 137.45911223 -48.16690191 137.66679528 -45.01171875 137.71484375 C-43.89345703 137.72451172 -42.77519531 137.73417969 -41.62304688 137.74414062 C-40.45580078 137.76927734 -39.28855469 137.79441406 -38.0859375 137.8203125 C-36.90708984 137.83384766 -35.72824219 137.84738281 -34.51367188 137.86132812 C-31.59980339 137.89671924 -28.68684805 137.94609441 -25.7734375 138.0078125 C-25.7734375 137.0178125 -25.7734375 136.0278125 -25.7734375 135.0078125 C-21.8134375 135.0078125 -17.8534375 135.0078125 -13.7734375 135.0078125 C-13.1134375 133.6878125 -12.4534375 132.3678125 -11.7734375 131.0078125 C-10.7834375 131.0078125 -9.7934375 131.0078125 -8.7734375 131.0078125 C-9.2684375 126.5528125 -9.2684375 126.5528125 -9.7734375 122.0078125 C-7.7934375 122.0078125 -5.8134375 122.0078125 -3.7734375 122.0078125 C-3.7734375 122.6678125 -3.7734375 123.3278125 -3.7734375 124.0078125 C-4.4334375 124.0078125 -5.0934375 124.0078125 -5.7734375 124.0078125 C-5.7734375 125.9878125 -5.7734375 127.9678125 -5.7734375 130.0078125 C-4.7834375 129.6778125 -3.7934375 129.3478125 -2.7734375 129.0078125 C-1.2926527 126.0462429 -1.42029713 123.17274955 -1.2109375 119.8828125 C-1.12714844 118.60148437 -1.04335937 117.32015625 -0.95703125 116 C-0.89644531 115.01257813 -0.83585937 114.02515625 -0.7734375 113.0078125 C0.5465625 113.0078125 1.8665625 113.0078125 3.2265625 113.0078125 C3.30795392 115.40433778 3.36723259 117.79806686 3.4140625 120.1953125 C3.43919922 120.86884766 3.46433594 121.54238281 3.49023438 122.23632812 C3.55587789 126.72196841 2.91512057 129.41178143 0.2265625 133.0078125 C-0.1034375 133.3378125 -0.4334375 133.6678125 -0.7734375 134.0078125 C3.5165625 134.3378125 7.8065625 134.6678125 12.2265625 135.0078125 C12.2265625 135.9978125 12.2265625 136.9878125 12.2265625 138.0078125 C42.2565625 138.0078125 72.2865625 138.0078125 103.2265625 138.0078125 C103.5565625 136.3578125 103.8865625 134.7078125 104.2265625 133.0078125 C104.96992636 130.89378517 105.74386713 128.79039381 106.5390625 126.6953125 C112.83351089 109.23094703 120.21959296 83.6110327 114.3515625 65.2734375 C110.51427268 58.55818032 104.88709149 55.33142282 97.62451172 53.29199219 C79.18302674 48.42233625 59.98211961 47.85027519 40.9765625 47.6953125 C39.91348877 47.67782959 38.85041504 47.66034668 37.75512695 47.64233398 C30.4232721 47.64762604 24.54276601 48.40222403 18.6015625 53.0703125 C12.93867134 60.07441473 8.58858416 67.52047149 7.3515625 76.5078125 C6.57449065 81.01847175 5.71095633 83.83086519 2.2265625 87.0078125 C-0.73926265 88.78683757 -2.87833939 89.24963815 -6.3203125 89.203125 C-7.58681641 89.19345703 -7.58681641 89.19345703 -8.87890625 89.18359375 C-9.75160156 89.16683594 -10.62429687 89.15007812 -11.5234375 89.1328125 C-12.85568359 89.11927734 -12.85568359 89.11927734 -14.21484375 89.10546875 C-16.40131808 89.08195827 -18.58723844 89.04909749 -20.7734375 89.0078125 C-21.1034375 88.3478125 -21.4334375 87.6878125 -21.7734375 87.0078125 C-22.7634375 86.6778125 -23.7534375 86.3478125 -24.7734375 86.0078125 C-24.7734375 66.5378125 -24.7734375 47.0678125 -24.7734375 27.0078125 C-26.0934375 27.3378125 -27.4134375 27.6678125 -28.7734375 28.0078125 C-29.1034375 28.6678125 -29.4334375 29.3278125 -29.7734375 30.0078125 C-31.4234375 29.6778125 -33.0734375 29.3478125 -34.7734375 29.0078125 C-34.7734375 26.6978125 -34.7734375 24.3878125 -34.7734375 22.0078125 C-33.4534375 21.3478125 -32.1334375 20.6878125 -30.7734375 20.0078125 C-30.1134375 20.6678125 -29.4534375 21.3278125 -28.7734375 22.0078125 C-27.4534375 22.3378125 -26.1334375 22.6678125 -24.7734375 23.0078125 C-24.7734375 15.7478125 -24.7734375 8.4878125 -24.7734375 1.0078125 C-17.3331242 -2.71234415 -7.9505991 -2.0905302 0 0 Z " fill="#0A0A0A" transform="translate(111.7734375,32.9921875)"/>
<path d="M0 0 C17.16 0 34.32 0 52 0 C58.435 8.415 58.435 8.415 65 17 C67.39079358 20.08761958 69.78347969 23.17280924 72.1875 26.25 C77.12277842 32.58027111 82.03293951 38.92866677 86.9140625 45.30078125 C88.91516309 47.8902204 90.94777301 50.45096693 93 53 C96.83045053 51.72318316 98.20288175 49.44148159 100.5 46.3125 C101.39634435 45.11919705 102.29350784 43.92650904 103.19140625 42.734375 C103.65434082 42.11626953 104.11727539 41.49816406 104.59423828 40.86132812 C106.83397907 37.89575261 109.13490488 34.97936768 111.4375 32.0625 C111.89229736 31.48435547 112.34709473 30.90621094 112.81567383 30.31054688 C115.15813262 27.3329079 117.50638648 24.35994885 119.859375 21.390625 C120.33318604 20.79113037 120.80699707 20.19163574 121.29516602 19.57397461 C122.17666059 18.45877501 123.05976189 17.34484194 123.94506836 16.23266602 C128.13354997 10.92877797 132.01264312 5.48261571 136 0 C153.16 0 170.32 0 188 0 C188 52.47 188 104.94 188 159 C169.19 159 150.38 159 131 159 C130.67 135.24 130.34 111.48 130 87 C122.37574515 96.08683554 122.37574515 96.08683554 115.0625 105.375 C114.23894143 106.45623233 113.41469531 107.53694124 112.58984375 108.6171875 C111.96311768 109.43848145 111.96311768 109.43848145 111.32373047 110.27636719 C108.94811069 113.36966775 106.53664454 116.43475487 104.125 119.5 C103.44642944 120.36310791 103.44642944 120.36310791 102.75415039 121.24365234 C100.18445435 124.50789969 97.59962086 127.75954237 95 131 C91.83597859 129.63803222 90.11198825 128.23679477 88.0390625 125.5 C87.21825195 124.42951416 87.21825195 124.42951416 86.38085938 123.33740234 C85.51170898 122.18038818 85.51170898 122.18038818 84.625 121 C83.37784959 119.36700004 82.13044626 117.73419321 80.8828125 116.1015625 C80.24375977 115.26012695 79.60470703 114.41869141 78.94628906 113.55175781 C75.83071407 109.4669623 72.66313766 105.42299704 69.5 101.375 C68.3844963 99.94603049 67.26987735 98.51636977 66.15625 97.0859375 C65.69025391 96.4882959 65.22425781 95.8906543 64.74414062 95.27490234 C62.13464487 91.87130752 59.57328842 88.43105123 57 85 C56.67 109.42 56.34 133.84 56 159 C37.52 159 19.04 159 0 159 C0 106.53 0 54.06 0 0 Z " fill="#083873" transform="translate(623,41)"/>
<path d="M0 0 C19.47 0 38.94 0 59 0 C62.1265162 6.2530324 65.10443019 12.36488358 67.7578125 18.80078125 C68.09827103 19.61793106 68.43872955 20.43508087 68.789505 21.2769928 C69.5218213 23.0355731 70.25257983 24.79480277 70.98190308 26.55462646 C72.97410512 31.36107915 74.97843481 36.16248018 76.98046875 40.96484375 C77.39508865 41.96038269 77.80970856 42.95592163 78.2368927 43.98162842 C82.60295794 54.4605232 87.01686185 64.91903602 91.4375 75.375 C92.22243248 77.23225051 93.00734454 79.08950964 93.79223633 80.94677734 C94.97907084 83.7549791 96.1659871 86.56314618 97.35313416 89.37121582 C100.30853787 96.36218112 103.26041886 103.35462795 106.2109375 110.34765625 C107.07364383 112.39209206 107.93635537 114.43652568 108.79907227 116.48095703 C110.03784463 119.41657224 111.2765302 122.35222385 112.51486206 125.2880249 C113.65147197 127.98253458 114.78860551 130.67682283 115.92578125 133.37109375 C116.27855637 134.20793701 116.63133148 135.04478027 116.99479675 135.90698242 C118.60347506 139.7179674 120.22202064 143.52383029 121.87255859 147.31689453 C122.15689255 147.97190445 122.4412265 148.62691437 122.73417664 149.30177307 C123.48384074 151.02429624 124.23818134 152.74478209 124.99291992 154.46508789 C126 157 126 157 126 159 C106.86 159 87.72 159 68 159 C60 138 60 138 60 135 C40.2 135 20.4 135 0 135 C-0.99 137.97 -1.98 140.94 -3 144 C-4.98 148.95 -6.96 153.9 -9 159 C-27.81 159 -46.62 159 -66 159 C-65.19546617 154.97733085 -64.30152312 152.0239975 -62.7265625 148.3125 C-62.24155273 147.16273682 -61.75654297 146.01297363 -61.25683594 144.82836914 C-60.71295297 143.55221952 -60.16900528 142.27609749 -59.625 141 C-59.04935934 139.640081 -58.47417816 138.27996744 -57.89941406 136.91967773 C-56.63029229 133.91793831 -55.35846227 130.91736436 -54.08496094 127.91748047 C-51.88431113 122.73101848 -49.69550363 117.53959494 -47.5078125 112.34765625 C-39.46227315 93.25875447 -31.38557759 74.18330733 -23.27407837 55.12234497 C-15.46483271 36.76968297 -7.73047914 18.38600443 0 0 Z " fill="#083873" transform="translate(895,41)"/>
<path d="M0 0 C8.95352635 -0.27912849 17.90553701 -0.49178574 26.86247826 -0.62174606 C31.02268422 -0.68415273 35.17989639 -0.76864051 39.33837891 -0.90527344 C43.35870911 -1.036527 47.3761786 -1.1075773 51.39848709 -1.13852692 C52.92577788 -1.16055213 54.45292698 -1.20357106 55.97898483 -1.26876068 C67.59399042 -1.74478862 67.59399042 -1.74478862 71.62095833 1.17548561 C74.9778253 4.39138273 77.48362591 8.09913004 80 12 C80.95841814 13.24417188 81.92818351 14.47985245 82.91796875 15.69921875 C84.04138672 17.17841797 84.04138672 17.17841797 85.1875 18.6875 C86.01151386 19.7683854 86.83573399 20.84911357 87.66015625 21.9296875 C88.43230469 22.94289063 89.20445313 23.95609375 90 25 C92.32671938 28.00517244 94.66182768 31.00373282 97 34 C100.0118602 32.67789709 101.80540131 31.36610497 103.84765625 28.796875 C104.36545654 28.15250488 104.88325684 27.50813477 105.41674805 26.84423828 C105.95984619 26.15313965 106.50294434 25.46204102 107.0625 24.75 C107.62815674 24.04214355 108.19381348 23.33428711 108.77661133 22.60498047 C110.52656323 20.41014212 112.26508269 18.20673619 114 16 C114.81452637 14.96504395 114.81452637 14.96504395 115.64550781 13.90917969 C118.61619871 10.13160127 118.61619871 10.13160127 121.57250977 6.34277344 C123.30355515 4.11992011 125.00546942 1.99453058 127 0 C129.5942688 -0.24050903 129.5942688 -0.24050903 132.91845703 -0.22705078 C134.15959259 -0.22689972 135.40072815 -0.22674866 136.67947388 -0.22659302 C138.0389217 -0.216379 139.3983679 -0.205947 140.7578125 -0.1953125 C142.14500729 -0.19158284 143.53220471 -0.18873565 144.91940308 -0.18673706 C148.57240051 -0.17909684 152.22523917 -0.15944516 155.87817383 -0.1373291 C159.60495862 -0.11687896 163.33176904 -0.10773713 167.05859375 -0.09765625 C174.37246825 -0.07619951 181.68621189 -0.04205903 189 0 C186.18121287 4.26845969 183.24104658 8.36928779 180.0625 12.375 C179.58941406 12.97441406 179.11632813 13.57382812 178.62890625 14.19140625 C174.41503407 19.5136146 170.12983423 24.77712985 165.83813477 30.03662109 C161.89165275 34.88026964 158.01750494 39.77531514 154.17285156 44.69995117 C150.04448842 49.97433233 145.8172548 55.16576085 141.58325195 60.35546875 C137.65021309 65.18219039 133.77980622 70.05189004 130 75 C131.35744869 77.91616587 132.91744175 80.34662063 134.90625 82.87109375 C135.76669922 83.969375 135.76669922 83.969375 136.64453125 85.08984375 C137.25683594 85.86457031 137.86914062 86.63929687 138.5 87.4375 C139.78153462 89.07139139 141.06278338 90.70550702 142.34375 92.33984375 C143.28541016 93.53843018 143.28541016 93.53843018 144.24609375 94.76123047 C146.51677923 97.65964164 148.76048369 100.57743122 151 103.5 C154.97899021 108.6831583 158.98541737 113.84436864 163 119 C168.23202849 125.72069765 173.44806256 132.45271595 178.62841797 139.21337891 C180.25017447 141.32587696 181.8772179 143.43426626 183.50390625 145.54296875 C184.71103908 147.11190102 185.91807117 148.6809108 187.125 150.25 C187.70644775 151.00224854 188.28789551 151.75449707 188.88696289 152.52954102 C189.68928345 153.57452759 189.68928345 153.57452759 190.5078125 154.640625 C190.98879395 155.26485352 191.46977539 155.88908203 191.96533203 156.53222656 C193 158 193 158 193 159 C184.04647365 159.27912849 175.09446299 159.49178574 166.13752174 159.62174606 C161.97731578 159.68415273 157.82010361 159.76864051 153.66162109 159.90527344 C149.64129089 160.036527 145.6238214 160.1075773 141.60151291 160.13852692 C140.07422212 160.16055213 138.54707302 160.20357106 137.02101517 160.26876068 C125.40431129 160.74485822 125.40431129 160.74485822 121.37790871 157.82281494 C118.02244126 154.60664649 115.51577371 150.90039732 113 147 C112.06539413 145.79064793 111.11931276 144.58988487 110.15234375 143.40625 C109.42144531 142.4471875 108.69054688 141.488125 107.9375 140.5 C107.53611816 139.97446533 107.13473633 139.44893066 106.72119141 138.9074707 C102.44555576 133.29831163 98.21704089 127.65327946 94 122 C90.06862674 123.31045775 88.58412154 125.80551749 86.1875 129 C85.21288468 130.2710267 84.23622176 131.54048523 83.2578125 132.80859375 C82.73606445 133.48519043 82.21431641 134.16178711 81.67675781 134.85888672 C78.70782528 138.65002509 75.63380514 142.35418043 72.5625 146.0625 C71.39706101 147.46999048 70.23169275 148.87753952 69.06640625 150.28515625 C68.57084229 150.88207275 68.07527832 151.47898926 67.56469727 152.09399414 C65.89931528 154.05687573 65.89931528 154.05687573 64.28630066 156.58364868 C62 159 62 159 59.16522217 159.60127258 C58.07268127 159.59016953 56.98014038 159.57906647 55.85449219 159.56762695 C54.61350769 159.5672493 53.37252319 159.56687164 52.09393311 159.56648254 C50.74490349 159.54095137 49.39588416 159.51487142 48.046875 159.48828125 C46.66254962 159.47895131 45.27820768 159.47183604 43.89385986 159.46684265 C40.25693882 159.4477863 36.62102226 159.39869979 32.98449707 159.34332275 C29.27105294 159.29209934 25.55744588 159.26932217 21.84375 159.24414062 C14.56204293 159.19057756 7.28116241 159.10528397 0 159 C2.22556758 155.6011043 4.45726425 152.30269083 7.06640625 149.1875 C7.62884033 148.51154785 8.19127441 147.8355957 8.77075195 147.13916016 C9.36202881 146.4332373 9.95330566 145.72731445 10.5625 145 C15.05270482 139.59676148 19.49293298 134.16576933 23.8125 128.625 C28.45403168 122.67602986 33.20720826 116.82803476 38 111 C41.8165848 106.34568919 45.61183848 101.67501049 49.38671875 96.98681641 C50.94867196 95.06321241 52.5342927 93.1615616 54.125 91.26171875 C55.06324877 90.11259012 56.00078877 88.9628823 56.9375 87.8125 C58.18853516 86.30623047 58.18853516 86.30623047 59.46484375 84.76953125 C61.30493507 82.14343162 61.30493507 82.14343162 60.52734375 79.46875 C58.76896189 76.62655732 56.82602312 74.20549894 54.625 71.6875 C50.59273571 66.99060119 46.80670053 62.16345432 43.125 57.1875 C38.6607437 51.16664693 34.06854252 45.27346297 29.36425781 39.4387207 C24.47486381 33.36865827 19.73027865 27.19463431 15 21 C13.23104896 18.68605259 11.45974657 16.37392387 9.6875 14.0625 C8.51767578 12.53302734 8.51767578 12.53302734 7.32421875 10.97265625 C5.65837633 8.84205779 3.9693961 6.79217147 2.20703125 4.74609375 C0 2 0 2 0 0 Z " fill="#FF0101" transform="translate(1373,41)"/>
<path d="M0 0 C14.375625 -0.061875 28.75125 -0.12375 43.5625 -0.1875 C48.07236572 -0.21481201 52.58223145 -0.24212402 57.22875977 -0.27026367 C62.8104248 -0.28381348 62.8104248 -0.28381348 65.43785095 -0.28633118 C67.24138115 -0.29088541 69.04490323 -0.30132509 70.84837341 -0.31672668 C91.33707561 -0.48268614 111.07625208 1.5927995 127 16 C138.64402977 29.2487532 140.78716996 41.47156929 140.17919922 58.52197266 C139.81724749 63.52716346 138.40660661 67.6366198 136 72 C135.57589844 72.77085938 135.15179687 73.54171875 134.71484375 74.3359375 C127.32081572 86.40529801 116.44382922 94.79866343 102.79199219 98.61767578 C98.23048646 99.67475779 93.63806671 100.3600843 89 101 C87.35 101.33 85.7 101.66 84 102 C75.09 102 66.18 102 57 102 C57 120.81 57 139.62 57 159 C38.19 159 19.38 159 0 159 C0 106.53 0 54.06 0 0 Z " fill="#093874" transform="translate(1038,41)"/>
<path d="M0 0 C0.98731625 -0.00644889 1.9746325 -0.01289778 2.99186742 -0.0195421 C4.08445163 -0.01644489 5.17703583 -0.01334769 6.30272865 -0.01015663 C7.45726056 -0.01468774 8.61179246 -0.01921886 9.80131018 -0.02388728 C13.01575711 -0.03439207 16.23006412 -0.03585124 19.44452286 -0.03349853 C22.90746237 -0.03309156 26.3703681 -0.04411802 29.83329201 -0.05361366 C36.62160033 -0.07025092 43.40987393 -0.07572444 50.19820093 -0.07683842 C55.71442901 -0.07778763 61.23064559 -0.08189158 66.74687004 -0.08823967 C82.37531746 -0.10585976 98.00373738 -0.11507738 113.6321948 -0.11357872 C114.89690187 -0.11345885 114.89690187 -0.11345885 116.18715858 -0.11333656 C117.45340419 -0.11321392 117.45340419 -0.11321392 118.74523051 -0.1130888 C132.42885163 -0.11227575 146.11236272 -0.1314162 159.79595201 -0.1596133 C173.83531657 -0.18831597 187.87462742 -0.20215503 201.91402209 -0.20042574 C209.80043724 -0.19976092 217.68673706 -0.20529346 225.57312584 -0.22678185 C232.28761296 -0.24495934 239.00193248 -0.24936943 245.71643351 -0.235763 C249.14381129 -0.22921573 252.57086721 -0.2291787 255.99821472 -0.2464695 C259.71044381 -0.26180285 263.42181807 -0.25269189 267.13402748 -0.23720741 C268.22215024 -0.24749454 269.31027301 -0.25778167 270.43136919 -0.26838052 C277.68318995 -0.20117936 277.68318995 -0.20117936 281.04460526 2.1260643 C282.34536171 4.25726891 282.34536171 4.25726891 282.36879921 6.85101891 C281.07096033 9.90242635 279.95237857 10.40619331 276.97036171 11.75726891 C272.90565531 13.61088094 271.11479294 15.09263199 269.34536171 19.25726891 C268.73796821 22.82616812 268.46879144 26.39773113 268.22036171 30.00726891 C268.07564803 31.91901277 267.92740661 33.83049402 267.77504921 35.74164391 C267.7155912 36.58436852 267.65613319 37.42709312 267.59487343 38.29535484 C267.34536171 40.25726891 267.34536171 40.25726891 266.34536171 41.25726891 C264.98062152 41.35457142 263.61088217 41.38282295 262.24267769 41.38311005 C261.35303747 41.38571779 260.46339725 41.38832554 259.54679823 41.39101231 C258.55820138 41.38878159 257.56960452 41.38655087 256.55105019 41.38425255 C254.98886812 41.38659253 254.98886812 41.38659253 253.39512682 41.38897979 C249.87657128 41.3929947 246.35805826 41.38979826 242.83950233 41.38666344 C240.32869377 41.38801726 237.8178854 41.38979708 235.30707741 41.3919735 C229.17804205 41.39607396 223.04902266 41.39545449 216.91998708 41.39256085 C211.94099411 41.39030703 206.96200458 41.38999421 201.98301125 41.39108467 C201.27571834 41.3912379 200.56842544 41.39139114 199.83969942 41.39154901 C198.40307168 41.39186872 196.96644394 41.39219294 195.52981621 41.3925216 C182.04276781 41.39537656 168.5557262 41.39208914 155.06867892 41.38672124 C143.48365702 41.38225319 131.89864514 41.38302911 120.31362343 41.38764 C106.87647508 41.3929855 93.4393327 41.39510186 80.00218344 41.39202774 C78.57069302 41.39170917 77.1392026 41.3913948 75.70771217 41.39108467 C75.00329976 41.3909304 74.29888734 41.39077612 73.57312909 41.39061717 C68.59724689 41.38975194 63.62136845 41.39121502 58.64548683 41.39356422 C51.95449831 41.39665357 45.26353173 41.39446983 38.5725441 41.38866997 C36.10897605 41.38734162 33.64540642 41.38773774 31.18183899 41.38993263 C27.8344284 41.3926412 24.48707981 41.38926661 21.13967323 41.38425255 C20.15107638 41.38648327 19.16247952 41.38871399 18.14392519 41.39101231 C17.25428497 41.38840456 16.36464475 41.38579682 15.44804573 41.38311005 C14.28748421 41.38286652 14.28748421 41.38286652 13.103477 41.38261807 C11.34536171 41.25726891 11.34536171 41.25726891 10.34536171 40.25726891 C10.15539263 38.91540315 10.02241488 37.5653362 9.91567421 36.21430016 C9.84219765 35.38736656 9.76872108 34.56043297 9.69301796 33.70844078 C9.54627122 31.96936316 9.40550179 30.2297693 9.27114296 28.48969078 C8.73906537 22.65938291 7.68456782 18.23992426 3.98208046 13.51898766 C1.84364021 11.8705003 -0.31931262 11.01992403 -2.84213829 10.06976891 C-3.74319298 9.72558922 -4.64424767 9.38140953 -5.57260704 9.02680016 C-6.25967735 8.77285484 -6.94674767 8.51890953 -7.65463829 8.25726891 C-6.88023201 2.32015405 -6.25935875 0.01029286 0 0 Z " fill="#040404" transform="translate(64.65463829040527,171.74273109436035)"/>
<path d="M0 0 C4.52705332 4.36354801 7.8092962 8.32173345 8.265625 14.73046875 C8.2745403 16.21612821 8.26844354 17.70192827 8.25 19.1875 C8.24250732 19.98414062 8.23501465 20.78078125 8.22729492 21.6015625 C7.84986447 42.95695719 2.12374479 60.81605642 -5 81 C-35.03 81 -65.06 81 -96 81 C-96 80.01 -96 79.02 -96 78 C-100.62 78 -105.24 78 -110 78 C-109.360625 77.154375 -108.72125 76.30875 -108.0625 75.4375 C-104.67955297 69.67573157 -105.16756224 62.50979311 -105 56 C-106.32 56 -107.64 56 -109 56 C-108.97679688 56.97582031 -108.95359375 57.95164062 -108.9296875 58.95703125 C-108.90261719 60.86548828 -108.90261719 60.86548828 -108.875 62.8125 C-108.85179688 64.07707031 -108.82859375 65.34164062 -108.8046875 66.64453125 C-109 70 -109 70 -111 73 C-111.99 73 -112.98 73 -114 73 C-114 71.02 -114 69.04 -114 67 C-113.34 67 -112.68 67 -112 67 C-112 62.38 -112 57.76 -112 53 C-114.31 52.67 -116.62 52.34 -119 52 C-119 45.73 -119 39.46 -119 33 C-120.32 32.67 -121.64 32.34 -123 32 C-122.11957031 31.96261719 -121.23914063 31.92523438 -120.33203125 31.88671875 C-118.58986328 31.78810547 -118.58986328 31.78810547 -116.8125 31.6875 C-115.66394531 31.62949219 -114.51539062 31.57148437 -113.33203125 31.51171875 C-109.79348183 30.96828384 -107.84902986 30.13044684 -105 28 C-102.86572922 24.79859383 -102.45687278 22.8007695 -101.75 19.0625 C-99.76368715 10.03838833 -95.92434739 -0.58272343 -88.21875 -6.328125 C-68.15080785 -17.09183943 -19.29858718 -12.74435003 0 0 Z " fill="#FDFDFD" transform="translate(220,90)"/>
<path d="M0 0 C18.81 0 37.62 0 57 0 C57 52.47 57 104.94 57 159 C38.19 159 19.38 159 0 159 C0 106.53 0 54.06 0 0 Z " fill="#EE1C2F" transform="translate(455,41)"/>
<path d="M0 0 C29.7 0 59.4 0 90 0 C90 13.86 90 27.72 90 42 C60.3 42 30.6 42 0 42 C0 28.14 0 14.28 0 0 Z " fill="#0B3A75" transform="translate(1193,116)"/>
<path d="M0 0 C4.16719676 1.36380985 5.16024127 2.41627449 7.4375 6.125 C7.81986973 9.07265891 7.97539779 11.64119481 7.93920898 14.58374023 C7.94461197 15.42339325 7.95001495 16.26304626 7.95558167 17.12814331 C7.96806383 19.89698808 7.95158016 22.66479189 7.93359375 25.43359375 C7.93374876 27.36263585 7.93523815 29.29167826 7.93800354 31.22071838 C7.93938735 35.26162502 7.92683348 39.30217666 7.90405273 43.34301758 C7.87568732 48.5158935 7.87840055 53.6881788 7.89114285 58.86109829 C7.89810751 62.84431477 7.8903014 66.82739542 7.87788582 70.81059456 C7.87337764 72.71752463 7.87302898 74.62446931 7.87695122 76.53140068 C7.87987066 79.20019132 7.86332093 81.86817652 7.84155273 84.53686523 C7.84605438 85.32095261 7.85055603 86.10503998 7.85519409 86.91288757 C7.78823224 91.86881355 7.14522131 96.41727869 3.4375 100.125 C-3.67620262 100.82470845 -3.67620262 100.82470845 -6.9375 98.25 C-12.90381069 86.77632559 -11.71550862 71.72270968 -11.5625 59.125 C-12.5525 59.125 -13.5425 59.125 -14.5625 59.125 C-14.5625 52.525 -14.5625 45.925 -14.5625 39.125 C-13.5725 39.125 -12.5825 39.125 -11.5625 39.125 C-11.57821045 38.4858667 -11.5939209 37.8467334 -11.61010742 37.18823242 C-11.6733263 34.22974877 -11.7117618 31.27140796 -11.75 28.3125 C-11.78770508 26.80526367 -11.78770508 26.80526367 -11.82617188 25.26757812 C-11.90654516 16.93554771 -11.15416102 8.86851037 -6.3125 1.875 C-3.5625 0.125 -3.5625 0.125 0 0 Z " fill="#050505" transform="translate(319.5625,15.875)"/>
<path d="M0 0 C2.3125 0.0625 2.3125 0.0625 5 1 C10.17099141 9.8645567 9.15910278 20.8301229 9.16796875 30.765625 C9.17129715 32.07601746 9.17462555 33.38640991 9.17805481 34.73651123 C9.1840093 37.49996769 9.18589856 40.26339306 9.18530273 43.02685547 C9.18520141 46.53077582 9.19883957 50.03449221 9.21607494 53.53836441 C9.23001133 56.92662008 9.22928738 60.31484118 9.23046875 63.703125 C9.23765427 64.94209534 9.24483978 66.18106567 9.25224304 67.45758057 C9.19647969 89.04849431 9.19647969 89.04849431 4 95 C2.1875 94.8125 2.1875 94.8125 0 94 C-3.30415975 89.82316486 -3.42913565 85.92345508 -3.38818359 80.80078125 C-3.39344055 79.98878265 -3.39869751 79.17678406 -3.40411377 78.34017944 C-3.41728528 75.66408889 -3.40858591 72.98859629 -3.3984375 70.3125 C-3.40045906 68.44832241 -3.40337118 66.58414559 -3.40713501 64.7199707 C-3.4115545 60.81616677 -3.40513937 56.912569 -3.39111328 53.00878906 C-3.37402163 48.00846445 -3.38386482 43.00862293 -3.40183067 38.00831604 C-3.41267863 34.15983449 -3.40921752 30.3114672 -3.4014473 26.46298218 C-3.39944809 24.6194147 -3.40189475 22.7758368 -3.40888596 20.93228149 C-3.41651708 18.35431494 -3.40487323 15.77712739 -3.38818359 13.19921875 C-3.39425629 12.43958832 -3.40032898 11.67995789 -3.40658569 10.89730835 C-3.35298117 6.42088408 -2.68020535 3.60974449 0 0 Z " fill="#080808" transform="translate(332,20)"/>
<path d="M0 0 C18.37837838 0 18.37837838 0 24 4 C29.16528545 9.5626151 29.2884858 13.37148622 29.21484375 20.79296875 C28.86590459 26.00167881 27.35843844 28.71305832 23.625 32.25 C15.4154291 37.72304727 11.29927431 36 0 36 C0 24.12 0 12.24 0 0 Z " fill="#FCFCFD" transform="translate(1095,74)"/>
<path d="M0 0 C0.66 0 1.32 0 2 0 C4.28527759 6.35139309 6.56318317 12.70539426 8.8359375 19.0612793 C9.61027486 21.22399964 10.38630949 23.38611306 11.1640625 25.54760742 C12.28049371 28.65125772 13.39084 31.7570262 14.5 34.86328125 C14.84998047 35.83211746 15.19996094 36.80095367 15.56054688 37.79914856 C15.88087891 38.6998558 16.20121094 39.60056305 16.53125 40.52856445 C16.81548828 41.32132278 17.09972656 42.11408112 17.39257812 42.93086243 C18 45 18 45 18 48 C6.45 48 -5.1 48 -17 48 C-15.03825303 41.46084343 -13.02319264 35.08888581 -10.64453125 28.7109375 C-10.18478157 27.46698715 -10.18478157 27.46698715 -9.71574402 26.19790649 C-8.75085873 23.58920019 -7.78176277 20.98208258 -6.8125 18.375 C-6.15141159 16.58994784 -5.49060188 14.80479243 -4.83007812 13.01953125 C-3.22326544 8.67848956 -1.61267859 4.33886577 0 0 Z " fill="#F4F6F9" transform="translate(924,95)"/>
<path d="M0 0 C2.0625 0.4375 2.0625 0.4375 4 1 C4 1.66 4 2.32 4 3 C3.01 3 2.02 3 1 3 C3.27330457 7.42031443 6.12778052 9.93449291 10 13 C11.01680311 13.98290968 12.02738219 14.97334787 13 16 C13.28875 15.05125 13.5775 14.1025 13.875 13.125 C15 10 15 10 17 8 C20.125 7.875 20.125 7.875 23 8 C23.495 10.475 23.495 10.475 24 13 C23.34 13.33 22.68 13.66 22 14 C22 12.68 22 11.36 22 10 C18.75016865 11.08784968 18.75016865 11.08784968 16 13 C16.42551068 18.35603121 17.86690924 22.6235017 20.0625 27.4375 C20.48499023 28.39172852 20.48499023 28.39172852 20.91601562 29.36523438 C21.60289812 30.91363051 22.30034407 32.45733357 23 34 C23.66 33.01 24.32 32.02 25 31 C26.65 31.33 28.3 31.66 30 32 C30.495 34.475 30.495 34.475 31 37 C29.68 36.01 28.36 35.02 27 34 C24.53655844 39.32719237 24.20371367 44.7272581 23.5625 50.50390625 C23.07953424 53.50567258 22.56261227 55.44122241 21 58 C22.98 58 24.96 58 27 58 C28.125 61.75 28.125 61.75 27 64 C26.34 64 25.68 64 25 64 C25.33 62.68 25.66 61.36 26 60 C20.55346812 61.74140815 18.8211813 64.20376905 16.2265625 69.16015625 C13.18606399 77.09333468 13.9844883 86.62700564 14 95 C13.67 95 13.34 95 13 95 C12.78085937 93.96101563 12.56171875 92.92203125 12.3359375 91.8515625 C9.73111039 79.470551 9.73111039 79.470551 3 69 C0.175079 67.63343172 -1.82376786 67.32857574 -5 67 C-5 67.99 -5 68.98 -5 70 C-4.34 70.33 -3.68 70.66 -3 71 C-4.65 70.67 -6.3 70.34 -8 70 C-8 69.01 -8 68.02 -8 67 C-5.5 65.3125 -5.5 65.3125 -3 64 C-3.495 63.505 -3.495 63.505 -4 63 C-4.04063832 61.33382885 -4.042721 59.66611905 -4 58 C-2.68 58 -1.36 58 0 58 C0 58.99 0 59.98 0 61 C-0.66 60.67 -1.32 60.34 -2 60 C0.58590343 63.50944037 1.9915966 64.9957983 6 67 C6.66 63.7 7.32 60.4 8 57 C10.475 56.505 10.475 56.505 13 56 C13.495 57.98 13.495 57.98 14 60 C13.34 60 12.68 60 12 60 C12 59.34 12 58.68 12 58 C11.01 58.66 10.02 59.32 9 60 C9.33 64.29 9.66 68.58 10 73 C10.66 73 11.32 73 12 73 C16.34258945 55.6786333 16.34258945 55.6786333 12 39 C11.01 38.34 10.02 37.68 9 37 C9 37.99 9 38.98 9 40 C7.515 39.505 7.515 39.505 6 39 C6.33 37.35 6.66 35.7 7 34 C10.37462715 34.54723683 12.08235 35.0549 15 37 C14.66226563 36.32453125 14.32453125 35.6490625 13.9765625 34.953125 C10 27 10 27 8.953125 24.7421875 C7.68771957 22.42919233 6.40753759 21.99133901 4 21 C3.38125 20.62875 2.7625 20.2575 2.125 19.875 C-0.65367042 18.73084159 -3.02626695 18.86483032 -6 19 C-6 19.99 -6 20.98 -6 22 C-5.01 22 -4.02 22 -3 22 C-3 22.99 -3 23.98 -3 25 C-5.16874252 24.49396008 -6.99967627 24.00016187 -9 23 C-9.042721 21.33388095 -9.04063832 19.66617115 -9 18 C-8 17 -8 17 -4.4375 16.9375 C-3.303125 16.958125 -2.16875 16.97875 -1 17 C-1 16.34 -1 15.68 -1 15 C-2.11375 14.566875 -2.11375 14.566875 -3.25 14.125 C-6 13 -6 13 -7.9375 11.875 C-10.78079896 10.66875196 -12.94490118 10.67498949 -16 11 C-17.98029682 12.06345052 -17.98029682 12.06345052 -19 14 C-19.50014953 16.54258463 -19.50014953 16.54258463 -19 19 C-18.01 19.66 -17.02 20.32 -16 21 C-16 21.66 -16 22.32 -16 23 C-20.875 21.125 -20.875 21.125 -22 20 C-22.57139454 15.90500581 -22.10549747 14.18132377 -20 10.5625 C-17 8 -17 8 -13.3125 7.8125 C-5.10999937 9.63698145 1.2196776 13.83671942 7.375 19.375 C7.87483398 19.82085449 8.37466797 20.26670898 8.88964844 20.72607422 C14.94987592 26.42416117 18.73955459 33.5234809 19.07714844 41.91845703 C19.16468463 46.61445362 19.10256646 51.30473516 19 56 C21.78982438 47.63052686 21.1666758 37.17897163 17.3125 29.3125 C14.91165152 25.15521129 12.19333043 21.56901636 9 18 C9 17.34 9 16.68 9 16 C6.47114134 13.44856225 3.83360215 11.03473753 1.1875 8.60546875 C-1 6 -1 6 -1.375 3.23828125 C-1 1 -1 1 0 0 Z " fill="#E4E4E4" transform="translate(247,56)"/>
<path d="M0 0 C1.32 0 2.64 0 4 0 C4.08139142 2.39652528 4.14067009 4.79025436 4.1875 7.1875 C4.21263672 7.86103516 4.23777344 8.53457031 4.26367188 9.22851562 C4.32931539 13.71415591 3.68855807 16.40396893 1 20 C0.505 20.495 0.505 20.495 0 21 C4.29 21.33 8.58 21.66 13 22 C13 22.99 13 23.98 13 25 C43.03 25 73.06 25 104 25 C104.33 24.01 104.66 23.02 105 22 C105 22.66 105 23.32 105 24 C106.32802391 23.99666908 106.32802391 23.99666908 107.68287659 23.99327087 C118.97607559 23.96627274 130.2692737 23.94818867 141.5625 23.9375 C142.46056995 23.93664398 143.35863991 23.93578796 144.2839241 23.93490601 C173.20224269 23.91054577 202.09255752 24.13303036 231 25 C231 25.33 231 25.66 231 26 C138.27 26 45.54 26 -50 26 C-50 25.67 -50 25.34 -50 25 C-41.75 25 -33.5 25 -25 25 C-25 24.01 -25 23.02 -25 22 C-21.04 22 -17.08 22 -13 22 C-12.34 20.68 -11.68 19.36 -11 18 C-10.01 18 -9.02 18 -8 18 C-8.495 13.545 -8.495 13.545 -9 9 C-7.02 9 -5.04 9 -3 9 C-3 9.66 -3 10.32 -3 11 C-3.66 11 -4.32 11 -5 11 C-5 12.98 -5 14.96 -5 17 C-4.01 16.67 -3.02 16.34 -2 16 C-0.5192152 13.0384304 -0.64685963 10.16493705 -0.4375 6.875 C-0.35371094 5.59367188 -0.26992187 4.31234375 -0.18359375 2.9921875 C-0.09271484 1.51105469 -0.09271484 1.51105469 0 0 Z " fill="#B2B2B2" transform="translate(111,146)"/>
<path d="M0 0 C2.48735812 0.85502935 3.7113714 1.53391587 5.10783386 3.78895569 C6.10258469 6.25423438 6.2595931 8.03747036 6.2746582 10.68920898 C6.28419022 11.61374374 6.29372223 12.5382785 6.30354309 13.49082947 C6.30263168 14.48256668 6.30172028 15.47430389 6.30078125 16.49609375 C6.30506638 17.5217897 6.3093515 18.54748566 6.31376648 19.60426331 C6.31950583 21.7720567 6.32001296 23.93986936 6.31567383 26.10766602 C6.31251504 29.42172144 6.33597446 32.73488312 6.36132812 36.04882812 C6.36360129 38.15624887 6.36430454 40.26367202 6.36328125 42.37109375 C6.372491 43.36080673 6.38170074 44.35051971 6.39118958 45.370224 C6.35743544 50.39740776 6.29141382 53.91007429 3 58 C0.625 57.75 0.625 57.75 -2 57 C-3.9341403 54.05626459 -4.2521382 51.67975698 -4.25878906 48.203125 C-4.26509338 47.2553418 -4.27139771 46.30755859 -4.27789307 45.33105469 C-4.2738446 44.31430664 -4.26979614 43.29755859 -4.265625 42.25 C-4.26753845 41.19973633 -4.2694519 40.14947266 -4.27142334 39.06738281 C-4.27278347 36.84830485 -4.26909903 34.62921889 -4.26074219 32.41015625 C-4.25004044 29.01283908 -4.26064349 25.61605072 -4.2734375 22.21875 C-4.27211588 20.06249883 -4.26955342 17.90624799 -4.265625 15.75 C-4.26967346 14.73325195 -4.27372192 13.71650391 -4.27789307 12.66894531 C-4.27158875 11.72116211 -4.26528442 10.77337891 -4.25878906 9.796875 C-4.25719788 8.96510742 -4.25560669 8.13333984 -4.25396729 7.27636719 C-3.97223281 4.75111629 -3.34893566 3.14439709 -2 1 C-1.34 0.67 -0.68 0.34 0 0 Z " fill="#080808" transform="translate(297,35)"/>
<path d="M0 0 C3.39488422 2.05107588 4.80323081 3.70484621 7 7 C7.61043233 11.23338782 7.45876307 14.94484493 5.75 18.875 C3.35425145 21.78412324 1.38796225 23.74948974 -2.40234375 24.43359375 C-6.63524639 24.44011594 -9.27798326 24.42117643 -13 22.25 C-16.54999478 18.25625587 -17.45745032 15.52449009 -17.32421875 10.03125 C-16.79002404 6.68448796 -15.13123774 4.55748529 -13 2 C-8.7609119 -0.82605874 -4.97875497 -0.66012246 0 0 Z " fill="#060606" transform="translate(113,57)"/>
<path d="M0 0 C6.6 0 13.2 0 20 0 C20 7.92 20 15.84 20 24 C13.4 23.34 6.8 22.68 0 22 C0 14.74 0 7.48 0 0 Z " fill="#030303" transform="translate(248,17)"/>
<path d="M0 0 C4.47725717 1.59902042 6.86545922 4.45294302 9 8.625 C10.29285566 15.47713502 9.33180977 22.01389846 5.921875 28.1171875 C2.19168859 33.35293107 -2.14753523 36.36820728 -8.375 37.9375 C-11.85783407 38.28825763 -15.31382493 38.35293407 -18.8125 38.375 C-19.72837891 38.40787109 -20.64425781 38.44074219 -21.58789062 38.47460938 C-27.14551272 38.51849584 -30.6185033 37.83405073 -35.02587891 34.37597656 C-38.8231912 30.32715933 -39.55150751 25.24165811 -39.8125 19.875 C-39.62122901 13.95470741 -37.62215235 10.33962838 -33.5625 6 C-30.25183787 4.39196411 -28.00938566 4.43620543 -24.375 4.9375 C-20.77299711 7.00516453 -17.49060477 9.84694916 -16.375 13.9375 C-16.5625 17.0625 -16.5625 17.0625 -17.375 19.9375 C-21.44349409 22.64982939 -23.53976784 22.24449887 -28.375 21.9375 C-30.375 19.9375 -30.375 19.9375 -30.5 16.8125 C-30.45875 15.86375 -30.4175 14.915 -30.375 13.9375 C-29.055 13.6075 -27.735 13.2775 -26.375 12.9375 C-27.035 13.5975 -27.695 14.2575 -28.375 14.9375 C-28.05458603 17.54030568 -28.05458603 17.54030568 -27.375 19.9375 C-23.03315798 19.75285634 -23.03315798 19.75285634 -19.375 17.9375 C-19.60863648 13.07821329 -19.60863648 13.07821329 -22 9 C-25.35182053 7.50050134 -27.74480218 7.48372527 -31.375 7.9375 C-33.73997439 9.80458505 -35.03530715 11.25811431 -36.375 13.9375 C-36.52401491 16.03803716 -36.59638453 18.14437825 -36.625 20.25 C-36.65078125 21.38050781 -36.6765625 22.51101562 -36.703125 23.67578125 C-36.34466225 27.23907168 -35.55296356 29.11989181 -33.375 31.9375 C-32.715 31.9375 -32.055 31.9375 -31.375 31.9375 C-31.045 30.2875 -30.715 28.6375 -30.375 26.9375 C-28.725 26.9375 -27.075 26.9375 -25.375 26.9375 C-25.375 27.9275 -25.375 28.9175 -25.375 29.9375 C-26.035 29.6075 -26.695 29.2775 -27.375 28.9375 C-26.25645414 32.66364153 -26.25645414 32.66364153 -23.375 34.9375 C-20.41711431 35.3542552 -20.41711431 35.3542552 -17.375 34.9375 C-15.40401574 33.2265789 -15.40401574 33.2265789 -14.375 30.9375 C-14.375 29.9475 -14.375 28.9575 -14.375 27.9375 C-15.035 27.6075 -15.695 27.2775 -16.375 26.9375 C-16.375 26.2775 -16.375 25.6175 -16.375 24.9375 C-14.725 25.2675 -13.075 25.5975 -11.375 25.9375 C-10.75 27.75 -10.75 27.75 -10.375 29.9375 C-11.035 30.9275 -11.695 31.9175 -12.375 32.9375 C-7.52457612 32.52174938 -5.53180495 30.52090022 -2.375 26.9375 C-1.715 25.9475 -1.055 24.9575 -0.375 23.9375 C-1.25 29.6875 -1.25 29.6875 -2.375 31.9375 C3.22117843 28.08235486 5.25245985 24.5828819 6.625 17.9375 C7.16314369 12.64575368 6.37428797 9.48439933 3.625 4.9375 C2.965 4.2775 2.305 3.6175 1.625 2.9375 C-1.39924622 3.09258955 -2.92047475 3.52999461 -5.1875 5.5625 C-6.82551861 8.83853721 -6.70355786 11.32336357 -6.375 14.9375 C-5.715 15.9275 -5.055 16.9175 -4.375 17.9375 C-3.385 17.6075 -2.395 17.2775 -1.375 16.9375 C-1.375 15.6175 -1.375 14.2975 -1.375 12.9375 C-0.385 12.9375 0.605 12.9375 1.625 12.9375 C0.875 18.6875 0.875 18.6875 -1.375 20.9375 C-3.8125 20.9375 -3.8125 20.9375 -6.375 19.9375 C-9.0637247 15.95077027 -10.07048705 12.70655406 -9.375 7.9375 C-4.87674564 -0.12833541 -4.87674564 -0.12833541 0 0 Z " fill="#EAEAEA" transform="translate(272.375,128.0625)"/>
<path d="M0 0 C0.99 0 1.98 0 3 0 C3 28.05 3 56.1 3 85 C2.01 85 1.02 85 0 85 C0 65.53 0 46.06 0 26 C-1.32 26.33 -2.64 26.66 -4 27 C-4.33 27.66 -4.66 28.32 -5 29 C-6.65 28.67 -8.3 28.34 -10 28 C-10 25.69 -10 23.38 -10 21 C-8.68 20.34 -7.36 19.68 -6 19 C-5.34 19.66 -4.68 20.32 -4 21 C-2.68 21.33 -1.36 21.66 0 22 C0 14.74 0 7.48 0 0 Z " fill="#ACACAC" transform="translate(87,34)"/>
<path d="M0 0 C2.125 0.375 2.125 0.375 4 1 C3.01 1.66 2.02 2.32 1 3 C1 3.66 1 4.32 1 5 C7.25576149 5.19683812 12.42126388 4.60487366 18.4375 3 C29.72043669 0.27165638 42.88854277 -1.69024065 53.56640625 3.9296875 C55 5 55 5 56 7 C55.3709375 6.7834375 54.741875 6.566875 54.09375 6.34375 C48.55385299 4.54161483 43.8064615 3.01585398 38 4 C36.36308493 5.71364546 35.24576543 7.39398637 34.10546875 9.46875 C33.74066406 9.9740625 33.37585938 10.479375 33 11 C32.01 11 31.02 11 30 11 C30 10.34 30 9.68 30 9 C30.99 9 31.98 9 33 9 C33.33 7.35 33.66 5.7 34 4 C32.70590711 4.61996078 31.41480327 5.24616353 30.125 5.875 C29.40570313 6.22304688 28.68640625 6.57109375 27.9453125 6.9296875 C25.84864981 7.96557543 25.84864981 7.96557543 24 10 C23.35232207 12.57061311 23.35232207 12.57061311 23 15 C22.67 15 22.34 15 22 15 C21.6875 12.3125 21.6875 12.3125 22 9 C24.5 6.125 24.5 6.125 27 4 C25.53510951 4.56666546 24.07821997 5.15404228 22.625 5.75 C21.81289062 6.07484375 21.00078125 6.3996875 20.1640625 6.734375 C17.66684861 8.19483944 17.01755741 9.33869601 16 12 C16.66 12 17.32 12 18 12 C17.67 13.32 17.34 14.64 17 16 C16.01 15.67 15.02 15.34 14 15 C13.875 9.25 13.875 9.25 15 7 C13.2273959 7.61996001 11.45697333 8.24615993 9.6875 8.875 C8.70136719 9.22304687 7.71523437 9.57109375 6.69921875 9.9296875 C3.84405623 10.95305924 3.84405623 10.95305924 1 13 C1 13.99 1 14.98 1 16 C-0.65 16 -2.3 16 -4 16 C-3.67 14.35 -3.34 12.7 -3 11 C-4.43931117 11.45261358 -5.87638999 11.91232979 -7.3125 12.375 C-8.11300781 12.63023438 -8.91351563 12.88546875 -9.73828125 13.1484375 C-12.22724528 13.98831811 -12.22724528 13.98831811 -15 16 C-14.42655063 13.13275314 -14.1385485 12.1385485 -12 10 C-10.68 10 -9.36 10 -8 10 C-8 9.34 -8 8.68 -8 8 C-8.804375 7.731875 -9.60875 7.46375 -10.4375 7.1875 C-11.283125 6.795625 -12.12875 6.40375 -13 6 C-13.33 5.01 -13.66 4.02 -14 3 C-13.34 3.28875 -12.68 3.5775 -12 3.875 C-8.37500535 5.23437299 -4.76653307 6.10624639 -1 7 C-1.20625 6.21625 -1.4125 5.4325 -1.625 4.625 C-1.74875 3.75875 -1.8725 2.8925 -2 2 C-1.34 1.34 -0.68 0.68 0 0 Z " fill="#D1D1D1" transform="translate(185,57)"/>
<path d="M0 0 C2.75329021 1.79562405 4.52627461 3.05254922 6 6 C6.39447548 10.18144011 6.45035186 12.30946048 4.125 15.875 C1.39955109 18.60044891 0.56499391 18.94669869 -3.3125 19.3125 C-7.57536111 18.95124058 -9.01992054 17.98007946 -12 15 C-13.55024464 11.89951072 -13.28992015 9.42105782 -13 6 C-9.30920537 0.34078157 -6.6962915 -0.56748233 0 0 Z " fill="#3F3F3F" transform="translate(109,93)"/>
<path d="M0 0 C8.20250063 1.82448145 14.5321776 6.02421942 20.6875 11.5625 C21.18733398 12.00835449 21.68716797 12.45420898 22.20214844 12.91357422 C28.85546113 19.16930543 32.00232975 26.54627866 32.5 35.59765625 C32.6012764 41.61727253 32.48623901 46.51162592 30.3125 52.1875 C29.9825 52.1875 29.6525 52.1875 29.3125 52.1875 C29.25642578 50.79337891 29.25642578 50.79337891 29.19921875 49.37109375 C28.79008396 39.85825457 28.79008396 39.85825457 25.3125 31.1875 C24.3225 30.5275 23.3325 29.8675 22.3125 29.1875 C22.3125 30.1775 22.3125 31.1675 22.3125 32.1875 C21.3225 31.8575 20.3325 31.5275 19.3125 31.1875 C19.6425 29.5375 19.9725 27.8875 20.3125 26.1875 C23.68712715 26.73473683 25.39485 27.2424 28.3125 29.1875 C27.97476563 28.51203125 27.63703125 27.8365625 27.2890625 27.140625 C23.3125 19.1875 23.3125 19.1875 22.265625 16.9296875 C21.00021957 14.61669233 19.72003759 14.17883901 17.3125 13.1875 C16.69375 12.81625 16.075 12.445 15.4375 12.0625 C12.65882958 10.91834159 10.28623305 11.05233032 7.3125 11.1875 C7.3125 12.1775 7.3125 13.1675 7.3125 14.1875 C8.3025 14.1875 9.2925 14.1875 10.3125 14.1875 C10.3125 15.1775 10.3125 16.1675 10.3125 17.1875 C8.14375748 16.68146008 6.31282373 16.18766187 4.3125 15.1875 C4.269779 13.52138095 4.27186168 11.85367115 4.3125 10.1875 C5.3125 9.1875 5.3125 9.1875 8.875 9.125 C10.009375 9.145625 11.14375 9.16625 12.3125 9.1875 C12.3125 8.5275 12.3125 7.8675 12.3125 7.1875 C11.57 6.89875 10.8275 6.61 10.0625 6.3125 C7.3125 5.1875 7.3125 5.1875 5.375 4.0625 C2.53170104 2.85625196 0.36759882 2.86248949 -2.6875 3.1875 C-4.66779682 4.25095052 -4.66779682 4.25095052 -5.6875 6.1875 C-6.18764953 8.73008463 -6.18764953 8.73008463 -5.6875 11.1875 C-4.6975 11.8475 -3.7075 12.5075 -2.6875 13.1875 C-2.6875 13.8475 -2.6875 14.5075 -2.6875 15.1875 C-7.5625 13.3125 -7.5625 13.3125 -8.6875 12.1875 C-9.25889454 8.09250581 -8.79299747 6.36882377 -6.6875 2.75 C-3.6875 0.1875 -3.6875 0.1875 0 0 Z " fill="#DFDFDF" transform="translate(233.6875,63.8125)"/>
<path d="M0 0 C2.86307491 0.93216392 5.67588677 1.85871987 8.4375 3.0625 C11.58700951 4.21475958 14.6852518 4.5537839 18 5 C19 6 19 6 19.1875 9.4375 C19 13 19 13 17 15 C13.375 15.125 13.375 15.125 10 15 C9.67 14.01 9.34 13.02 9 12 C9 12.99 9 13.98 9 15 C9 15.99 9 16.98 9 18 C7.25 19.38671875 7.25 19.38671875 5 20.6875 C3.88625 21.34298828 3.88625 21.34298828 2.75 22.01171875 C1.88375 22.50091797 1.88375 22.50091797 1 23 C0.15199233 15.307359 -0.12152487 7.73708326 0 0 Z " fill="#191919" transform="translate(289,108)"/>
<path d="M0 0 C1.32 0 2.64 0 4 0 C4.08139142 2.39652528 4.14067009 4.79025436 4.1875 7.1875 C4.21263672 7.86103516 4.23777344 8.53457031 4.26367188 9.22851562 C4.32931539 13.71415591 3.68855807 16.40396893 1 20 C0.67 20.33 0.34 20.66 0 21 C4.29 21.33 8.58 21.66 13 22 C13 22.66 13 23.32 13 24 C0.46 24 -12.08 24 -25 24 C-25 23.34 -25 22.68 -25 22 C-21.04 22 -17.08 22 -13 22 C-12.34 20.68 -11.68 19.36 -11 18 C-10.01 18 -9.02 18 -8 18 C-8.33 15.03 -8.66 12.06 -9 9 C-7.02 9 -5.04 9 -3 9 C-3 9.66 -3 10.32 -3 11 C-3.66 11 -4.32 11 -5 11 C-5 12.98 -5 14.96 -5 17 C-4.01 16.67 -3.02 16.34 -2 16 C-0.5192152 13.0384304 -0.64685963 10.16493705 -0.4375 6.875 C-0.35371094 5.59367188 -0.26992187 4.31234375 -0.18359375 2.9921875 C-0.09271484 1.51105469 -0.09271484 1.51105469 0 0 Z " fill="#181818" transform="translate(111,146)"/>
<path d="M0 0 C1.67542976 0.28604898 3.34385343 0.61781233 5 1 C5 1.99 5 2.98 5 4 C4.34 4 3.68 4 3 4 C3 3.34 3 2.68 3 2 C2.01 2.66 1.02 3.32 0 4 C0.33 8.29 0.66 12.58 1 17 C1.66 17 2.32 17 3 17 C3.268125 15.741875 3.53625 14.48375 3.8125 13.1875 C4.61220631 9.94868944 5.30735391 8.10728825 8 6 C8.33 5.34 8.66 4.68 9 4 C9.99 4 10.98 4 12 4 C11.00003164 7.41655855 9.97683035 10.03421978 7.96875 13 C5.13399078 17.87054969 5.32883849 22.92955622 5.25 28.4375 C5.20552734 29.96407227 5.20552734 29.96407227 5.16015625 31.52148438 C5.08993327 34.01440028 5.03700355 36.50640699 5 39 C4.67 39 4.34 39 4 39 C3.78085937 37.96101563 3.56171875 36.92203125 3.3359375 35.8515625 C0.73111039 23.470551 0.73111039 23.470551 -6 13 C-8.824921 11.63343172 -10.82376786 11.32857574 -14 11 C-14 11.99 -14 12.98 -14 14 C-13.34 14.33 -12.68 14.66 -12 15 C-13.65 14.67 -15.3 14.34 -17 14 C-17 13.01 -17 12.02 -17 11 C-14.5 9.3125 -14.5 9.3125 -12 8 C-12.33 7.67 -12.66 7.34 -13 7 C-13.04063832 5.33382885 -13.042721 3.66611905 -13 2 C-11.68 2 -10.36 2 -9 2 C-9 2.99 -9 3.98 -9 5 C-9.66 4.67 -10.32 4.34 -11 4 C-8.56134348 7.30960527 -6.74020498 9.31847927 -3 11 C-2.86722656 10.28972656 -2.73445312 9.57945313 -2.59765625 8.84765625 C-2.42105469 7.92855469 -2.24445313 7.00945312 -2.0625 6.0625 C-1.88847656 5.14597656 -1.71445313 4.22945313 -1.53515625 3.28515625 C-1 1 -1 1 0 0 Z " fill="#E7E7E7" transform="translate(256,112)"/>
<path d="M0 0 C2.97 0 5.94 0 9 0 C9 5.61 9 11.22 9 17 C6.03 17.33 3.06 17.66 0 18 C0 12.06 0 6.12 0 0 Z " fill="#0E0E0E" transform="translate(199,27)"/>
<path d="M0 0 C1.66666667 3.33333333 3.33333333 6.66666667 5 10 C6.65 10 8.3 10 10 10 C10.9375 12.625 10.9375 12.625 11 16 C8.21611431 19.34066283 4.59125638 21.60582908 1 24 C-1.1875 23.625 -1.1875 23.625 -3 23 C-2.34 22.01 -1.68 21.02 -1 20 C-1.08571661 17.90708843 -1.08571661 17.90708843 -2 16 C-2.99 15.34 -3.98 14.68 -5 14 C-4.34 14 -3.68 14 -3 14 C-3 12.02 -3 10.04 -3 8 C-2.67 8 -2.34 8 -2 8 C-1.34 5.36 -0.68 2.72 0 0 Z " fill="#161616" transform="translate(262,138)"/>
<path d="M0 0 C2.125 0.375 2.125 0.375 4 1 C3.01 1.66 2.02 2.32 1 3 C1 3.66 1 4.32 1 5 C5.29 5.33 9.58 5.66 14 6 C10.95664473 9.04335527 9.78878538 9.60305853 5.8125 10.6875 C4.46091797 11.06455078 4.46091797 11.06455078 3.08203125 11.44921875 C2.39496094 11.63097656 1.70789063 11.81273438 1 12 C1 13.32 1 14.64 1 16 C-0.65 16 -2.3 16 -4 16 C-3.67 14.35 -3.34 12.7 -3 11 C-4.43931117 11.45261358 -5.87638999 11.91232979 -7.3125 12.375 C-8.11300781 12.63023438 -8.91351563 12.88546875 -9.73828125 13.1484375 C-12.22724528 13.98831811 -12.22724528 13.98831811 -15 16 C-14.42655063 13.13275314 -14.1385485 12.1385485 -12 10 C-10.68 10 -9.36 10 -8 10 C-8 9.34 -8 8.68 -8 8 C-8.804375 7.731875 -9.60875 7.46375 -10.4375 7.1875 C-11.283125 6.795625 -12.12875 6.40375 -13 6 C-13.33 5.01 -13.66 4.02 -14 3 C-13.34 3.28875 -12.68 3.5775 -12 3.875 C-8.37500535 5.23437299 -4.76653307 6.10624639 -1 7 C-1.20625 6.21625 -1.4125 5.4325 -1.625 4.625 C-1.74875 3.75875 -1.8725 2.8925 -2 2 C-1.34 1.34 -0.68 0.68 0 0 Z " fill="#E8E8E8" transform="translate(185,57)"/>
<path d="M0 0 C1.98 0 3.96 0 6 0 C6 3.3 6 6.6 6 10 C3.72135417 10.16276042 1.44270833 10.32552083 -0.8359375 10.48828125 C-3.37921338 10.82990528 -3.37921338 10.82990528 -5 14 C-7.4375 13.625 -7.4375 13.625 -10 13 C-11.50662097 9.98675805 -11.17770373 7.31713623 -11 4 C-10.34 3.34 -9.68 2.68 -9 2 C-6.4375 2.25 -6.4375 2.25 -4 3 C-3.67 3.66 -3.34 4.32 -3 5 C-2.01 5.33 -1.02 5.66 0 6 C0 4.02 0 2.04 0 0 Z " fill="#0F0F0F" transform="translate(102,144)"/>
<path d="M0 0 C0.33 0 0.66 0 1 0 C1 28.05 1 56.1 1 85 C0.67 85 0.34 85 0 85 C0 65.53 0 46.06 0 26 C-1.32 26.33 -2.64 26.66 -4 27 C-4.33 27.66 -4.66 28.32 -5 29 C-6.65 28.67 -8.3 28.34 -10 28 C-10 25.69 -10 23.38 -10 21 C-8.68 20.34 -7.36 19.68 -6 19 C-5.34 19.66 -4.68 20.32 -4 21 C-2.68 21.33 -1.36 21.66 0 22 C0 14.74 0 7.48 0 0 Z " fill="#111111" transform="translate(87,34)"/>
<path d="M0 0 C1.98 0 3.96 0 6 0 C5.67 2.31 5.34 4.62 5 7 C8.3 7 11.6 7 15 7 C15 8.32 15 9.64 15 11 C7.08 11 -0.84 11 -9 11 C-9 9.68 -9 8.36 -9 7 C-5.7 6.67 -2.4 6.34 1 6 C0.67 5.67 0.34 5.34 0 5 C-0.04063832 3.33382885 -0.042721 1.66611905 0 0 Z " fill="#0D0D0D" transform="translate(255,5)"/>
<path d="M0 0 C0.66 0 1.32 0 2 0 C7.83620497 7.78160663 7.73408273 17.69442191 7 27 C5.984375 30.4296875 5.984375 30.4296875 5 33 C4.67 33 4.34 33 4 33 C3.96261719 32.07058594 3.92523438 31.14117187 3.88671875 30.18359375 C3.47758396 20.67075457 3.47758396 20.67075457 0 12 C-0.99 11.34 -1.98 10.68 -3 10 C-3 10.99 -3 11.98 -3 13 C-3.99 12.67 -4.98 12.34 -6 12 C-5.67 10.35 -5.34 8.7 -5 7 C-1.62537285 7.54723683 0.08235 8.0549 3 10 C2.2575 8.3603125 2.2575 8.3603125 1.5 6.6875 C0 3 0 3 0 0 Z " fill="#E6E6E6" transform="translate(259,83)"/>
<path d="M0 0 C2.31 0 4.62 0 7 0 C7 5.94 7 11.88 7 18 C4.69 18 2.38 18 0 18 C0 12.06 0 6.12 0 0 Z " fill="#060606" transform="translate(101,124)"/>
<path d="M0 0 C4.47725717 1.59902042 6.86545922 4.45294302 9 8.625 C10.16972505 14.82454278 9.46588397 21.25573206 6.625 26.9375 C5.965 26.2775 5.305 25.6175 4.625 24.9375 C4.955 23.926875 5.285 22.91625 5.625 21.875 C7.05748502 16.76339879 7.32017668 12.61224381 5.25 7.625 C3.75120781 4.9042257 3.75120781 4.9042257 1.625 2.9375 C-1.39924622 3.09258955 -2.92047475 3.52999461 -5.1875 5.5625 C-6.82551861 8.83853721 -6.70355786 11.32336357 -6.375 14.9375 C-5.385 16.4225 -5.385 16.4225 -4.375 17.9375 C-3.385 17.6075 -2.395 17.2775 -1.375 16.9375 C-1.375 15.6175 -1.375 14.2975 -1.375 12.9375 C-0.385 12.9375 0.605 12.9375 1.625 12.9375 C0.875 18.6875 0.875 18.6875 -1.375 20.9375 C-3.8125 20.9375 -3.8125 20.9375 -6.375 19.9375 C-9.0637247 15.95077027 -10.07048705 12.70655406 -9.375 7.9375 C-4.87674564 -0.12833541 -4.87674564 -0.12833541 0 0 Z " fill="#CCCCCC" transform="translate(272.375,128.0625)"/>
<path d="M0 0 C0.99 0.33 1.98 0.66 3 1 C3.6875 3.0625 3.6875 3.0625 4 5 C4.680625 4.154375 5.36125 3.30875 6.0625 2.4375 C9 0 9 0 12.8125 0.1875 C14.3903125 0.5896875 14.3903125 0.5896875 16 1 C15.67 2.65 15.34 4.3 15 6 C14.01 6 13.02 6 12 6 C12 5.34 12 4.68 12 4 C12.66 4 13.32 4 14 4 C14 3.34 14 2.68 14 2 C10.34683329 3.24976756 9.21934164 3.67098753 7 7 C7.66 7 8.32 7 9 7 C9 8.65 9 10.3 9 12 C9.99 12.33 10.98 12.66 12 13 C12 12.01 12 11.02 12 10 C13.32 10.33 14.64 10.66 16 11 C15.67 12.32 15.34 13.64 15 15 C9.5 15.36666667 9.5 15.36666667 7.125 13.625 C6 12 6 12 6 10 C5.34 10 4.68 10 4 10 C3.34 11.65 2.68 13.3 2 15 C0.68 14.67 -0.64 14.34 -2 14 C-2 13.01 -2 12.02 -2 11 C-0.35 10.34 1.3 9.68 3 9 C3.15811388 5.94729537 3.15811388 5.94729537 2 3 C1.01 3.33 0.02 3.66 -1 4 C-0.67 2.68 -0.34 1.36 0 0 Z " fill="#D5D5D5" transform="translate(153,59)"/>
<path d="M0 0 C2.31 0.66 4.62 1.32 7 2 C7.10699219 2.59425781 7.21398437 3.18851562 7.32421875 3.80078125 C8.08847302 6.28792086 9.01060266 7.33998501 10.8125 9.1875 C18.24621472 17.73179379 18.79944319 26.10943285 18.22949219 37.05615234 C17.89826415 39.86172428 17.03089896 42.38151664 16 45 C15.67 45 15.34 45 15 45 C15.03480469 43.74445313 15.06960938 42.48890625 15.10546875 41.1953125 C15.36048644 28.30146359 15.1977447 17.91830534 6 8 C3.749786 5.88534106 1.43321232 3.9004972 -1 2 C-0.67 1.34 -0.34 0.68 0 0 Z " fill="#1F1F1F" transform="translate(250,70)"/>
<path d="M0 0 C3.82946843 1.45255699 5.12050295 3.42895561 7 7 C5.75 8.5 5.75 8.5 4 10 C2.68 10 1.36 10 0 10 C-0.33 10.99 -0.66 11.98 -1 13 C-2.0209375 11.824375 -2.0209375 11.824375 -3.0625 10.625 C-6.51308916 7.54149479 -8.56566662 6.95642485 -13 6 C-13 4.68 -13 3.36 -13 2 C-12.34 1.67 -11.68 1.34 -11 1 C-11 2.32 -11 3.64 -11 5 C-9.9275 4.690625 -8.855 4.38125 -7.75 4.0625 C-5.17133778 3.33187904 -2.60487898 2.62517096 0 2 C0 1.34 0 0.68 0 0 Z " fill="#1C1C1C" transform="translate(151,60)"/>
<path d="M0 0 C0.66 0.33 1.32 0.66 2 1 C2.33 1.99 2.66 2.98 3 4 C5.00016466 5.20882096 5.00016466 5.20882096 7 6 C7 6.66 7 7.32 7 8 C6.236875 8.2475 5.47375 8.495 4.6875 8.75 C1.7635955 10.10995558 0.69995644 11.31585826 -1 14 C-1.33 13.01 -1.66 12.02 -2 11 C-2.99 10.67 -3.98 10.34 -5 10 C-5 10.99 -5 11.98 -5 13 C-6.32 12.67 -7.64 12.34 -9 12 C-8.67 10.35 -8.34 8.7 -8 7 C-8.66 7 -9.32 7 -10 7 C-9.3125 5.0625 -9.3125 5.0625 -8 3 C-5.375 2.25 -5.375 2.25 -3 2 C-3 2.66 -3 3.32 -3 4 C-3.66 4 -4.32 4 -5 4 C-5 4.66 -5 5.32 -5 6 C-4.01 5.67 -3.02 5.34 -2 5 C-0.78130071 2.49552484 -0.78130071 2.49552484 0 0 Z " fill="#1A1A1A" transform="translate(170,59)"/>
<path d="M0 0 C3.60200289 2.06766453 6.88439523 4.90944916 8 9 C7.8125 12.125 7.8125 12.125 7 15 C2.93150591 17.71232939 0.83523216 17.30699887 -4 17 C-6 15 -6 15 -6.125 11.875 C-6.08375 10.92625 -6.0425 9.9775 -6 9 C-4.68 8.67 -3.36 8.34 -2 8 C-2.66 8.66 -3.32 9.32 -4 10 C-3.67958603 12.60280568 -3.67958603 12.60280568 -3 15 C1.34184202 14.81535634 1.34184202 14.81535634 5 13 C4.76636352 8.14071329 4.76636352 8.14071329 2.375 4.0625 C-0.97682053 2.56300134 -3.36980218 2.54622527 -7 3 C-10.20127866 5.52732526 -11.82083728 7.52688431 -12.31640625 11.6015625 C-12.39761719 12.59929687 -12.47882813 13.59703125 -12.5625 14.625 C-12.68818359 16.12933594 -12.68818359 16.12933594 -12.81640625 17.6640625 C-12.87699219 18.43492187 -12.93757812 19.20578125 -13 20 C-13.66 20 -14.32 20 -15 20 C-15.50408218 13.04086552 -15.18394918 8.69481972 -11 3 C-7.68429131 -0.54437825 -4.72120694 -0.65120096 0 0 Z " fill="#B2B2B2" transform="translate(248,133)"/>
<path d="M0 0 C2.64 0 5.28 0 8 0 C8 6.6 8 13.2 8 20 C6.68 20 5.36 20 4 20 C3.87882812 19.14277344 3.75765625 18.28554687 3.6328125 17.40234375 C2.76144776 11.45695509 1.86184181 5.71851412 0 0 Z " fill="#090909" transform="translate(283,55)"/>
<path d="M0 0 C0.33 0 0.66 0 1 0 C1.43874423 9.01863141 1.12326092 18.75347816 -3 27 C-3.66 27 -4.32 27 -5 27 C-7.28571429 18.57142857 -7.28571429 18.57142857 -7 14 C-5.68 13.34 -4.36 12.68 -3 12 C-3 12.66 -3 13.32 -3 14 C-2.34 14 -1.68 14 -1 14 C-0.67 9.38 -0.34 4.76 0 0 Z " fill="#121212" transform="translate(262,102)"/>
<path d="M0 0 C0.33 0 0.66 0 1 0 C1 1.65 1 3.3 1 5 C1.66 5 2.32 5 3 5 C2.88490339 6.41750563 2.75746342 7.83401169 2.625 9.25 C2.55539062 10.03890625 2.48578125 10.8278125 2.4140625 11.640625 C1.98492887 14.085877 1.21399362 15.84836903 0 18 C1.98 18 3.96 18 6 18 C7.125 21.75 7.125 21.75 6 24 C5.34 24 4.68 24 4 24 C4.33 22.68 4.66 21.36 5 20 C4.236875 20.185625 3.47375 20.37125 2.6875 20.5625 C0 21 0 21 -3 20 C-3.99 22.475 -3.99 22.475 -5 25 C-5.66 25 -6.32 25 -7 25 C-6.67 22.69 -6.34 20.38 -6 18 C-5.01 18 -4.02 18 -3 18 C-1.15433468 14.01606389 -0.63977171 10.55623317 -0.375 6.1875 C-0.26285156 4.44533203 -0.26285156 4.44533203 -0.1484375 2.66796875 C-0.09945313 1.78753906 -0.05046875 0.90710938 0 0 Z " fill="#D9D9D9" transform="translate(268,96)"/>
<path d="M0 0 C5.77408921 2.50520967 5.77408921 2.50520967 7.109375 5.17578125 C6.16578125 4.8509375 6.16578125 4.8509375 5.203125 4.51953125 C-0.33677201 2.71739608 -5.0841635 1.19163523 -10.890625 2.17578125 C-12.52754007 3.88942671 -13.64485957 5.56976762 -14.78515625 7.64453125 C-15.14996094 8.14984375 -15.51476562 8.65515625 -15.890625 9.17578125 C-16.880625 9.17578125 -17.870625 9.17578125 -18.890625 9.17578125 C-18.890625 8.51578125 -18.890625 7.85578125 -18.890625 7.17578125 C-17.900625 7.17578125 -16.910625 7.17578125 -15.890625 7.17578125 C-15.560625 5.52578125 -15.230625 3.87578125 -14.890625 2.17578125 C-16.210625 2.17578125 -17.530625 2.17578125 -18.890625 2.17578125 C-18.890625 1.51578125 -18.890625 0.85578125 -18.890625 0.17578125 C-13.64998993 -2.44453629 -5.48568854 -1.56416254 0 0 Z " fill="#E0E0E0" transform="translate(233.890625,58.82421875)"/>
<path d="M0 0 C1.32 0.66 2.64 1.32 4 2 C3.67 2.66 3.34 3.32 3 4 C2.34 3.67 1.68 3.34 1 3 C3.41556126 6.19199167 5.68003538 8.74716687 9 11 C4.74938644 12.41687119 2.28148375 11.19320039 -2 10 C-2 10.99 -2 11.98 -2 13 C-1.34 13.33 -0.68 13.66 0 14 C-1.65 13.67 -3.3 13.34 -5 13 C-5 12.01 -5 11.02 -5 10 C-2.5 8.3125 -2.5 8.3125 0 7 C-0.33 6.67 -0.66 6.34 -1 6 C-1.125 3.5 -1.125 3.5 -1 1 C-0.67 0.67 -0.34 0.34 0 0 Z " fill="#E4E4E4" transform="translate(244,113)"/>
<path d="M0 0 C3.63 0 7.26 0 11 0 C11.33 1.32 11.66 2.64 12 4 C11 5 11 5 8.71484375 5.09765625 C7.34005859 5.08025391 7.34005859 5.08025391 5.9375 5.0625 C5.01839844 5.05347656 4.09929687 5.04445313 3.15234375 5.03515625 C2.44207031 5.02355469 1.73179687 5.01195312 1 5 C0.67 3.35 0.34 1.7 0 0 Z " fill="#1F1F1F" transform="translate(198,21)"/>
<path d="M0 0 C2.0625 0.4375 2.0625 0.4375 4 1 C4 1.66 4 2.32 4 3 C3.01 3 2.02 3 1 3 C3.27330457 7.42031443 6.12778052 9.93449291 10 13 C11.01680311 13.98290968 12.02738219 14.97334787 13 16 C13.33 15.34 13.66 14.68 14 14 C14 14.99 14 15.98 14 17 C13.34 17 12.68 17 12 17 C12.66 18.32 13.32 19.64 14 21 C12.68 20.67 11.36 20.34 10 20 C9.93941406 19.44183594 9.87882812 18.88367188 9.81640625 18.30859375 C8.31772207 14.07068777 4.41435322 11.49521253 1.15234375 8.53515625 C-1 6 -1 6 -1.37109375 3.24609375 C-1 1 -1 1 0 0 Z " fill="#C1C1C1" transform="translate(247,56)"/>
<path d="M0 0 C1.23556641 0.01740234 1.23556641 0.01740234 2.49609375 0.03515625 C3.32238281 0.04417969 4.14867188 0.05320312 5 0.0625 C5.63808594 0.07410156 6.27617188 0.08570312 6.93359375 0.09765625 C7.26359375 1.74765625 7.59359375 3.39765625 7.93359375 5.09765625 C4.63359375 5.09765625 1.33359375 5.09765625 -2.06640625 5.09765625 C-2.39640625 3.77765625 -2.72640625 2.45765625 -3.06640625 1.09765625 C-2.06640625 0.09765625 -2.06640625 0.09765625 0 0 Z " fill="#202020" transform="translate(100.06640625,16.90234375)"/>
<path d="M0 0 C2.70408823 1.02568864 3.97795525 1.97263411 5.8125 4.25 C7.29436224 7.68168098 7.10151019 9.45943152 6 13 C1.93150591 15.71232939 -0.16476784 15.30699887 -5 15 C-7 13 -7 13 -7.125 9.875 C-7.08375 8.92625 -7.0425 7.9775 -7 7 C-5.68 6.67 -4.36 6.34 -3 6 C-3.66 6.66 -4.32 7.32 -5 8 C-4.67958603 10.60280568 -4.67958603 10.60280568 -4 13 C0.34184202 12.81535634 0.34184202 12.81535634 4 11 C3.65504062 6.42928825 3.14340842 3.41674829 0 0 Z " fill="#CDCDCD" transform="translate(249,135)"/>
<path d="M0 0 C2.31 0 4.62 0 7 0 C7 2.31 7 4.62 7 7 C4.69 7 2.38 7 0 7 C0 4.69 0 2.38 0 0 Z " fill="#151515" transform="translate(99,23)"/>
<path d="M0 0 C1.98 0 3.96 0 6 0 C5.67 2.31 5.34 4.62 5 7 C8.3 7 11.6 7 15 7 C15 7.33 15 7.66 15 8 C11.37 8 7.74 8 4 8 C4 7.34 4 6.68 4 6 C2.68 5.67 1.36 5.34 0 5 C0 3.35 0 1.7 0 0 Z " fill="#1B1B1B" transform="translate(255,5)"/>
<path d="M0 0 C0.99 0 1.98 0 3 0 C1.58707905 4.8274799 -0.42974154 8.7162359 -3 13 C-3.99 13 -4.98 13 -6 13 C-4.18733961 4.49443969 -4.18733961 4.49443969 -1 2 C-0.67 1.34 -0.34 0.68 0 0 Z " fill="#E7E7E7" transform="translate(265,116)"/>
<path d="M0 0 C0.33 0 0.66 0 1 0 C1.05398987 2.27057377 1.09278742 4.54151288 1.125 6.8125 C1.14820312 8.07707031 1.17140625 9.34164062 1.1953125 10.64453125 C1 14 1 14 -1 17 C-1.99 17 -2.98 17 -4 17 C-4 15.02 -4 13.04 -4 11 C-3.34 11 -2.68 11 -2 11 C-0.85185003 8.70370006 -0.69230191 6.92301914 -0.4375 4.375 C-0.35371094 3.55773437 -0.26992187 2.74046875 -0.18359375 1.8984375 C-0.12300781 1.27195313 -0.06242187 0.64546875 0 0 Z " fill="#E0E0E0" transform="translate(110,146)"/>
<path d="M0 0 C2.31 0.66 4.62 1.32 7 2 C7.12375 2.61875 7.2475 3.2375 7.375 3.875 C7.87197356 6.19120832 7.87197356 6.19120832 10 8 C9.67 8.99 9.34 9.98 9 11 C5.66666667 7.66666667 2.33333333 4.33333333 -1 1 C-0.67 0.67 -0.34 0.34 0 0 Z " fill="#1C1C1C" transform="translate(250,70)"/>
<path d="M0 0 C0.33 1.32 0.66 2.64 1 4 C5.60742865 2.78955868 5.60742865 2.78955868 10 1 C9.62875 1.7425 9.2575 2.485 8.875 3.25 C7.70484137 5.94283647 7.70484137 5.94283647 8.875 8.3125 C9.431875 9.1478125 9.431875 9.1478125 10 10 C9.484375 9.54625 8.96875 9.0925 8.4375 8.625 C5.42699426 6.61799617 2.49072763 5.87268191 -1 5 C-1 1 -1 1 0 0 Z " fill="#AEAEAE" transform="translate(139,61)"/>
<path d="M0 0 C0.33 0 0.66 0 1 0 C1 1.65 1 3.3 1 5 C1.66 5 2.32 5 3 5 C2.03644647 14.41002278 2.03644647 14.41002278 1 19 C0.01 18.67 -0.98 18.34 -2 18 C-1.34 12.06 -0.68 6.12 0 0 Z " fill="#A6A6A6" transform="translate(268,96)"/>
<path d="M0 0 C2.475 0.495 2.475 0.495 5 1 C5.625 2.8125 5.625 2.8125 6 5 C5.01 6.485 5.01 6.485 4 8 C4.33 8.66 4.66 9.32 5 10 C3.68 9.67 2.36 9.34 1 9 C1.33 7.02 1.66 5.04 2 3 C1.34 2.67 0.68 2.34 0 2 C0 1.34 0 0.68 0 0 Z " fill="#D6D6D6" transform="translate(256,153)"/>
<path d="M0 0 C0.66 0.33 1.32 0.66 2 1 C1.01 2.485 1.01 2.485 0 4 C-0.41679297 6.54230847 -0.41679297 6.54230847 0 9 C0.99 9.66 1.98 10.32 3 11 C3 11.66 3 12.32 3 13 C-1.875 11.125 -1.875 11.125 -3 10 C-3.30867281 6.52743085 -3.38701339 4.6127712 -1.5 1.625 C-1.005 1.08875 -0.51 0.5525 0 0 Z " fill="#DADADA" transform="translate(228,66)"/>
<path d="M0 0 C0.66 0.99 1.32 1.98 2 3 C2.99 3.33 3.98 3.66 5 4 C5 3.01 5 2.02 5 1 C6.32 1.33 7.64 1.66 9 2 C8.67 3.32 8.34 4.64 8 6 C5.1875 6.25 5.1875 6.25 2 6 C0.125 4 0.125 4 -1 2 C-0.67 1.34 -0.34 0.68 0 0 Z " fill="#C5C5C5" transform="translate(160,68)"/>
<path d="M0 0 C6.20988129 0.44356295 10.60540561 1.91532502 16 5 C15.34 5.66 14.68 6.32 14 7 C12.989375 6.34 11.97875 5.68 10.9375 5 C7.21937109 2.84500284 4.31084509 2.64809428 0 3 C0 2.01 0 1.02 0 0 Z " fill="#C3C3C3" transform="translate(230,64)"/>
<path d="M0 0 C-1.69179328 2.04219706 -2.63727666 2.91793306 -5.26171875 3.51171875 C-6.06222656 3.56972656 -6.86273438 3.62773438 -7.6875 3.6875 C-8.49574219 3.75324219 -9.30398437 3.81898437 -10.13671875 3.88671875 C-10.75160156 3.92410156 -11.36648437 3.96148437 -12 4 C-11.67 3.01 -11.34 2.02 -11 1 C-7.50970582 -0.47666292 -3.72563614 -0.07164685 0 0 Z " fill="#F8F8F8" transform="translate(199,63)"/>
<path d="M0 0 C1.65 0.33 3.3 0.66 5 1 C5 1.99 5 2.98 5 4 C4.34 4 3.68 4 3 4 C3 3.34 3 2.68 3 2 C2.01 2.66 1.02 3.32 0 4 C-0.36297936 5.97747122 -0.36297936 5.97747122 -0.1875 8.125 C-0.0946875 10.043125 -0.0946875 10.043125 0 12 C-0.66 12 -1.32 12 -2 12 C-2.05422947 10.5629191 -2.09289723 9.12524538 -2.125 7.6875 C-2.14820313 6.88699219 -2.17140625 6.08648437 -2.1953125 5.26171875 C-2 3 -2 3 0 0 Z " fill="#BEBEBE" transform="translate(256,112)"/>
<path d="M0 0 C2.0625 0.4375 2.0625 0.4375 4 1 C3.01 1.66 2.02 2.32 1 3 C1 3.66 1 4.32 1 5 C3.97 5.495 3.97 5.495 7 6 C6.360625 6.12375 5.72125 6.2475 5.0625 6.375 C4.0415625 6.684375 4.0415625 6.684375 3 7 C2.67 7.66 2.34 8.32 2 9 C2 8.34 2 7.68 2 7 C0.68 6.67 -0.64 6.34 -2 6 C-1.125 1.125 -1.125 1.125 0 0 Z " fill="#D8D8D8" transform="translate(185,57)"/>
<path d="M0 0 C1.65 0.33 3.3 0.66 5 1 C5.33 2.65 5.66 4.3 6 6 C4.68 5.01 3.36 4.02 2 3 C1.34 4.65 0.68 6.3 0 8 C-0.66 7.01 -1.32 6.02 -2 5 C-1.125 2.3125 -1.125 2.3125 0 0 Z " fill="#C5C5C5" transform="translate(272,87)"/>
<path d="M0 0 C0.928125 0.0825 1.85625 0.165 2.8125 0.25 C3.1425 1.9 3.4725 3.55 3.8125 5.25 C2.8225 5.745 2.8225 5.745 1.8125 6.25 C1.8125 4.93 1.8125 3.61 1.8125 2.25 C0.6678125 2.745 0.6678125 2.745 -0.5 3.25 C-3.1875 4.25 -3.1875 4.25 -6.1875 4.25 C-4.36434338 1.00883268 -3.82500054 0.30000004 0 0 Z " fill="#C8C8C8" transform="translate(267.1875,63.75)"/>
<path d="M0 0 C1.65 0.33 3.3 0.66 5 1 C5 1.99 5 2.98 5 4 C4.01 3.67 3.02 3.34 2 3 C2 3.99 2 4.98 2 6 C1.01 5.67 0.02 5.34 -1 5 C-0.67 3.35 -0.34 1.7 0 0 Z " fill="#D7D7D7" transform="translate(254,90)"/>
<path d="M0 0 C1.485 0.99 1.485 0.99 3 2 C3.40843923 4.71203652 3.13336867 7.2437142 3 10 C2.34 10 1.68 10 1 10 C0.67 6.7 0.34 3.4 0 0 Z " fill="#F5F5F5" transform="translate(268,91)"/>
<path d="M0 0 C0.598125 0.20625 1.19625 0.4125 1.8125 0.625 C0.4925 0.955 -0.8275 1.285 -2.1875 1.625 C-2.1875 2.615 -2.1875 3.605 -2.1875 4.625 C-1.5275 4.955 -0.8675 5.285 -0.1875 5.625 C-1.8375 5.295 -3.4875 4.965 -5.1875 4.625 C-5.1875 3.635 -5.1875 2.645 -5.1875 1.625 C-2.1875 -0.375 -2.1875 -0.375 0 0 Z " fill="#BDBDBD" transform="translate(244.1875,121.375)"/>
<path d="M0 0 C0.33 0.66 0.66 1.32 1 2 C1.66 2 2.32 2 3 2 C3 2.66 3 3.32 3 4 C3.99 4 4.98 4 6 4 C6 4.99 6 5.98 6 7 C3.83125748 6.49396008 2.00032373 6.00016187 0 5 C0 3.35 0 1.7 0 0 Z " fill="#C4C4C4" transform="translate(238,74)"/>
<path d="M0 0 C0.99 0.33 1.98 0.66 3 1 C3 2.32 3 3.64 3 5 C1.35 4.67 -0.3 4.34 -2 4 C-1.34 2.68 -0.68 1.36 0 0 Z " fill="#252525" transform="translate(96,136)"/>
<path d="M0 0 C-0.33 1.65 -0.66 3.3 -1 5 C-2.32 5.33 -3.64 5.66 -5 6 C-5 4.35 -5 2.7 -5 1 C-2 0 -2 0 0 0 Z " fill="#313131" transform="translate(219,61)"/>
<path d="M0 0 C0.33 0.66 0.66 1.32 1 2 C-0.65 3.98 -2.3 5.96 -4 8 C-4.99 7.34 -5.98 6.68 -7 6 C-4.69 4.02 -2.38 2.04 0 0 Z " fill="#E3E3E3" transform="translate(277,154)"/>
<path d="M0 0 C1.8125 0.1875 1.8125 0.1875 4 1 C5.8125 3.375 5.8125 3.375 7 6 C6.67 6.99 6.34 7.98 6 9 C4 6 2 3 0 0 Z " fill="#B1B1B1" transform="translate(274,130)"/>
<path d="M0 0 C1.98 0.99 1.98 0.99 4 2 C4.33 1.34 4.66 0.68 5 0 C5 0.99 5 1.98 5 3 C4.34 3 3.68 3 3 3 C3.66 4.32 4.32 5.64 5 7 C3.68 6.67 2.36 6.34 1 6 C0.4465236 3.92446352 0 2.15634036 0 0 Z " fill="#ADADAD" transform="translate(256,70)"/>
<path d="M0 0 C3.125 0.375 3.125 0.375 6 1 C6 1.33 6 1.66 6 2 C4.6078125 2.433125 4.6078125 2.433125 3.1875 2.875 C-0.09791667 3.8875 -0.09791667 3.8875 -3 6 C-2.42655063 3.13275314 -2.1385485 2.1385485 0 0 Z " fill="#CDCDCD" transform="translate(173,67)"/>
<path d="M0 0 C1.4606285 2.64738916 2 3.89448334 2 7 C1.34 7 0.68 7 0 7 C-0.33 7.99 -0.66 8.98 -1 10 C-1.125 2.25 -1.125 2.25 0 0 Z " fill="#262626" transform="translate(262,138)"/>
<path d="M0 0 C0.99 0 1.98 0 3 0 C2.34 1.98 1.68 3.96 1 6 C-0.0625 4.125 -0.0625 4.125 -1 2 C-0.67 1.34 -0.34 0.68 0 0 Z M-4 5 C-3.01 5.495 -3.01 5.495 -2 6 C-2.99 6.495 -2.99 6.495 -4 7 C-4 6.34 -4 5.68 -4 5 Z " fill="#EFEFEF" transform="translate(265,116)"/>
<path d="M0 0 C1.98 0.495 1.98 0.495 4 1 C3.01 2.98 2.02 4.96 1 7 C0.34 7 -0.32 7 -1 7 C-0.67 4.69 -0.34 2.38 0 0 Z " fill="#9A9A9A" transform="translate(262,114)"/>
<path d="M0 0 C1.65 0 3.3 0 5 0 C4.67 1.32 4.34 2.64 4 4 C2.68 3.67 1.36 3.34 0 3 C0 2.01 0 1.02 0 0 Z " fill="#EAEAEA" transform="translate(151,70)"/>
<path d="M0 0 C0 3 0 6 0 9 C-1.32 7.68 -2.64 6.36 -4 5 C-3 2 -3 2 0 0 Z " fill="#D2D2D2" transform="translate(148,62)"/>
<path d="M0 0 C2.25245881 2.68841859 3.88213958 4.64641875 5 8 C4.01 8 3.02 8 2 8 C0.23537317 4.91190305 0 3.76687864 0 0 Z " fill="#CBCBCB" transform="translate(234,153)"/>
<path d="M0 0 C2.35171131 0.59861742 4.6859378 1.26924352 7 2 C7.33 2.66 7.66 3.32 8 4 C5.36 3.67 2.72 3.34 0 3 C0 2.01 0 1.02 0 0 Z " fill="#4A4A4A" transform="translate(250,70)"/>
</svg>
