<?xml version="1.0" encoding="UTF-8"?>
<svg version="1.1" xmlns="http://www.w3.org/2000/svg" width="297" height="61">
<path d="M0 0 C0 0.66 0 1.32 0 2 C0.66 2 1.32 2 2 2 C2 4.31 2 6.62 2 9 C4.475 9.99 4.475 9.99 7 11 C7 9.68 7 8.36 7 7 C7.99 6.67 8.98 6.34 10 6 C10.33 5.01 10.66 4.02 11 3 C13.33294775 2.95758277 15.66702567 2.95907063 18 3 C19 4 19 4 19.11352539 5.85766602 C19.10567017 7.04380493 19.10567017 7.04380493 19.09765625 8.25390625 C19.09282227 9.53491211 19.09282227 9.53491211 19.08789062 10.84179688 C19.07532227 12.18854492 19.07532227 12.18854492 19.0625 13.5625 C19.05798828 14.46419922 19.05347656 15.36589844 19.04882812 16.29492188 C19.03700225 18.53001314 19.0205222 20.76497437 19 23 C16.10765685 23.82638376 14.11257569 24 11 24 C11 24.66 11 25.32 11 26 C10.01 26.33 9.02 26.66 8 27 C8 29.31 8 31.62 8 34 C8.77085938 33.98839844 9.54171875 33.97679687 10.3359375 33.96484375 C11.33882812 33.95582031 12.34171875 33.94679687 13.375 33.9375 C14.87160156 33.92009766 14.87160156 33.92009766 16.3984375 33.90234375 C19 34 19 34 21 35 C20 38 20 38 18 39 C17.67 40.65 17.34 42.3 17 44 C-3.79 44 -24.58 44 -46 44 C-46.33 42.35 -46.66 40.7 -47 39 C-47.99 38.34 -48.98 37.68 -50 37 C-49.67 36.01 -49.34 35.02 -49 34 C-46.36 33.67 -43.72 33.34 -41 33 C-41.20625 32.4225 -41.4125 31.845 -41.625 31.25 C-42.08661261 28.48032433 -41.42944945 27.35438733 -40 25 C-40.99 25 -41.98 25 -43 25 C-43 21.04 -43 17.08 -43 13 C-43.66 13 -44.32 13 -45 13 C-45 12.01 -45 11.02 -45 10 C-44.34 10 -43.68 10 -43 10 C-43 8.68 -43 7.36 -43 6 C-42.01 6 -41.02 6 -40 6 C-40 5.01 -40 4.02 -40 3 C-39.01 3 -38.02 3 -37 3 C-37 3.99 -37 4.98 -37 6 C-35.824375 6.4640625 -35.824375 6.4640625 -34.625 6.9375 C-32 8 -32 8 -30 9 C-27.62597499 9.07116382 -25.24999323 9.08409085 -22.875 9.0625 C-21.59367187 9.05347656 -20.31234375 9.04445313 -18.9921875 9.03515625 C-18.00476563 9.02355469 -17.01734375 9.01195312 -16 9 C-16 7.35 -16 5.7 -16 4 C-14.68 4 -13.36 4 -12 4 C-12 5.32 -12 6.64 -12 8 C-9.36 8 -6.72 8 -4 8 C-4.495 5.03 -4.495 5.03 -5 2 C-2 0 -2 0 0 0 Z M6 16 C6 17.65 6 19.3 6 21 C8.475 21.495 8.475 21.495 11 22 C10.67 21.01 10.34 20.02 10 19 C9.01 19 8.02 19 7 19 C6.67 18.01 6.34 17.02 6 16 Z M-32.8984375 18.83203125 C-34.11057936 21.08537341 -34.11057936 21.08537341 -35 24 C-35.99 24.495 -35.99 24.495 -37 25 C-37 26.32 -37 27.64 -37 29 C-36.34 29 -35.68 29 -35 29 C-35 30.65 -35 32.3 -35 34 C-27.41 34 -19.82 34 -12 34 C-8.94446756 27.03237415 -8.94446756 27.03237415 -9 20 C-12.87015718 16.12984282 -18.40388106 16.78533162 -23.625 16.6875 C-24.93726563 16.65011719 -26.24953125 16.61273437 -27.6015625 16.57421875 C-31.02553767 16.65826989 -31.02553767 16.65826989 -32.8984375 18.83203125 Z " fill="#060808" transform="translate(51,4)"/>
<path d="M0 0 C3.4375 2 3.4375 2 6 4 C6.845625 3.34 7.69125 2.68 8.5625 2 C12.5265716 -0.30636893 14.4897723 -0.57402898 19 0 C23.22209735 1.8231784 25.02663189 3.89135177 27 8 C27.25139766 10.65508364 27.35182051 13.0615348 27.29296875 15.70703125 C27.28872391 16.43242599 27.28447906 17.15782074 27.28010559 17.90519714 C27.26339543 20.20801891 27.2257596 22.50994553 27.1875 24.8125 C27.17244316 26.3795446 27.1587565 27.946603 27.14648438 29.51367188 C27.11351731 33.34278957 27.06178992 37.17124334 27 41 C23.04 41 19.08 41 15 41 C14.67 32.09 14.34 23.18 14 14 C13.34 13.67 12.68 13.34 12 13 C12 22.24 12 31.48 12 41 C8.04 41 4.08 41 0 41 C-0.33 32.09 -0.66 23.18 -1 14 C-1.33 14 -1.66 14 -2 14 C-2.33 22.91 -2.66 31.82 -3 41 C-6.96 41 -10.92 41 -15 41 C-15.09913574 36.24949181 -15.17159264 31.49959024 -15.21972656 26.74829102 C-15.23979892 25.13327542 -15.2670633 23.51833211 -15.30175781 21.90356445 C-15.35047215 19.57745499 -15.37301154 17.25230907 -15.390625 14.92578125 C-15.41127014 14.20787918 -15.43191528 13.48997711 -15.45318604 12.75032043 C-15.45480508 9.10453907 -15.10900122 7.16616141 -13.08886719 4.08666992 C-8.98589878 -0.0119826 -5.81485377 -0.6015366 0 0 Z " fill="#233D7A" transform="translate(139,6)"/>
<path d="M0 0 C3.7647859 2.45148849 5.2764566 4.51686981 6.6875 8.75 C6.77147157 11.10680213 6.79478187 13.46594081 6.78515625 15.82421875 C6.7837413 16.5080513 6.78232635 17.19188385 6.78086853 17.8964386 C6.77527876 20.07683722 6.76272822 22.25713251 6.75 24.4375 C6.74498367 25.91731622 6.740421 27.39713406 6.73632812 28.87695312 C6.72531271 32.50133557 6.70805512 36.1256577 6.6875 39.75 C2.7275 39.75 -1.2325 39.75 -5.3125 39.75 C-5.8075 25.89 -5.8075 25.89 -6.3125 11.75 C-7.3025 12.08 -8.2925 12.41 -9.3125 12.75 C-9.6425 15.06 -9.9725 17.37 -10.3125 19.75 C-9.3225 19.75 -8.3325 19.75 -7.3125 19.75 C-7.3125 23.38 -7.3125 27.01 -7.3125 30.75 C-8.3025 30.75 -9.2925 30.75 -10.3125 30.75 C-10.3125 33.72 -10.3125 36.69 -10.3125 39.75 C-14.2725 39.75 -18.2325 39.75 -22.3125 39.75 C-22.4120024 35.46336002 -22.4842631 31.17734669 -22.53222656 26.88989258 C-22.55223822 25.43404416 -22.57945677 23.97827506 -22.61425781 22.52270508 C-22.96802723 7.33663267 -22.96802723 7.33663267 -18.3125 1.75 C-12.2505236 -1.86387054 -6.63225962 -2.50273948 0 0 Z " fill="#233D7A" transform="translate(194.3125,7.25)"/>
<path d="M0 0 C4.29 0 8.58 0 13 0 C14.32 2.31 15.64 4.62 17 7 C17.99 4.69 18.98 2.38 20 0 C24.29 0 28.58 0 33 0 C31 6 31 6 28.921875 8.98046875 C25.42648298 14.08775112 25.42648298 14.08775112 24 20 C25.6812057 26.34346703 29.38379443 31.93420227 32.97094727 37.36450195 C34 39 34 39 34 40 C29.38 40 24.76 40 20 40 C18.68 37.69 17.36 35.38 16 33 C15.01 35.31 14.02 37.62 13 40 C8.71 40 4.42 40 0 40 C1.96948557 34.0915433 4.53718893 29.50543563 7.734375 24.21875 C9.29181119 21.10514081 9.29181119 21.10514081 8.4296875 18.0859375 C7.95789063 17.06757813 7.48609375 16.04921875 7 15 C6.72478516 14.38092773 6.44957031 13.76185547 6.16601562 13.12402344 C5.26331231 11.11022468 4.32468835 9.11702922 3.375 7.125 C3.05015625 6.43664062 2.7253125 5.74828125 2.390625 5.0390625 C1.59676528 3.35794781 0.79880442 1.67877079 0 0 Z " fill="#EA2030" transform="translate(263,7)"/>
<path d="M0 0 C3.03438782 3.74241164 3.75301218 7.22490213 4 12 C3.327976 15.96494159 2.59361369 18.29508374 0 21.375 C-4.21820094 23.65985884 -8.26319941 23.81604658 -13 24 C-13.08086147 22.20906809 -13.13912702 20.41710372 -13.1875 18.625 C-13.22230469 17.62726562 -13.25710937 16.62953125 -13.29296875 15.6015625 C-13.14794922 14.31378906 -13.14794922 14.31378906 -13 13 C-12.01 12.34 -11.02 11.68 -10 11 C-10 10.34 -10 9.68 -10 9 C-10.99 9.33 -11.98 9.66 -13 10 C-13.33 18.91 -13.66 27.82 -14 37 C-17.96 37 -21.92 37 -26 37 C-26.0744013 32.67671196 -26.12871968 28.35376745 -26.16479492 24.0300293 C-26.17984066 22.56056218 -26.20028238 21.09113966 -26.22631836 19.62182617 C-26.26288955 17.5042823 -26.27976801 15.38733435 -26.29296875 13.26953125 C-26.3086792 11.99698486 -26.32438965 10.72443848 -26.34057617 9.41333008 C-25.85142945 4.51099293 -24.1276655 2.040922 -20.5625 -1.25 C-13.60058247 -6.00448026 -6.56130987 -4.66862433 0 0 Z " fill="#233D7A" transform="translate(233,10)"/>
<path d="M0 0 C3.63 0 7.26 0 11 0 C11 9.57 11 19.14 11 29 C7.37 29 3.74 29 0 29 C0 19.43 0 9.86 0 0 Z " fill="#233D7A" transform="translate(107,18)"/>
<path d="M0 0 C1.875 1.125 1.875 1.125 3 3 C3.42478586 7.07794425 3.31282587 8.53076119 1 12 C-0.875 12.3984375 -0.875 12.3984375 -3 12.375 C-3.70125 12.38273437 -4.4025 12.39046875 -5.125 12.3984375 C-7 12 -7 12 -9 9 C-9.32502803 5.87973093 -9.51151479 3.85252465 -7.875 1.125 C-5.11909116 -0.52854531 -3.14924548 -0.39365568 0 0 Z " fill="#E52132" transform="translate(116,5)"/>
<path d="M0 0 C4.29 0 8.58 0 13 0 C13 2.97 13 5.94 13 9 C8.71 9 4.42 9 0 9 C0 6.03 0 3.06 0 0 Z " fill="#233D7A" transform="translate(238,25)"/>
</svg>
